%TF.GenerationSoftware,Altium Limited,Altium Designer,18.1.9 (240)*%
G04 Layer_Color=8388736*
%FSLAX26Y26*%
%MOIN*%
%TF.FileFunction,Soldermask,Top*%
%TF.Part,Single*%
G01*
G75*
%TA.AperFunction,NonConductor*%
%ADD40R,0.100000X0.250000*%
%TA.AperFunction,SMDPad,CuDef*%
%ADD49R,0.045402X0.061150*%
%ADD50R,0.061150X0.045402*%
%TA.AperFunction,ComponentPad*%
%ADD51C,0.068000*%
%ADD52R,0.046000X0.046000*%
%ADD53C,0.046000*%
%ADD54C,0.080835*%
%ADD55C,0.008000*%
%ADD56R,0.067055X0.067055*%
%ADD57C,0.067055*%
%ADD58C,0.066976*%
%TA.AperFunction,ViaPad*%
%ADD59C,0.058000*%
%ADD60C,0.248000*%
%TA.AperFunction,SMDPad,CuDef*%
%ADD63R,0.076898X0.031622*%
%ADD64R,0.088709X0.039496*%
%ADD65R,0.059181X0.090677*%
%ADD66R,0.043433X0.063118*%
%TA.AperFunction,ConnectorPad*%
%ADD67R,0.045402X0.061150*%
D40*
X2800000Y3339999D02*
D03*
D49*
X3651496Y2660000D02*
D03*
X3588504D02*
D03*
X3849488Y3490000D02*
D03*
X3910512D02*
D03*
X3849488Y3390000D02*
D03*
X3910512D02*
D03*
X3849488Y3190000D02*
D03*
X3910512D02*
D03*
X3849488Y3290000D02*
D03*
X3910512D02*
D03*
X3870512Y3745000D02*
D03*
X3809488D02*
D03*
D50*
X2855000Y3699488D02*
D03*
Y3760512D02*
D03*
X4360000Y3016496D02*
D03*
Y2953504D02*
D03*
X4185000Y3089488D02*
D03*
Y3150512D02*
D03*
X2945000Y3559488D02*
D03*
Y3620512D02*
D03*
X3200000Y3249488D02*
D03*
Y3310512D02*
D03*
X3065000Y3405512D02*
D03*
Y3344488D02*
D03*
X4185000Y2964488D02*
D03*
Y3025512D02*
D03*
D51*
X4090000Y3149979D02*
D03*
X3469055Y4059055D02*
D03*
Y3940945D02*
D03*
X3350945Y4059055D02*
D03*
Y3940945D02*
D03*
X3785945D02*
D03*
Y4059055D02*
D03*
X3904055Y3940945D02*
D03*
Y4059055D02*
D03*
D52*
X2825000Y3240000D02*
D03*
D53*
X2775000D02*
D03*
X2825000Y3290000D02*
D03*
X2775000D02*
D03*
X2825000Y3340000D02*
D03*
X2775000D02*
D03*
X2825000Y3390000D02*
D03*
X2775000D02*
D03*
X2825000Y3440000D02*
D03*
X2775000D02*
D03*
D54*
X4528504Y3730000D02*
D03*
X4272598D02*
D03*
Y2615000D02*
D03*
X4528504D02*
D03*
D55*
X4621024Y3615039D02*
D03*
X3587165Y4096063D02*
D03*
X3232835D02*
D03*
X3667835D02*
D03*
X4022165D02*
D03*
X4621024Y2500039D02*
D03*
D56*
X3585000Y3745000D02*
D03*
D57*
X3685000D02*
D03*
D58*
X3077047Y2473583D02*
D03*
X3332953D02*
D03*
X3077047Y2296417D02*
D03*
X3332953D02*
D03*
X3742953D02*
D03*
X3487047D02*
D03*
X3742953Y2473583D02*
D03*
X3487047D02*
D03*
D59*
X3240000Y3177057D02*
D03*
X3713303Y2655900D02*
D03*
X3515000Y3642974D02*
D03*
X4033318Y2825000D02*
D03*
X3329366Y3440000D02*
D03*
X3360000Y3130000D02*
D03*
X3135000Y3196000D02*
D03*
X3890000Y3601373D02*
D03*
X3039370Y3200000D02*
D03*
X2937614Y3312169D02*
D03*
X4285000Y3330000D02*
D03*
X3995000Y2630000D02*
D03*
X3595000Y2585536D02*
D03*
X3512362Y2585000D02*
D03*
X3975000Y2749088D02*
D03*
X3685000Y2585000D02*
D03*
X4285000Y3020000D02*
D03*
X4150000Y3325000D02*
D03*
X3362953Y3555000D02*
D03*
X3970000Y3120000D02*
D03*
X4270000Y2925000D02*
D03*
X3965000Y3045000D02*
D03*
X3390000Y3690000D02*
D03*
X3075000Y2820000D02*
D03*
X3036338Y2890000D02*
D03*
X3445000Y3631575D02*
D03*
X3017831Y3620512D02*
D03*
X3285000Y3235000D02*
D03*
X3300000Y3350000D02*
D03*
X3798117Y3665000D02*
D03*
D60*
X2825000Y4020000D02*
D03*
X4530000Y2320000D02*
D03*
Y4020000D02*
D03*
X2825000Y2320000D02*
D03*
D63*
X4485394Y3100000D02*
D03*
Y3150000D02*
D03*
Y3200000D02*
D03*
Y3250000D02*
D03*
X4284606D02*
D03*
Y3200000D02*
D03*
Y3150000D02*
D03*
Y3100000D02*
D03*
D64*
X3407756Y3490000D02*
D03*
Y3390000D02*
D03*
Y3290000D02*
D03*
Y3190000D02*
D03*
X3752244D02*
D03*
Y3290000D02*
D03*
Y3390000D02*
D03*
Y3490000D02*
D03*
D65*
X3520000Y2925551D02*
D03*
X3720000D02*
D03*
Y2744449D02*
D03*
X3520000D02*
D03*
D66*
X2892598Y2925000D02*
D03*
X2967402D02*
D03*
Y2800000D02*
D03*
X2892598D02*
D03*
D67*
X2744488Y2925000D02*
D03*
X2805512D02*
D03*
Y2800000D02*
D03*
X2744488D02*
D03*
%TF.MD5,176873828022ad89e53b802a09ae4aa2*%
M02*
