%TF.GenerationSoftware,Altium Limited,Altium Designer,18.1.9 (240)*%
G04 Layer_Color=128*
%FSLAX26Y26*%
%MOIN*%
%TF.FileFunction,Paste,Bot*%
%TF.Part,Single*%
G01*
G75*
%TA.AperFunction,SMDPad,CuDef*%
%ADD10R,0.037402X0.053150*%
%ADD15R,0.053150X0.037402*%
%ADD27R,0.023622X0.059055*%
%ADD28R,0.049213X0.023622*%
%ADD29R,0.023620X0.047240*%
%ADD30R,0.023000X0.047240*%
%ADD31R,0.037402X0.035433*%
%ADD32R,0.039370X0.070866*%
%ADD33R,0.058071X0.011811*%
%ADD34R,0.011811X0.058071*%
D10*
X3911496Y3435000D02*
D03*
X3848504D02*
D03*
X3783504Y2645086D02*
D03*
X3846496D02*
D03*
X3142701Y2840000D02*
D03*
X3203724D02*
D03*
X3129488Y3110000D02*
D03*
X3190512D02*
D03*
X3037165Y3545000D02*
D03*
X3098189D02*
D03*
X3226496Y3460000D02*
D03*
X3163504D02*
D03*
X3164488Y3545000D02*
D03*
X3225512D02*
D03*
X3093504Y3805000D02*
D03*
X3156496D02*
D03*
D15*
X3885000Y3273504D02*
D03*
Y3336496D02*
D03*
X3338947Y3066496D02*
D03*
Y3003504D02*
D03*
X3985000Y2883504D02*
D03*
Y2946496D02*
D03*
X3140512Y2689488D02*
D03*
Y2750512D02*
D03*
X3130000Y2964488D02*
D03*
Y3025512D02*
D03*
X3210000Y3386496D02*
D03*
Y3323504D02*
D03*
D27*
X3770000Y3365669D02*
D03*
X3720000D02*
D03*
X3670000D02*
D03*
X3620000D02*
D03*
Y3574331D02*
D03*
X3670000D02*
D03*
X3720000D02*
D03*
X3770000D02*
D03*
D28*
X3051338Y2757402D02*
D03*
Y2682598D02*
D03*
X2968661Y2720000D02*
D03*
X2953661Y2995000D02*
D03*
X3036338Y2957598D02*
D03*
Y3032402D02*
D03*
D29*
X3092600Y3626577D02*
D03*
X3167400D02*
D03*
D30*
Y3724997D02*
D03*
X3130000D02*
D03*
X3092600D02*
D03*
D31*
X2975000Y3677992D02*
D03*
X2975000Y3802008D02*
D03*
D32*
X3154606Y3940000D02*
D03*
X3044370D02*
D03*
D33*
X3885905Y3122638D02*
D03*
Y3102953D02*
D03*
Y3083268D02*
D03*
Y3063583D02*
D03*
Y3043898D02*
D03*
Y3024213D02*
D03*
Y3004528D02*
D03*
Y2984843D02*
D03*
Y2965157D02*
D03*
Y2945472D02*
D03*
Y2925787D02*
D03*
Y2906102D02*
D03*
Y2886417D02*
D03*
Y2866732D02*
D03*
Y2847047D02*
D03*
Y2827362D02*
D03*
X3434095D02*
D03*
Y2847047D02*
D03*
Y2866732D02*
D03*
Y2886417D02*
D03*
Y2906102D02*
D03*
Y2925787D02*
D03*
Y2945472D02*
D03*
Y2965157D02*
D03*
Y2984843D02*
D03*
Y3004528D02*
D03*
Y3024213D02*
D03*
Y3043898D02*
D03*
Y3063583D02*
D03*
Y3083268D02*
D03*
Y3102953D02*
D03*
Y3122638D02*
D03*
D34*
X3807638Y2749095D02*
D03*
X3787953D02*
D03*
X3768268D02*
D03*
X3748583D02*
D03*
X3728898D02*
D03*
X3709213D02*
D03*
X3689528D02*
D03*
X3669843D02*
D03*
X3650157D02*
D03*
X3630472D02*
D03*
X3610787D02*
D03*
X3591102D02*
D03*
X3571417D02*
D03*
X3551732D02*
D03*
X3532047D02*
D03*
X3512362D02*
D03*
Y3200905D02*
D03*
X3532047D02*
D03*
X3551732D02*
D03*
X3571417D02*
D03*
X3591102D02*
D03*
X3610787D02*
D03*
X3630472D02*
D03*
X3650157D02*
D03*
X3669843D02*
D03*
X3689528D02*
D03*
X3709213D02*
D03*
X3728898D02*
D03*
X3748583D02*
D03*
X3768268D02*
D03*
X3787953D02*
D03*
X3807638D02*
D03*
%TF.MD5,f2063e555a0486a54537d4ca2d45b86b*%
M02*
