%TF.GenerationSoftware,Altium Limited,Altium Designer,18.1.9 (240)*%
G04 Layer_Color=32896*
%FSLAX26Y26*%
%MOIN*%
%TF.FileFunction,Legend,Bot*%
%TF.Part,Single*%
G01*
G75*
%TA.AperFunction,NonConductor*%
%ADD35C,0.001968*%
%ADD36C,0.009842*%
%ADD37C,0.007874*%
%ADD38C,0.010000*%
%ADD39R,0.062480X0.020000*%
D35*
X3805568Y3340000D02*
G03*
X3805568Y3340000I-5568J0D01*
G01*
D36*
X3910000Y3152165D02*
G03*
X3910000Y3152165I-4921J0D01*
G01*
D37*
X3791457Y3407992D02*
Y3532008D01*
X3598543D02*
X3791457D01*
X3598543Y3407992D02*
Y3532008D01*
Y3407992D02*
X3791457D01*
X3007047Y2777480D02*
X3012953D01*
X3007047Y2662520D02*
Y2777480D01*
Y2662520D02*
X3012953D01*
Y2777480D01*
X3025000Y2783000D02*
X3076000D01*
X3010000Y3058000D02*
X3061000D01*
X2997952Y2937520D02*
Y3052480D01*
X2992047Y2937520D02*
X2997952D01*
X2992047D02*
Y3052480D01*
X2997952D01*
X2944488Y3765000D02*
X3005512D01*
X2944488Y3715000D02*
Y3765000D01*
X3005512Y3715000D02*
Y3765000D01*
X3079803Y3972480D02*
X3119173D01*
X3079803Y3907520D02*
X3119173D01*
X3476929Y3158071D02*
X3843071D01*
X3476929Y2791929D02*
Y3158071D01*
Y2791929D02*
X3843071D01*
Y3158071D01*
X3878032Y3457638D02*
X3881969D01*
X3878032Y3412362D02*
X3881969D01*
X3907638Y3303032D02*
Y3306969D01*
X3862362Y3303032D02*
Y3306969D01*
X3813032Y2622448D02*
X3816969D01*
X3813032Y2667724D02*
X3816969D01*
X3316310Y3033032D02*
Y3036969D01*
X3361585Y3033032D02*
Y3036969D01*
X4007638Y2913031D02*
Y2916968D01*
X3962362Y2913031D02*
Y2916968D01*
X3187362Y3353032D02*
Y3356969D01*
X3232638Y3353032D02*
Y3356969D01*
X3193032Y3482638D02*
X3196969D01*
X3193032Y3437362D02*
X3196969D01*
X3123031Y3782362D02*
X3126968D01*
X3123031Y3827638D02*
X3126968D01*
D38*
X3555000Y3504981D02*
Y3454997D01*
X3545003Y3445000D01*
X3525010D01*
X3515013Y3454997D01*
Y3504981D01*
X3495019Y3445000D02*
X3475026D01*
X3485023D01*
Y3504981D01*
X3495019Y3494984D01*
X2875013Y2704997D02*
Y2744984D01*
X2885010Y2754981D01*
X2905003D01*
X2915000Y2744984D01*
Y2704997D01*
X2905003Y2695000D01*
X2885010D01*
X2895006Y2714994D02*
X2875013Y2695000D01*
X2885010D02*
X2875013Y2704997D01*
X2815032Y2695000D02*
X2855019D01*
X2815032Y2734987D01*
Y2744984D01*
X2825029Y2754981D01*
X2845023D01*
X2855019Y2744984D01*
X2860013Y2991336D02*
Y3031323D01*
X2870010Y3041320D01*
X2890003D01*
X2900000Y3031323D01*
Y2991336D01*
X2890003Y2981339D01*
X2870010D01*
X2880006Y3001332D02*
X2860013Y2981339D01*
X2870010D02*
X2860013Y2991336D01*
X2840019Y2981339D02*
X2820026D01*
X2830023D01*
Y3041320D01*
X2840019Y3031323D01*
X4050013Y3320895D02*
X4060010Y3330892D01*
X4080003D01*
X4090000Y3320895D01*
Y3280908D01*
X4080003Y3270912D01*
X4060010D01*
X4050013Y3280908D01*
X4030019Y3270912D02*
X4010026D01*
X4020023D01*
Y3330892D01*
X4030019Y3320895D01*
X3980036D02*
X3970039Y3330892D01*
X3950045D01*
X3940048Y3320895D01*
Y3280908D01*
X3950045Y3270912D01*
X3970039D01*
X3980036Y3280908D01*
Y3320895D01*
X3805066Y2547407D02*
X3795069Y2537411D01*
X3775076D01*
X3765079Y2547407D01*
Y2587394D01*
X3775076Y2597391D01*
X3795069D01*
X3805066Y2587394D01*
X3825059D02*
X3835056Y2597391D01*
X3855050D01*
X3865046Y2587394D01*
Y2547407D01*
X3855050Y2537411D01*
X3835056D01*
X3825059Y2547407D01*
Y2557404D01*
X3835056Y2567401D01*
X3865046D01*
X3300000Y3737973D02*
X3260013D01*
X3280006D01*
Y3677992D01*
X3240019D02*
X3220026D01*
X3230023D01*
Y3737973D01*
X3240019Y3727976D01*
X3388213Y2810000D02*
Y2869981D01*
X3358222D01*
X3348226Y2859984D01*
Y2839990D01*
X3358222Y2829994D01*
X3388213D01*
X3368219D02*
X3348226Y2810000D01*
X3328232D02*
X3308238D01*
X3318235D01*
Y2869981D01*
X3328232Y2859984D01*
X3238261Y2810000D02*
X3278248D01*
X3238261Y2849987D01*
Y2859984D01*
X3248258Y2869981D01*
X3268251D01*
X3278248Y2859984D01*
X3320000Y2675000D02*
Y2734981D01*
X3290010D01*
X3280013Y2724984D01*
Y2704990D01*
X3290010Y2694994D01*
X3320000D01*
X3300006D02*
X3280013Y2675000D01*
X3260019D02*
X3240026D01*
X3250023D01*
Y2734981D01*
X3260019Y2724984D01*
X3210036Y2675000D02*
X3190042D01*
X3200039D01*
Y2734981D01*
X3210036Y2724984D01*
X3085000Y3080000D02*
Y3139981D01*
X3055010D01*
X3045013Y3129984D01*
Y3109990D01*
X3055010Y3099994D01*
X3085000D01*
X3065006D02*
X3045013Y3080000D01*
X3025019Y3089997D02*
X3015023Y3080000D01*
X2995029D01*
X2985032Y3089997D01*
Y3129984D01*
X2995029Y3139981D01*
X3015023D01*
X3025019Y3129984D01*
Y3119987D01*
X3015023Y3109990D01*
X2985032D01*
X3275000Y2915000D02*
Y2974981D01*
X3245010D01*
X3235013Y2964984D01*
Y2944990D01*
X3245010Y2934994D01*
X3275000D01*
X3255006D02*
X3235013Y2915000D01*
X3215019Y2964984D02*
X3205023Y2974981D01*
X3185029D01*
X3175032Y2964984D01*
Y2954987D01*
X3185029Y2944990D01*
X3175032Y2934994D01*
Y2924997D01*
X3185029Y2915000D01*
X3205023D01*
X3215019Y2924997D01*
Y2934994D01*
X3205023Y2944990D01*
X3215019Y2954987D01*
Y2964984D01*
X3205023Y2944990D02*
X3185029D01*
X2985000Y3515000D02*
Y3574981D01*
X2955010D01*
X2945013Y3564984D01*
Y3544990D01*
X2955010Y3534994D01*
X2985000D01*
X2965006D02*
X2945013Y3515000D01*
X2925019Y3564984D02*
X2915023Y3574981D01*
X2895029D01*
X2885032Y3564984D01*
Y3554987D01*
X2895029Y3544990D01*
X2905026D01*
X2895029D01*
X2885032Y3534994D01*
Y3524997D01*
X2895029Y3515000D01*
X2915023D01*
X2925019Y3524997D01*
X3300000Y3595000D02*
Y3654981D01*
X3270010D01*
X3260013Y3644984D01*
Y3624990D01*
X3270010Y3614994D01*
X3300000D01*
X3280006D02*
X3260013Y3595000D01*
X3240019D02*
X3220026D01*
X3230023D01*
Y3654981D01*
X3240019Y3644984D01*
X3545000Y2687098D02*
X3525006D01*
X3535003D01*
Y2627117D01*
X3545000D01*
X3525006D01*
X3455029Y2677101D02*
X3465026Y2687098D01*
X3485019D01*
X3495016Y2677101D01*
Y2637114D01*
X3485019Y2627117D01*
X3465026D01*
X3455029Y2637114D01*
X3435036Y2627117D02*
X3415042D01*
X3425039D01*
Y2687098D01*
X3435036Y2677101D01*
X3100013Y4079981D02*
X3140000D01*
Y4049990D01*
X3120006D01*
X3140000D01*
Y4020000D01*
X3080019D02*
X3060026D01*
X3070023D01*
Y4079981D01*
X3080019Y4069984D01*
X2925000Y3724981D02*
Y3665000D01*
X2895010D01*
X2885013Y3674997D01*
Y3714984D01*
X2895010Y3724981D01*
X2925000D01*
X2865019Y3665000D02*
X2845026D01*
X2855023D01*
Y3724981D01*
X2865019Y3714984D01*
X3080013Y3474984D02*
X3090010Y3484981D01*
X3110003D01*
X3120000Y3474984D01*
Y3434997D01*
X3110003Y3425000D01*
X3090010D01*
X3080013Y3434997D01*
X3060019Y3474984D02*
X3050023Y3484981D01*
X3030029D01*
X3020032Y3474984D01*
Y3464987D01*
X3030029Y3454990D01*
X3020032Y3444994D01*
Y3434997D01*
X3030029Y3425000D01*
X3050023D01*
X3060019Y3434997D01*
Y3444994D01*
X3050023Y3454990D01*
X3060019Y3464987D01*
Y3474984D01*
X3050023Y3454990D02*
X3030029D01*
X4095013Y2945299D02*
X4105010Y2955296D01*
X4125003D01*
X4135000Y2945299D01*
Y2905312D01*
X4125003Y2895315D01*
X4105010D01*
X4095013Y2905312D01*
X4075020Y2955296D02*
X4035032D01*
Y2945299D01*
X4075020Y2905312D01*
Y2895315D01*
X3117513Y3362153D02*
X3127510Y3372150D01*
X3147503D01*
X3157500Y3362153D01*
Y3322166D01*
X3147503Y3312169D01*
X3127510D01*
X3117513Y3322166D01*
X3057532Y3372150D02*
X3097519D01*
Y3342160D01*
X3077526Y3352157D01*
X3067529D01*
X3057532Y3342160D01*
Y3322166D01*
X3067529Y3312169D01*
X3087522D01*
X3097519Y3322166D01*
X3265013Y3824984D02*
X3275010Y3834981D01*
X3295003D01*
X3305000Y3824984D01*
Y3784997D01*
X3295003Y3775000D01*
X3275010D01*
X3265013Y3784997D01*
X3215029Y3775000D02*
Y3834981D01*
X3245019Y3804990D01*
X3205032D01*
X3250013Y3044984D02*
X3260010Y3054981D01*
X3280003D01*
X3290000Y3044984D01*
Y3004997D01*
X3280003Y2995000D01*
X3260010D01*
X3250013Y3004997D01*
X3190032Y2995000D02*
X3230019D01*
X3190032Y3034987D01*
Y3044984D01*
X3200029Y3054981D01*
X3220023D01*
X3230019Y3044984D01*
X3886013Y3546984D02*
X3896010Y3556981D01*
X3916003D01*
X3926000Y3546984D01*
Y3506997D01*
X3916003Y3497000D01*
X3896010D01*
X3886013Y3506997D01*
X3866019Y3497000D02*
X3846026D01*
X3856023D01*
Y3556981D01*
X3866019Y3546984D01*
D39*
X2973760Y3755000D02*
D03*
%TF.MD5,dbdfd3eb9aa90254ecc573b3af248145*%
M02*
