%TF.GenerationSoftware,Altium Limited,Altium Designer,18.1.9 (240)*%
G04 Layer_Color=255*
%FSLAX26Y26*%
%MOIN*%
%TF.FileFunction,Pads,Top*%
%TF.Part,Single*%
G01*
G75*
%TA.AperFunction,SMDPad,CuDef*%
%ADD10R,0.037402X0.053150*%
%ADD11R,0.068898X0.023622*%
%ADD12R,0.080709X0.031496*%
%ADD13R,0.051181X0.082677*%
%ADD14R,0.035433X0.055118*%
%ADD15R,0.053150X0.037402*%
%TA.AperFunction,ConnectorPad*%
%ADD16R,0.037402X0.053150*%
%TA.AperFunction,ComponentPad*%
%ADD18C,0.060000*%
%ADD19R,0.040000X0.040000*%
%ADD20C,0.040000*%
%ADD21C,0.072835*%
%ADD22R,0.059055X0.059055*%
%ADD23C,0.059055*%
%ADD24C,0.058976*%
D10*
X3651496Y2660000D02*
D03*
X3588504D02*
D03*
X3849488Y3490000D02*
D03*
X3910512D02*
D03*
X3849488Y3390000D02*
D03*
X3910512D02*
D03*
X3849488Y3190000D02*
D03*
X3910512D02*
D03*
X3849488Y3290000D02*
D03*
X3910512D02*
D03*
X3870512Y3745000D02*
D03*
X3809488D02*
D03*
D11*
X4485394Y3100000D02*
D03*
Y3150000D02*
D03*
Y3200000D02*
D03*
Y3250000D02*
D03*
X4284606D02*
D03*
Y3200000D02*
D03*
Y3150000D02*
D03*
Y3100000D02*
D03*
D12*
X3407756Y3490000D02*
D03*
Y3390000D02*
D03*
Y3290000D02*
D03*
Y3190000D02*
D03*
X3752244D02*
D03*
Y3290000D02*
D03*
Y3390000D02*
D03*
Y3490000D02*
D03*
D13*
X3520000Y2925551D02*
D03*
X3720000D02*
D03*
Y2744449D02*
D03*
X3520000D02*
D03*
D14*
X2892598Y2925000D02*
D03*
X2967402D02*
D03*
Y2800000D02*
D03*
X2892598D02*
D03*
D15*
X2855000Y3699488D02*
D03*
Y3760512D02*
D03*
X4360000Y3016496D02*
D03*
Y2953504D02*
D03*
X4185000Y3089488D02*
D03*
Y3150512D02*
D03*
X2945000Y3559488D02*
D03*
Y3620512D02*
D03*
X3200000Y3249488D02*
D03*
Y3310512D02*
D03*
X3065000Y3405512D02*
D03*
Y3344488D02*
D03*
X4185000Y2964488D02*
D03*
Y3025512D02*
D03*
D16*
X2744488Y2925000D02*
D03*
X2805512D02*
D03*
Y2800000D02*
D03*
X2744488D02*
D03*
D18*
X4090000Y3149979D02*
D03*
X3469055Y4059055D02*
D03*
Y3940945D02*
D03*
X3350945Y4059055D02*
D03*
Y3940945D02*
D03*
X3785945D02*
D03*
Y4059055D02*
D03*
X3904055Y3940945D02*
D03*
Y4059055D02*
D03*
D19*
X2825000Y3240000D02*
D03*
D20*
X2775000D02*
D03*
X2825000Y3290000D02*
D03*
X2775000D02*
D03*
X2825000Y3340000D02*
D03*
X2775000D02*
D03*
X2825000Y3390000D02*
D03*
X2775000D02*
D03*
X2825000Y3440000D02*
D03*
X2775000D02*
D03*
D21*
X4528504Y3730000D02*
D03*
X4272598D02*
D03*
Y2615000D02*
D03*
X4528504D02*
D03*
D22*
X3585000Y3745000D02*
D03*
D23*
X3685000D02*
D03*
D24*
X3077047Y2473583D02*
D03*
X3332953D02*
D03*
X3077047Y2296417D02*
D03*
X3332953D02*
D03*
X3742953D02*
D03*
X3487047D02*
D03*
X3742953Y2473583D02*
D03*
X3487047D02*
D03*
%TF.MD5,1494ffe4a247fccea1f138f848322674*%
M02*
