%TF.GenerationSoftware,Altium Limited,Altium Designer,18.1.9 (240)*%
G04 Layer_Color=8421504*
%FSLAX26Y26*%
%MOIN*%
%TF.FileFunction,Paste,Top*%
%TF.Part,Single*%
G01*
G75*
%TA.AperFunction,SMDPad,CuDef*%
%ADD10R,0.037402X0.053150*%
%ADD11R,0.068898X0.023622*%
%ADD12R,0.080709X0.031496*%
%ADD13R,0.051181X0.082677*%
%ADD14R,0.035433X0.055118*%
%ADD15R,0.053150X0.037402*%
%TA.AperFunction,ConnectorPad*%
%ADD16R,0.037402X0.053150*%
D10*
X3651496Y2660000D02*
D03*
X3588504D02*
D03*
X3849488Y3490000D02*
D03*
X3910512D02*
D03*
X3849488Y3390000D02*
D03*
X3910512D02*
D03*
X3849488Y3190000D02*
D03*
X3910512D02*
D03*
X3849488Y3290000D02*
D03*
X3910512D02*
D03*
X3870512Y3745000D02*
D03*
X3809488D02*
D03*
D11*
X4485394Y3100000D02*
D03*
Y3150000D02*
D03*
Y3200000D02*
D03*
Y3250000D02*
D03*
X4284606D02*
D03*
Y3200000D02*
D03*
Y3150000D02*
D03*
Y3100000D02*
D03*
D12*
X3407756Y3490000D02*
D03*
Y3390000D02*
D03*
Y3290000D02*
D03*
Y3190000D02*
D03*
X3752244D02*
D03*
Y3290000D02*
D03*
Y3390000D02*
D03*
Y3490000D02*
D03*
D13*
X3520000Y2925551D02*
D03*
X3720000D02*
D03*
Y2744449D02*
D03*
X3520000D02*
D03*
D14*
X2892598Y2925000D02*
D03*
X2967402D02*
D03*
Y2800000D02*
D03*
X2892598D02*
D03*
D15*
X2855000Y3699488D02*
D03*
Y3760512D02*
D03*
X4360000Y3016496D02*
D03*
Y2953504D02*
D03*
X4185000Y3089488D02*
D03*
Y3150512D02*
D03*
X2945000Y3559488D02*
D03*
Y3620512D02*
D03*
X3200000Y3249488D02*
D03*
Y3310512D02*
D03*
X3065000Y3405512D02*
D03*
Y3344488D02*
D03*
X4185000Y2964488D02*
D03*
Y3025512D02*
D03*
D16*
X2744488Y2925000D02*
D03*
X2805512D02*
D03*
Y2800000D02*
D03*
X2744488D02*
D03*
%TF.MD5,4b2aa9fb6c98ddf2773f36ea79aede43*%
M02*
