%TF.GenerationSoftware,Altium Limited,Altium Designer,18.1.9 (240)*%
G04 Layer_Color=2752767*
%FSLAX26Y26*%
%MOIN*%
%TF.FileFunction,Drawing*%
%TF.Part,Single*%
G01*
G75*
%TA.AperFunction,NonConductor*%
%ADD61C,0.005000*%
%ADD79C,0.006667*%
D61*
X4070000Y3129979D02*
Y3169979D01*
X4110000D01*
Y3129979D01*
X4070000D01*
X4528504Y3710000D02*
X4508504Y3750000D01*
X4548504D01*
X4528504Y3710000D01*
X4272598D02*
X4252598Y3750000D01*
X4292598D01*
X4272598Y3710000D01*
X4621024Y3595039D02*
X4631024Y3605039D01*
X4641024D01*
X4631024Y3615039D01*
X4641024Y3625039D01*
X4631024D01*
X4621024Y3635039D01*
X4611024Y3625039D01*
X4601024D01*
X4611024Y3615039D01*
X4601024Y3605039D01*
X4611024D01*
X4621024Y3595039D01*
X3565000Y3725000D02*
X3575000Y3745000D01*
X3565000Y3765000D01*
X3585000Y3755000D01*
X3605000Y3765000D01*
X3595000Y3745000D01*
X3605000Y3725000D01*
X3585000Y3735000D01*
X3565000Y3725000D01*
X3665000D02*
X3675000Y3745000D01*
X3665000Y3765000D01*
X3685000Y3755000D01*
X3705000Y3765000D01*
X3695000Y3745000D01*
X3705000Y3725000D01*
X3685000Y3735000D01*
X3665000Y3725000D01*
X3067047Y2463583D02*
Y2453583D01*
X3087047D01*
Y2463583D01*
X3097047D01*
Y2483583D01*
X3087047D01*
Y2493583D01*
X3067047D01*
Y2483583D01*
X3057047D01*
Y2463583D01*
X3067047D01*
X3322953D02*
Y2453583D01*
X3342953D01*
Y2463583D01*
X3352953D01*
Y2483583D01*
X3342953D01*
Y2493583D01*
X3322953D01*
Y2483583D01*
X3312953D01*
Y2463583D01*
X3322953D01*
X3067047Y2286417D02*
Y2276417D01*
X3087047D01*
Y2286417D01*
X3097047D01*
Y2306417D01*
X3087047D01*
Y2316417D01*
X3067047D01*
Y2306417D01*
X3057047D01*
Y2286417D01*
X3067047D01*
X3322953D02*
Y2276417D01*
X3342953D01*
Y2286417D01*
X3352953D01*
Y2306417D01*
X3342953D01*
Y2316417D01*
X3322953D01*
Y2306417D01*
X3312953D01*
Y2286417D01*
X3322953D01*
X3449055Y4039055D02*
Y4079055D01*
X3489055D01*
Y4039055D01*
X3449055D01*
Y3920945D02*
Y3960945D01*
X3489055D01*
Y3920945D01*
X3449055D01*
X3330945Y4039055D02*
Y4079055D01*
X3370945D01*
Y4039055D01*
X3330945D01*
Y3920945D02*
Y3960945D01*
X3370945D01*
Y3920945D01*
X3330945D01*
X3567165Y4076063D02*
X3577165D01*
X3587165Y4086063D01*
X3597165Y4076063D01*
X3607165D01*
Y4086063D01*
X3597165Y4096063D01*
X3607165Y4106063D01*
Y4116063D01*
X3597165D01*
X3587165Y4106063D01*
X3577165Y4116063D01*
X3567165D01*
Y4106063D01*
X3577165Y4096063D01*
X3567165Y4086063D01*
Y4076063D01*
X3212835D02*
X3222835D01*
X3232835Y4086063D01*
X3242835Y4076063D01*
X3252835D01*
Y4086063D01*
X3242835Y4096063D01*
X3252835Y4106063D01*
Y4116063D01*
X3242835D01*
X3232835Y4106063D01*
X3222835Y4116063D01*
X3212835D01*
Y4106063D01*
X3222835Y4096063D01*
X3212835Y4086063D01*
Y4076063D01*
X3647835D02*
X3657835D01*
X3667835Y4086063D01*
X3677835Y4076063D01*
X3687835D01*
Y4086063D01*
X3677835Y4096063D01*
X3687835Y4106063D01*
Y4116063D01*
X3677835D01*
X3667835Y4106063D01*
X3657835Y4116063D01*
X3647835D01*
Y4106063D01*
X3657835Y4096063D01*
X3647835Y4086063D01*
Y4076063D01*
X4002165D02*
X4012165D01*
X4022165Y4086063D01*
X4032165Y4076063D01*
X4042165D01*
Y4086063D01*
X4032165Y4096063D01*
X4042165Y4106063D01*
Y4116063D01*
X4032165D01*
X4022165Y4106063D01*
X4012165Y4116063D01*
X4002165D01*
Y4106063D01*
X4012165Y4096063D01*
X4002165Y4086063D01*
Y4076063D01*
X3765945Y3920945D02*
Y3960945D01*
X3805945D01*
Y3920945D01*
X3765945D01*
Y4039055D02*
Y4079055D01*
X3805945D01*
Y4039055D01*
X3765945D01*
X3884055Y3920945D02*
Y3960945D01*
X3924055D01*
Y3920945D01*
X3884055D01*
Y4039055D02*
Y4079055D01*
X3924055D01*
Y4039055D01*
X3884055D01*
X3732953Y2286417D02*
Y2276417D01*
X3752953D01*
Y2286417D01*
X3762953D01*
Y2306417D01*
X3752953D01*
Y2316417D01*
X3732953D01*
Y2306417D01*
X3722953D01*
Y2286417D01*
X3732953D01*
X3477047D02*
Y2276417D01*
X3497047D01*
Y2286417D01*
X3507047D01*
Y2306417D01*
X3497047D01*
Y2316417D01*
X3477047D01*
Y2306417D01*
X3467047D01*
Y2286417D01*
X3477047D01*
X3732953Y2463583D02*
Y2453583D01*
X3752953D01*
Y2463583D01*
X3762953D01*
Y2483583D01*
X3752953D01*
Y2493583D01*
X3732953D01*
Y2483583D01*
X3722953D01*
Y2463583D01*
X3732953D01*
X3477047D02*
Y2453583D01*
X3497047D01*
Y2463583D01*
X3507047D01*
Y2483583D01*
X3497047D01*
Y2493583D01*
X3477047D01*
Y2483583D01*
X3467047D01*
Y2463583D01*
X3477047D01*
X4621024Y2480039D02*
X4631024Y2490039D01*
X4641024D01*
X4631024Y2500039D01*
X4641024Y2510039D01*
X4631024D01*
X4621024Y2520039D01*
X4611024Y2510039D01*
X4601024D01*
X4611024Y2500039D01*
X4601024Y2490039D01*
X4611024D01*
X4621024Y2480039D01*
X4272598Y2595000D02*
X4252598Y2635000D01*
X4292598D01*
X4272598Y2595000D01*
X4528504D02*
X4508504Y2635000D01*
X4548504D01*
X4528504Y2595000D01*
X2805000Y4020000D02*
X2825000Y4040000D01*
X2845000Y4020000D01*
X2825000Y4000000D01*
X2805000Y4020000D01*
X4510000Y2320000D02*
X4530000Y2340000D01*
X4550000Y2320000D01*
X4530000Y2300000D01*
X4510000Y2320000D01*
Y4020000D02*
X4530000Y4040000D01*
X4550000Y4020000D01*
X4530000Y4000000D01*
X4510000Y4020000D01*
X2805000Y2320000D02*
X2825000Y2340000D01*
X2845000Y2320000D01*
X2825000Y2300000D01*
X2805000Y2320000D01*
D79*
X2845000Y3240000D02*
G03*
X2845000Y3240000I-20000J0D01*
G01*
X2795000D02*
G03*
X2795000Y3240000I-20000J0D01*
G01*
X2845000Y3290000D02*
G03*
X2845000Y3290000I-20000J0D01*
G01*
X2795000D02*
G03*
X2795000Y3290000I-20000J0D01*
G01*
X2845000Y3340000D02*
G03*
X2845000Y3340000I-20000J0D01*
G01*
X2795000D02*
G03*
X2795000Y3340000I-20000J0D01*
G01*
X2845000Y3390000D02*
G03*
X2845000Y3390000I-20000J0D01*
G01*
X2795000D02*
G03*
X2795000Y3390000I-20000J0D01*
G01*
X2845000Y3440000D02*
G03*
X2845000Y3440000I-20000J0D01*
G01*
X2795000D02*
G03*
X2795000Y3440000I-20000J0D01*
G01*
X3260000Y3177057D02*
G03*
X3260000Y3177057I-20000J0D01*
G01*
X3733303Y2655900D02*
G03*
X3733303Y2655900I-20000J0D01*
G01*
X3535000Y3642974D02*
G03*
X3535000Y3642974I-20000J0D01*
G01*
X4053318Y2825000D02*
G03*
X4053318Y2825000I-20000J0D01*
G01*
X3349366Y3440000D02*
G03*
X3349366Y3440000I-20000J0D01*
G01*
X3380000Y3130000D02*
G03*
X3380000Y3130000I-20000J0D01*
G01*
X3155000Y3196000D02*
G03*
X3155000Y3196000I-20000J0D01*
G01*
X3910000Y3601373D02*
G03*
X3910000Y3601373I-20000J0D01*
G01*
X3059370Y3200000D02*
G03*
X3059370Y3200000I-20000J0D01*
G01*
X2957614Y3312169D02*
G03*
X2957614Y3312169I-20000J0D01*
G01*
X4305000Y3330000D02*
G03*
X4305000Y3330000I-20000J0D01*
G01*
X4015000Y2630000D02*
G03*
X4015000Y2630000I-20000J0D01*
G01*
X3615000Y2585536D02*
G03*
X3615000Y2585536I-20000J0D01*
G01*
X3532362Y2585000D02*
G03*
X3532362Y2585000I-20000J0D01*
G01*
X3995000Y2749088D02*
G03*
X3995000Y2749088I-20000J0D01*
G01*
X3705000Y2585000D02*
G03*
X3705000Y2585000I-20000J0D01*
G01*
X4305000Y3020000D02*
G03*
X4305000Y3020000I-20000J0D01*
G01*
X4170000Y3325000D02*
G03*
X4170000Y3325000I-20000J0D01*
G01*
X3382953Y3555000D02*
G03*
X3382953Y3555000I-20000J0D01*
G01*
X3990000Y3120000D02*
G03*
X3990000Y3120000I-20000J0D01*
G01*
X4290000Y2925000D02*
G03*
X4290000Y2925000I-20000J0D01*
G01*
X3985000Y3045000D02*
G03*
X3985000Y3045000I-20000J0D01*
G01*
X3410000Y3690000D02*
G03*
X3410000Y3690000I-20000J0D01*
G01*
X3095000Y2820000D02*
G03*
X3095000Y2820000I-20000J0D01*
G01*
X3056338Y2890000D02*
G03*
X3056338Y2890000I-20000J0D01*
G01*
X3465000Y3631575D02*
G03*
X3465000Y3631575I-20000J0D01*
G01*
X3037831Y3620512D02*
G03*
X3037831Y3620512I-20000J0D01*
G01*
X3305000Y3235000D02*
G03*
X3305000Y3235000I-20000J0D01*
G01*
X3320000Y3350000D02*
G03*
X3320000Y3350000I-20000J0D01*
G01*
X3818117Y3665000D02*
G03*
X3818117Y3665000I-20000J0D01*
G01*
%TF.MD5,d003067b6656b1e632e2ffc47dafb34a*%
M02*
