%TF.GenerationSoftware,Altium Limited,Altium Designer,18.1.9 (240)*%
G04 Layer_Physical_Order=2*
G04 Layer_Color=16711680*
%FSLAX26Y26*%
%MOIN*%
%TF.FileFunction,Copper,L2,Bot,Signal*%
%TF.Part,Single*%
G01*
G75*
%TA.AperFunction,SMDPad,CuDef*%
%ADD10R,0.037402X0.053150*%
%ADD15R,0.053150X0.037402*%
%TA.AperFunction,Conductor*%
%ADD17C,0.010000*%
%TA.AperFunction,ComponentPad*%
%ADD18C,0.060000*%
%ADD19R,0.040000X0.040000*%
%ADD20C,0.040000*%
%ADD21C,0.072835*%
%ADD22R,0.059055X0.059055*%
%ADD23C,0.059055*%
%ADD24C,0.058976*%
%TA.AperFunction,ViaPad*%
%ADD25C,0.050000*%
%ADD26C,0.240000*%
%TA.AperFunction,SMDPad,CuDef*%
%ADD27R,0.023622X0.059055*%
%ADD28R,0.049213X0.023622*%
%ADD29R,0.023620X0.047240*%
%ADD30R,0.023000X0.047240*%
%ADD31R,0.037402X0.035433*%
%ADD32R,0.039370X0.070866*%
%ADD33R,0.058071X0.011811*%
%ADD34R,0.011811X0.058071*%
G36*
X4421118Y4083474D02*
X4416299Y4074756D01*
X4410883Y4061681D01*
X4406966Y4048082D01*
X4404595Y4034130D01*
X4403801Y4020000D01*
X4404595Y4005870D01*
X4406966Y3991918D01*
X4410883Y3978319D01*
X4416299Y3965244D01*
X4423145Y3952858D01*
X4431334Y3941316D01*
X4440764Y3930764D01*
X4451316Y3921334D01*
X4462858Y3913145D01*
X4475244Y3906299D01*
X4488319Y3900883D01*
X4501918Y3896966D01*
X4515870Y3894595D01*
X4530000Y3893802D01*
X4544130Y3894595D01*
X4558082Y3896966D01*
X4571681Y3900883D01*
X4584756Y3906299D01*
X4597142Y3913145D01*
X4608684Y3921334D01*
X4619236Y3930764D01*
X4624000Y3936095D01*
X4630000Y3933805D01*
Y3648824D01*
X4624000Y3644512D01*
X4621024Y3644805D01*
X4615217Y3644233D01*
X4609633Y3642539D01*
X4604487Y3639788D01*
X4599976Y3636087D01*
X4596275Y3631576D01*
X4593524Y3626430D01*
X4591830Y3620846D01*
X4591258Y3615039D01*
X4591830Y3609233D01*
X4593524Y3603649D01*
X4596275Y3598503D01*
X4599976Y3593992D01*
X4604487Y3590291D01*
X4609633Y3587540D01*
X4615217Y3585846D01*
X4621024Y3585274D01*
X4624000Y3585567D01*
X4630000Y3581255D01*
Y2533824D01*
X4624000Y2529512D01*
X4621024Y2529805D01*
X4615217Y2529233D01*
X4609633Y2527539D01*
X4604487Y2524788D01*
X4599976Y2521087D01*
X4596275Y2516576D01*
X4593524Y2511430D01*
X4591830Y2505846D01*
X4591258Y2500039D01*
X4591830Y2494233D01*
X4593524Y2488649D01*
X4596275Y2483503D01*
X4599976Y2478992D01*
X4604487Y2475291D01*
X4609633Y2472540D01*
X4615217Y2470846D01*
X4621024Y2470274D01*
X4624000Y2470567D01*
X4630000Y2466255D01*
Y2406195D01*
X4624000Y2403905D01*
X4619236Y2409236D01*
X4608684Y2418666D01*
X4597142Y2426855D01*
X4584756Y2433701D01*
X4571681Y2439117D01*
X4558082Y2443034D01*
X4544130Y2445405D01*
X4530000Y2446198D01*
X4515870Y2445405D01*
X4501918Y2443034D01*
X4488319Y2439117D01*
X4475244Y2433701D01*
X4462858Y2426855D01*
X4451316Y2418666D01*
X4440764Y2409236D01*
X4431334Y2398684D01*
X4423145Y2387142D01*
X4416299Y2374756D01*
X4410883Y2361681D01*
X4406966Y2348082D01*
X4404595Y2334130D01*
X4403801Y2320000D01*
X4404595Y2305870D01*
X4406966Y2291918D01*
X4410883Y2278319D01*
X4416299Y2265244D01*
X4423145Y2252858D01*
X4431334Y2241316D01*
X4436085Y2236000D01*
X4433400Y2230000D01*
X2921600D01*
X2918915Y2236000D01*
X2923666Y2241316D01*
X2931855Y2252858D01*
X2938701Y2265244D01*
X2944117Y2278319D01*
X2948034Y2291918D01*
X2950405Y2305870D01*
X2951198Y2320000D01*
X2950405Y2334130D01*
X2948034Y2348082D01*
X2944117Y2361681D01*
X2938701Y2374756D01*
X2931855Y2387142D01*
X2923666Y2398684D01*
X2914236Y2409236D01*
X2903684Y2418666D01*
X2892142Y2426855D01*
X2879756Y2433701D01*
X2866681Y2439117D01*
X2853082Y2443034D01*
X2839130Y2445405D01*
X2825000Y2446198D01*
X2810870Y2445405D01*
X2796918Y2443034D01*
X2783319Y2439117D01*
X2770244Y2433701D01*
X2757858Y2426855D01*
X2746316Y2418666D01*
X2736000Y2409447D01*
X2734092Y2409636D01*
X2730000Y2411198D01*
Y2601320D01*
X2736000Y2603356D01*
X2736155Y2603155D01*
X3025464Y2313845D01*
Y2279647D01*
X3025842Y2276775D01*
X3026950Y2274099D01*
X3028714Y2271801D01*
X3053360Y2247155D01*
X3053360Y2247155D01*
X3055658Y2245391D01*
X3058334Y2244283D01*
X3061206Y2243905D01*
X3061206Y2243905D01*
X3701535D01*
X3704407Y2244283D01*
X3707083Y2245392D01*
X3709381Y2247155D01*
X3726955Y2264729D01*
X3729306Y2263472D01*
X3735996Y2261443D01*
X3742953Y2260757D01*
X3749910Y2261443D01*
X3756599Y2263472D01*
X3762764Y2266767D01*
X3768168Y2271202D01*
X3772603Y2276606D01*
X3775898Y2282771D01*
X3777927Y2289460D01*
X3778613Y2296417D01*
X3777927Y2303374D01*
X3775898Y2310064D01*
X3774641Y2312415D01*
X4102845Y2640619D01*
X4104609Y2642917D01*
X4105717Y2645593D01*
X4106095Y2648465D01*
Y2935000D01*
X4105717Y2937872D01*
X4104609Y2940548D01*
X4102845Y2942845D01*
X4033318Y3012373D01*
X4031020Y3014136D01*
X4028344Y3015244D01*
X4025472Y3015622D01*
X3987527D01*
X3985380Y3021622D01*
X3987026Y3022974D01*
X3990900Y3027694D01*
X3993779Y3033079D01*
X3995552Y3038923D01*
X3996150Y3045000D01*
X3995552Y3051077D01*
X3993779Y3056921D01*
X3990900Y3062306D01*
X3987026Y3067026D01*
X3982306Y3070900D01*
X3976921Y3073779D01*
X3971077Y3075552D01*
X3965000Y3076150D01*
X3958923Y3075552D01*
X3953079Y3073779D01*
X3947694Y3070900D01*
X3942974Y3067026D01*
X3939100Y3062306D01*
X3936221Y3056921D01*
X3935971Y3056095D01*
X3920941D01*
Y3111543D01*
X3940171D01*
X3941221Y3108079D01*
X3944100Y3102694D01*
X3947974Y3097974D01*
X3952694Y3094100D01*
X3958079Y3091221D01*
X3963923Y3089448D01*
X3970000Y3088850D01*
X3976077Y3089448D01*
X3981921Y3091221D01*
X3987306Y3094100D01*
X3992026Y3097974D01*
X3995900Y3102694D01*
X3998779Y3108079D01*
X4000552Y3113923D01*
X4001150Y3120000D01*
X4000552Y3126077D01*
X3998779Y3131921D01*
X3995900Y3137306D01*
X3992026Y3142026D01*
X3987306Y3145900D01*
X3981921Y3148779D01*
X3976077Y3150552D01*
X3970000Y3151150D01*
X3963923Y3150552D01*
X3958079Y3148779D01*
X3952694Y3145900D01*
X3947974Y3142026D01*
X3944100Y3137306D01*
X3942190Y3133733D01*
X3920941D01*
Y3134543D01*
X3850870D01*
Y3091047D01*
Y3051677D01*
Y3012307D01*
Y2972937D01*
Y2922008D01*
X3846870D01*
Y2911102D01*
X3885906D01*
Y2901102D01*
X3846870D01*
Y2890197D01*
X3850870D01*
Y2854827D01*
Y2815457D01*
X3920941D01*
Y2816267D01*
X3933042D01*
X3963905Y2785404D01*
Y2778118D01*
X3963079Y2777867D01*
X3957694Y2774989D01*
X3952974Y2771115D01*
X3949100Y2766394D01*
X3946221Y2761009D01*
X3944448Y2755166D01*
X3943850Y2749088D01*
X3944448Y2743011D01*
X3946221Y2737168D01*
X3949100Y2731782D01*
X3952974Y2727062D01*
X3957694Y2723188D01*
X3963079Y2720310D01*
X3968923Y2718537D01*
X3975000Y2717938D01*
X3981077Y2718537D01*
X3986921Y2720310D01*
X3987189Y2720453D01*
X3990802Y2715581D01*
X3835316Y2560095D01*
X3717600D01*
X3715304Y2563765D01*
X3714581Y2566095D01*
X3717492Y2571541D01*
X3719494Y2578139D01*
X3719677Y2580000D01*
X3650323D01*
X3650506Y2578139D01*
X3652508Y2571541D01*
X3655419Y2566095D01*
X3654696Y2563765D01*
X3652400Y2560095D01*
X3621986D01*
X3619148Y2566095D01*
X3620900Y2568230D01*
X3623779Y2573615D01*
X3625552Y2579459D01*
X3626150Y2585536D01*
X3625552Y2591613D01*
X3623779Y2597456D01*
X3623372Y2598217D01*
X3638317Y2613162D01*
X3638318Y2613163D01*
X3640081Y2615461D01*
X3641189Y2618136D01*
X3641567Y2621008D01*
Y2714059D01*
X3757173D01*
Y2666995D01*
X3742332D01*
X3742081Y2667821D01*
X3739203Y2673206D01*
X3735329Y2677927D01*
X3730609Y2681801D01*
X3725223Y2684679D01*
X3719380Y2686452D01*
X3713303Y2687050D01*
X3707226Y2686452D01*
X3701382Y2684679D01*
X3695997Y2681801D01*
X3691276Y2677927D01*
X3687402Y2673206D01*
X3684524Y2667821D01*
X3682751Y2661977D01*
X3682153Y2655900D01*
X3682751Y2649823D01*
X3684524Y2643980D01*
X3687402Y2638594D01*
X3691276Y2633874D01*
X3695997Y2630000D01*
X3701382Y2627122D01*
X3707226Y2625349D01*
X3713303Y2624750D01*
X3719380Y2625349D01*
X3725223Y2627122D01*
X3730609Y2630000D01*
X3735329Y2633874D01*
X3739203Y2638594D01*
X3742081Y2643980D01*
X3742332Y2644805D01*
X3758803D01*
Y2612512D01*
X3808205D01*
Y2677661D01*
X3779363D01*
Y2694527D01*
X3779493Y2694738D01*
X3785020Y2698303D01*
X3785363Y2698305D01*
X3787953Y2697964D01*
X3816345D01*
X3826648Y2687661D01*
X3824682Y2681661D01*
X3817795D01*
Y2650086D01*
X3846496D01*
X3875197D01*
Y2681661D01*
X3850229D01*
Y2690866D01*
X3849851Y2693738D01*
X3848742Y2696414D01*
X3846979Y2698711D01*
X3846979Y2698712D01*
X3828786Y2716904D01*
X3826488Y2718668D01*
X3823813Y2719776D01*
X3820941Y2720154D01*
X3819543D01*
Y2784130D01*
X3803858D01*
Y2788130D01*
X3792953D01*
Y2749094D01*
X3782953D01*
Y2788130D01*
X3772047D01*
Y2784130D01*
X3500457D01*
Y2714059D01*
X3501267D01*
Y2614029D01*
X3500442Y2613779D01*
X3495056Y2610900D01*
X3490336Y2607026D01*
X3486462Y2602306D01*
X3483583Y2596921D01*
X3481811Y2591077D01*
X3481608Y2589019D01*
X3475359Y2586782D01*
X3357105Y2705036D01*
Y2811362D01*
X3361774Y2816085D01*
X3362271Y2816267D01*
X3399059D01*
Y2815457D01*
X3469130D01*
Y2854827D01*
Y2894197D01*
Y2933567D01*
Y2972937D01*
Y3012307D01*
Y3051677D01*
Y3087047D01*
X3473130D01*
Y3097953D01*
X3434094D01*
Y3107953D01*
X3473130D01*
Y3118858D01*
X3469130D01*
Y3134543D01*
X3399059D01*
Y3133733D01*
X3390782D01*
X3390552Y3136077D01*
X3388779Y3141921D01*
X3385900Y3147306D01*
X3382026Y3152026D01*
X3377306Y3155900D01*
X3371921Y3158779D01*
X3366077Y3160552D01*
X3360000Y3161150D01*
X3353923Y3160552D01*
X3348079Y3158779D01*
X3342694Y3155900D01*
X3339260Y3153082D01*
X3334893Y3154454D01*
X3333260Y3155741D01*
Y3194030D01*
X3344845Y3205616D01*
X3346608Y3207914D01*
X3347717Y3210589D01*
X3348095Y3213461D01*
Y3256539D01*
X3347717Y3259411D01*
X3346608Y3262086D01*
X3344845Y3264384D01*
X3327095Y3282135D01*
Y3310493D01*
X3343845Y3327243D01*
X3345608Y3329541D01*
X3346717Y3332217D01*
X3347095Y3335088D01*
Y3364912D01*
X3346717Y3367783D01*
X3345608Y3370459D01*
X3343845Y3372757D01*
X3326095Y3390507D01*
Y3405404D01*
X3329560Y3408869D01*
X3335443Y3409448D01*
X3341287Y3411221D01*
X3346672Y3414100D01*
X3351393Y3417974D01*
X3355267Y3422694D01*
X3358145Y3428079D01*
X3359918Y3433923D01*
X3360516Y3440000D01*
X3359918Y3446077D01*
X3358145Y3451921D01*
X3355267Y3457306D01*
X3351393Y3462026D01*
X3346672Y3465900D01*
X3341287Y3468779D01*
X3335443Y3470552D01*
X3329366Y3471150D01*
X3323289Y3470552D01*
X3317446Y3468779D01*
X3312060Y3465900D01*
X3307340Y3462026D01*
X3303466Y3457306D01*
X3300587Y3451921D01*
X3298815Y3446077D01*
X3298216Y3440000D01*
X3298815Y3433923D01*
X3300587Y3428079D01*
X3303466Y3422694D01*
X3307314Y3418005D01*
X3307155Y3417845D01*
X3305392Y3415548D01*
X3304283Y3412872D01*
X3303905Y3410000D01*
Y3386794D01*
X3302937Y3384731D01*
X3302462Y3384152D01*
X3299171Y3381182D01*
X3298740Y3381026D01*
X3293923Y3380552D01*
X3288079Y3378779D01*
X3282694Y3375900D01*
X3281039Y3374542D01*
X3276019Y3377499D01*
X3275705Y3377927D01*
X3275904Y3378926D01*
X3276117Y3380000D01*
Y3483214D01*
Y3666381D01*
X3276104Y3666450D01*
X3276116Y3666521D01*
X3275871Y3667619D01*
X3275652Y3668722D01*
X3275612Y3668781D01*
X3275597Y3668850D01*
X3274950Y3669772D01*
X3274326Y3670706D01*
X3274267Y3670746D01*
X3274226Y3670804D01*
X3270610Y3674258D01*
X3270550Y3674296D01*
X3270508Y3674354D01*
X3269544Y3674936D01*
X3268596Y3675539D01*
X3268526Y3675551D01*
X3268465Y3675588D01*
X3267351Y3675757D01*
X3266245Y3675951D01*
X3266175Y3675935D01*
X3266105Y3675946D01*
X3177674Y3671902D01*
X3175076Y3677789D01*
X3175247Y3677960D01*
X3177010Y3680258D01*
X3178119Y3682933D01*
X3178497Y3685805D01*
Y3695377D01*
X3184900D01*
Y3754617D01*
X3151500D01*
Y3758617D01*
X3135000D01*
Y3724998D01*
X3125000D01*
Y3758617D01*
X3116117D01*
Y3767290D01*
X3118205Y3772425D01*
X3118205Y3772425D01*
X3118205Y3772425D01*
Y3837575D01*
X3104599D01*
Y3853905D01*
X3359498D01*
X3599006Y3614397D01*
X3602189Y3609858D01*
X3602189D01*
X3602189Y3609858D01*
Y3538803D01*
X3609063D01*
X3609283Y3537128D01*
X3610392Y3534452D01*
X3612155Y3532155D01*
X3658905Y3485404D01*
Y3401197D01*
X3652189D01*
Y3330142D01*
X3687811D01*
Y3401197D01*
X3681095D01*
Y3478905D01*
X3900401D01*
Y3467575D01*
X3886795D01*
Y3402425D01*
X3936197D01*
Y3467575D01*
X3922591D01*
Y3478905D01*
X4165404D01*
X4274615Y3369695D01*
X4272917Y3362910D01*
X4271541Y3362492D01*
X4265461Y3359242D01*
X4260132Y3354869D01*
X4255758Y3349539D01*
X4252508Y3343459D01*
X4250506Y3336861D01*
X4250323Y3335000D01*
X4285000D01*
Y3325000D01*
X4250323D01*
X4250506Y3323139D01*
X4252508Y3316541D01*
X4255758Y3310461D01*
X4260132Y3305131D01*
X4265461Y3300758D01*
X4271541Y3297508D01*
X4277451Y3295715D01*
X4278587Y3293557D01*
X4279559Y3289338D01*
X4277155Y3286934D01*
X4275391Y3284636D01*
X4274283Y3281960D01*
X4273905Y3279088D01*
Y3049029D01*
X4273079Y3048779D01*
X4267694Y3045900D01*
X4262974Y3042026D01*
X4259100Y3037306D01*
X4256221Y3031921D01*
X4254449Y3026077D01*
X4253850Y3020000D01*
X4254449Y3013923D01*
X4256221Y3008079D01*
X4259100Y3002694D01*
X4262974Y2997974D01*
X4267694Y2994100D01*
X4273079Y2991221D01*
X4278923Y2989448D01*
X4285000Y2988850D01*
X4291077Y2989448D01*
X4296921Y2991221D01*
X4302306Y2994100D01*
X4307026Y2997974D01*
X4310900Y3002694D01*
X4313779Y3008079D01*
X4315551Y3013923D01*
X4316150Y3020000D01*
X4315551Y3026077D01*
X4313779Y3031921D01*
X4310900Y3037306D01*
X4307026Y3042026D01*
X4302306Y3045900D01*
X4296921Y3048779D01*
X4296095Y3049029D01*
Y3274493D01*
X4328845Y3307243D01*
X4330609Y3309541D01*
X4331717Y3312217D01*
X4332095Y3315088D01*
Y3344912D01*
X4331717Y3347783D01*
X4330609Y3350459D01*
X4328845Y3352757D01*
X4298757Y3382845D01*
X4296459Y3384608D01*
X4293783Y3385717D01*
X4290912Y3386095D01*
X4289596D01*
X4177845Y3497845D01*
X4175547Y3499608D01*
X4172872Y3500717D01*
X4170000Y3501095D01*
X3915001D01*
X3915000Y3501095D01*
X3914999Y3501095D01*
X3674596D01*
X3641251Y3534440D01*
X3637811Y3538803D01*
X3637811D01*
X3637811Y3538803D01*
Y3582344D01*
X3643811Y3584829D01*
X3652189Y3576451D01*
Y3538803D01*
X3687811D01*
Y3609858D01*
X3663702D01*
X3657906Y3610072D01*
X3657528Y3612943D01*
X3656420Y3615619D01*
X3654656Y3617917D01*
X3654656Y3617917D01*
X3596095Y3676478D01*
Y3709472D01*
X3620528D01*
Y3780528D01*
X3549472D01*
Y3709472D01*
X3573905D01*
Y3679365D01*
X3567905Y3676880D01*
X3371939Y3872845D01*
X3369642Y3874608D01*
X3366966Y3875717D01*
X3364094Y3876095D01*
X3116216D01*
X3116117Y3876216D01*
Y3960000D01*
X3115652Y3962341D01*
X3114326Y3964326D01*
X3112341Y3965652D01*
X3110000Y3966117D01*
X3074055D01*
X3070055Y3971210D01*
Y3981433D01*
X3018685D01*
Y3971210D01*
X3014685Y3966117D01*
X3004881D01*
X3004856Y3966113D01*
X3004831Y3966117D01*
X3003690Y3965881D01*
X3002540Y3965652D01*
X3002519Y3965638D01*
X3002494Y3965633D01*
X3001529Y3964977D01*
X3000555Y3964326D01*
X3000541Y3964305D01*
X3000520Y3964291D01*
X2999877Y3963311D01*
X2999229Y3962341D01*
X2999224Y3962316D01*
X2999210Y3962295D01*
X2948158Y3836166D01*
X2948047Y3835586D01*
X2947824Y3835040D01*
X2947826Y3834425D01*
X2947711Y3833821D01*
X2947831Y3833243D01*
X2947834Y3832653D01*
X2948071Y3832086D01*
X2948196Y3831484D01*
X2948528Y3830996D01*
X2948530Y3830991D01*
X2950299Y3825724D01*
X2950299Y3825724D01*
Y3813517D01*
X2949836Y3812646D01*
X2944299Y3808810D01*
X2942561Y3809148D01*
X2941946Y3809146D01*
X2941342Y3809261D01*
X2940764Y3809141D01*
X2940174Y3809139D01*
X2939607Y3808901D01*
X2939005Y3808776D01*
X2938516Y3808444D01*
X2937972Y3808216D01*
X2937539Y3807780D01*
X2937031Y3807434D01*
X2936707Y3806941D01*
X2936291Y3806522D01*
X2936058Y3805953D01*
X2935721Y3805439D01*
X2924329Y3777295D01*
X2924138Y3776289D01*
X2923890Y3775296D01*
X2923916Y3775123D01*
X2923883Y3774950D01*
X2924091Y3773948D01*
X2924241Y3772936D01*
X2924332Y3772785D01*
X2924367Y3772613D01*
X2924943Y3771767D01*
X2925470Y3770889D01*
X2925611Y3770785D01*
X2925709Y3770639D01*
X2926566Y3770077D01*
X2927388Y3769468D01*
X3064264Y3704832D01*
X3064919Y3704669D01*
X3065538Y3704395D01*
X3066067Y3704382D01*
X3066580Y3704254D01*
X3067248Y3704353D01*
X3067924Y3704337D01*
X3068418Y3704527D01*
X3068941Y3704605D01*
X3069100Y3704701D01*
X3071090Y3704194D01*
X3071875Y3703815D01*
X3075100Y3701229D01*
Y3695377D01*
X3081503D01*
Y3681385D01*
X3081881Y3678514D01*
X3082990Y3675838D01*
X3084753Y3673540D01*
X3087051Y3671777D01*
X3089727Y3670669D01*
X3092598Y3670291D01*
X3107672D01*
X3109279Y3667566D01*
X3109929Y3664291D01*
X3109658Y3663885D01*
X3109146Y3663314D01*
X3109001Y3662902D01*
X3108758Y3662538D01*
X3108608Y3661786D01*
X3108354Y3661062D01*
X3104354Y3656197D01*
X3074790D01*
Y3631607D01*
X3046860D01*
X3046610Y3632432D01*
X3043731Y3637818D01*
X3039857Y3642538D01*
X3035137Y3646412D01*
X3029751Y3649291D01*
X3023908Y3651063D01*
X3017831Y3651662D01*
X3011754Y3651063D01*
X3009701Y3650441D01*
X3003701Y3654648D01*
Y3672992D01*
X2980000D01*
Y3650276D01*
X2995775D01*
X2997921Y3644276D01*
X2995805Y3642538D01*
X2991931Y3637818D01*
X2989052Y3632432D01*
X2987279Y3626589D01*
X2986681Y3620512D01*
X2987279Y3614435D01*
X2989052Y3608591D01*
X2991931Y3603206D01*
X2995805Y3598485D01*
X3000525Y3594611D01*
X3005910Y3591733D01*
X3011754Y3589960D01*
X3017831Y3589362D01*
X3023908Y3589960D01*
X3029751Y3591733D01*
X3035137Y3594611D01*
X3039857Y3598485D01*
X3043731Y3603206D01*
X3046610Y3608591D01*
X3046860Y3609417D01*
X3074790D01*
Y3596957D01*
X3108293D01*
Y3596515D01*
X3108758Y3594174D01*
X3110084Y3592190D01*
X3110084Y3592189D01*
X3110633Y3585497D01*
X3102711Y3577575D01*
X3073488D01*
Y3512425D01*
X3082590D01*
X3084124Y3511734D01*
X3084554Y3511437D01*
X3087856Y3507605D01*
X3087994Y3507206D01*
X3088027Y3506786D01*
X3124110Y3378345D01*
X3124277Y3378018D01*
X3124348Y3377659D01*
X3124813Y3376963D01*
X3125192Y3376217D01*
X3125471Y3375979D01*
X3125674Y3375674D01*
X3126370Y3375209D01*
X3127005Y3374666D01*
X3127354Y3374552D01*
X3127659Y3374348D01*
X3128480Y3374185D01*
X3129275Y3373926D01*
X3129640Y3373954D01*
X3130000Y3373882D01*
X3173425D01*
X3177425Y3368790D01*
Y3361795D01*
X3242575D01*
Y3368790D01*
X3246575Y3373882D01*
X3270000D01*
X3272073Y3374295D01*
X3272501Y3373981D01*
X3275458Y3368961D01*
X3274100Y3367306D01*
X3271221Y3361921D01*
X3269448Y3356077D01*
X3268850Y3350000D01*
X3269448Y3343923D01*
X3271221Y3338079D01*
X3274100Y3332694D01*
X3277974Y3327974D01*
X3282694Y3324100D01*
X3288079Y3321221D01*
X3288905Y3320971D01*
Y3271794D01*
X3287937Y3269731D01*
X3287462Y3269152D01*
X3284171Y3266182D01*
X3283740Y3266026D01*
X3278923Y3265552D01*
X3273079Y3263779D01*
X3267694Y3260900D01*
X3262974Y3257026D01*
X3259100Y3252306D01*
X3256221Y3246921D01*
X3254448Y3241077D01*
X3253850Y3235000D01*
X3254448Y3228923D01*
X3256221Y3223079D01*
X3259100Y3217694D01*
X3262974Y3212974D01*
X3267694Y3209100D01*
X3273079Y3206221D01*
X3278923Y3204448D01*
X3279070Y3204434D01*
Y3138849D01*
X3251638Y3111417D01*
X3246095Y3113713D01*
Y3127325D01*
X3247845Y3129075D01*
X3249608Y3131373D01*
X3250717Y3134049D01*
X3251095Y3136921D01*
X3251095Y3136921D01*
Y3148028D01*
X3251921Y3148278D01*
X3257306Y3151157D01*
X3262026Y3155031D01*
X3265900Y3159751D01*
X3268779Y3165137D01*
X3270552Y3170980D01*
X3271150Y3177057D01*
X3270552Y3183134D01*
X3268779Y3188978D01*
X3265900Y3194363D01*
X3262026Y3199084D01*
X3257306Y3202957D01*
X3251921Y3205836D01*
X3246077Y3207609D01*
X3240000Y3208207D01*
X3233923Y3207609D01*
X3228079Y3205836D01*
X3222694Y3202957D01*
X3217974Y3199084D01*
X3214100Y3194363D01*
X3211221Y3188978D01*
X3209448Y3183134D01*
X3208850Y3177057D01*
X3209448Y3170980D01*
X3211221Y3165137D01*
X3214100Y3159751D01*
X3217974Y3155031D01*
X3222694Y3151157D01*
X3228079Y3148278D01*
X3228905Y3148028D01*
Y3141516D01*
X3227155Y3139766D01*
X3225392Y3137468D01*
X3224283Y3134792D01*
X3223905Y3131921D01*
Y2956997D01*
X3218362Y2954701D01*
X3201607Y2971456D01*
Y3077425D01*
X3215213D01*
Y3142575D01*
X3165811D01*
Y3077425D01*
X3179417D01*
Y2966861D01*
X3179795Y2963989D01*
X3180903Y2961313D01*
X3182666Y2959015D01*
X3334916Y2806767D01*
Y2724126D01*
X3329372Y2721830D01*
X3228425Y2822777D01*
Y2872575D01*
X3179024D01*
Y2807425D01*
X3212396D01*
X3318916Y2700906D01*
Y2693813D01*
X3319294Y2690941D01*
X3320402Y2688265D01*
X3322165Y2685968D01*
X3482978Y2525155D01*
X3482978Y2525155D01*
X3485276Y2523392D01*
X3487952Y2522283D01*
X3490823Y2521905D01*
X3847464D01*
X3850336Y2522283D01*
X3853012Y2523392D01*
X3855310Y2525155D01*
X3949060Y2618905D01*
X3965971D01*
X3966221Y2618079D01*
X3969100Y2612694D01*
X3972974Y2607974D01*
X3977694Y2604100D01*
X3983079Y2601221D01*
X3988923Y2599448D01*
X3995000Y2598850D01*
X4001077Y2599448D01*
X4006921Y2601221D01*
X4012306Y2604100D01*
X4017026Y2607974D01*
X4020900Y2612694D01*
X4023779Y2618079D01*
X4025552Y2623923D01*
X4026150Y2630000D01*
X4025552Y2636077D01*
X4023779Y2641921D01*
X4020900Y2647306D01*
X4017026Y2652026D01*
X4012306Y2655900D01*
X4006921Y2658779D01*
X4001077Y2660552D01*
X3995000Y2661150D01*
X3988923Y2660552D01*
X3983079Y2658779D01*
X3977694Y2655900D01*
X3972974Y2652026D01*
X3969100Y2647306D01*
X3966221Y2641921D01*
X3965971Y2641095D01*
X3955537D01*
X3953240Y2646638D01*
X4022845Y2716243D01*
X4024608Y2718541D01*
X4025717Y2721217D01*
X4026095Y2724088D01*
Y2774088D01*
X4025717Y2776960D01*
X4024608Y2779636D01*
X4022845Y2781934D01*
X3951658Y2853121D01*
X3954461Y2858803D01*
X3973905D01*
Y2855000D01*
X3974283Y2852128D01*
X3975392Y2849452D01*
X3977155Y2847155D01*
X4002480Y2821829D01*
X4002766Y2818923D01*
X4004539Y2813079D01*
X4007417Y2807694D01*
X4011291Y2802974D01*
X4016012Y2799100D01*
X4021397Y2796221D01*
X4027241Y2794448D01*
X4033318Y2793850D01*
X4039395Y2794448D01*
X4045238Y2796221D01*
X4050624Y2799100D01*
X4055344Y2802974D01*
X4059218Y2807694D01*
X4062097Y2813079D01*
X4063869Y2818923D01*
X4064468Y2825000D01*
X4063869Y2831077D01*
X4062097Y2836921D01*
X4059218Y2842306D01*
X4055344Y2847026D01*
X4050624Y2850900D01*
X4045238Y2853779D01*
X4039395Y2855552D01*
X4033318Y2856150D01*
X4027241Y2855552D01*
X4021397Y2853779D01*
X4016012Y2850900D01*
X4011291Y2847026D01*
X4008787Y2846903D01*
X4002431Y2853260D01*
X4004727Y2858803D01*
X4017575D01*
Y2908205D01*
X3970239D01*
X3967943Y2913748D01*
X3971990Y2917795D01*
X3980000D01*
Y2941496D01*
X3948425D01*
Y2925612D01*
X3940011Y2917197D01*
X3924941D01*
Y2922008D01*
X3920941D01*
Y2953252D01*
Y2993433D01*
X4020877D01*
X4083905Y2930404D01*
Y2653060D01*
X3758951Y2328106D01*
X3756599Y2329363D01*
X3749910Y2331392D01*
X3742953Y2332077D01*
X3735996Y2331392D01*
X3729306Y2329363D01*
X3723141Y2326067D01*
X3717737Y2321633D01*
X3713303Y2316229D01*
X3710007Y2310064D01*
X3707978Y2303374D01*
X3707293Y2296417D01*
X3707978Y2289460D01*
X3710007Y2282771D01*
X3711264Y2280419D01*
X3696940Y2266095D01*
X3515498D01*
X3513816Y2268749D01*
X3512995Y2272095D01*
X3516697Y2276606D01*
X3519993Y2282771D01*
X3522022Y2289460D01*
X3522707Y2296417D01*
X3522022Y2303374D01*
X3519993Y2310064D01*
X3516697Y2316229D01*
X3512263Y2321633D01*
X3506859Y2326067D01*
X3500694Y2329363D01*
X3494004Y2331392D01*
X3487047Y2332077D01*
X3480090Y2331392D01*
X3473401Y2329363D01*
X3467236Y2326067D01*
X3461832Y2321633D01*
X3457397Y2316229D01*
X3454102Y2310064D01*
X3452073Y2303374D01*
X3451387Y2296417D01*
X3452073Y2289460D01*
X3454102Y2282771D01*
X3457397Y2276606D01*
X3461099Y2272095D01*
X3460278Y2268749D01*
X3458597Y2266095D01*
X3361403D01*
X3359722Y2268749D01*
X3358901Y2272095D01*
X3362603Y2276606D01*
X3365898Y2282771D01*
X3367927Y2289460D01*
X3368613Y2296417D01*
X3367927Y2303374D01*
X3365898Y2310064D01*
X3362603Y2316229D01*
X3358168Y2321633D01*
X3352764Y2326067D01*
X3346599Y2329363D01*
X3339910Y2331392D01*
X3332953Y2332077D01*
X3325996Y2331392D01*
X3319306Y2329363D01*
X3313141Y2326067D01*
X3307737Y2321633D01*
X3303303Y2316229D01*
X3300007Y2310064D01*
X3297978Y2303374D01*
X3297293Y2296417D01*
X3297978Y2289460D01*
X3300007Y2282771D01*
X3303303Y2276606D01*
X3307005Y2272095D01*
X3306184Y2268749D01*
X3304502Y2266095D01*
X3105498D01*
X3103816Y2268749D01*
X3102995Y2272095D01*
X3106697Y2276606D01*
X3109993Y2282771D01*
X3112022Y2289460D01*
X3112707Y2296417D01*
X3112022Y2303374D01*
X3109993Y2310064D01*
X3106697Y2316229D01*
X3102263Y2321633D01*
X3096859Y2326067D01*
X3090694Y2329363D01*
X3088142Y2330137D01*
Y2366180D01*
X3088142Y2366181D01*
X3087764Y2369053D01*
X3086656Y2371729D01*
X3084892Y2374026D01*
X3047654Y2411265D01*
Y2444424D01*
X3053654Y2446872D01*
X3057236Y2443933D01*
X3063401Y2440637D01*
X3070090Y2438608D01*
X3077047Y2437923D01*
X3084004Y2438608D01*
X3090694Y2440637D01*
X3096859Y2443933D01*
X3102263Y2448367D01*
X3106697Y2453771D01*
X3109993Y2459936D01*
X3112022Y2466626D01*
X3112707Y2473583D01*
X3112022Y2480540D01*
X3109993Y2487229D01*
X3106697Y2493394D01*
X3102263Y2498798D01*
X3096859Y2503233D01*
X3090694Y2506528D01*
X3084004Y2508557D01*
X3077047Y2509243D01*
X3070090Y2508557D01*
X3063401Y2506528D01*
X3057236Y2503233D01*
X3053654Y2500294D01*
X3047654Y2502741D01*
Y2580940D01*
X3104585Y2637871D01*
X3131501Y2664787D01*
X3173086D01*
Y2714189D01*
X3107937D01*
Y2693693D01*
X3081945D01*
Y2700409D01*
X3020732D01*
Y2664787D01*
X3081945D01*
Y2671503D01*
X3098997D01*
X3101293Y2665960D01*
X3092144Y2656811D01*
X2944150D01*
Y2702189D01*
X2999267D01*
Y2737811D01*
X2979756D01*
Y2744066D01*
X3040934Y2805243D01*
X3048323Y2804147D01*
X3049100Y2802694D01*
X3052974Y2797974D01*
X3057694Y2794100D01*
X3063079Y2791221D01*
X3068923Y2789448D01*
X3075000Y2788850D01*
X3081077Y2789448D01*
X3086921Y2791221D01*
X3092306Y2794100D01*
X3097026Y2797974D01*
X3100900Y2802694D01*
X3103779Y2808079D01*
X3105552Y2813923D01*
X3106150Y2820000D01*
X3105552Y2826077D01*
X3103779Y2831921D01*
X3100900Y2837306D01*
X3097026Y2842026D01*
X3092306Y2845900D01*
X3086921Y2848779D01*
X3081077Y2850552D01*
X3075000Y2851150D01*
X3072311Y2850885D01*
X3069586Y2856646D01*
X3080184Y2867243D01*
X3081947Y2869541D01*
X3083055Y2872217D01*
X3083433Y2875088D01*
Y2902231D01*
X3120990Y2939787D01*
X3162575D01*
Y2989189D01*
X3097425D01*
Y2968693D01*
X3066945D01*
Y2975409D01*
X3005732D01*
Y2952798D01*
X3000189Y2950502D01*
X2979045Y2971646D01*
X2981341Y2977189D01*
X2984267D01*
Y3012811D01*
X2923055D01*
Y2977189D01*
X2943474D01*
X2944053Y2975791D01*
X2945816Y2973494D01*
X3011144Y2908166D01*
X3010438Y2907306D01*
X3007559Y2901921D01*
X3005787Y2896077D01*
X3005188Y2890000D01*
X3005787Y2883923D01*
X3007559Y2878079D01*
X3010438Y2872694D01*
X3014312Y2867974D01*
X3019032Y2864100D01*
X3024418Y2861221D01*
X3030261Y2859448D01*
X3032320Y2859246D01*
X3034556Y2852997D01*
X2933998Y2752439D01*
X2933951Y2752419D01*
X2931653Y2750656D01*
X2925210Y2744213D01*
X2923446Y2741915D01*
X2922338Y2739239D01*
X2921960Y2736367D01*
Y2647661D01*
X2922338Y2644790D01*
X2923446Y2642114D01*
X2925210Y2639816D01*
X2927155Y2637871D01*
X2929452Y2636108D01*
X2932128Y2634999D01*
X2935000Y2634621D01*
X3062115D01*
X3064411Y2629078D01*
X3028714Y2593381D01*
X3026950Y2591083D01*
X3025842Y2588407D01*
X3025464Y2585536D01*
Y2406669D01*
X3025842Y2403798D01*
X3026950Y2401122D01*
X3028714Y2398824D01*
X3065952Y2361585D01*
Y2330137D01*
X3063401Y2329363D01*
X3057236Y2326067D01*
X3052958Y2322557D01*
X3052584Y2322475D01*
X3048442Y2323043D01*
X3046168Y2323989D01*
X3044404Y2326286D01*
X2755095Y2615596D01*
Y3214939D01*
X2758840Y3217258D01*
X2761095Y3217951D01*
X2765002Y3215863D01*
X2769903Y3214376D01*
X2775000Y3213874D01*
X2780097Y3214376D01*
X2784998Y3215863D01*
X2789515Y3218277D01*
X2793000Y3221137D01*
X2794938Y3220804D01*
X2799000Y3218802D01*
Y3214000D01*
X2851000D01*
Y3266000D01*
X2851000D01*
X2849037Y3272000D01*
X2850065Y3273252D01*
X2852851Y3278464D01*
X2854566Y3284119D01*
X2854653Y3285000D01*
X2825000D01*
Y3295000D01*
X2854653D01*
X2854566Y3295881D01*
X2852851Y3301536D01*
X2850065Y3306748D01*
X2846316Y3311316D01*
X2845482Y3312000D01*
Y3318000D01*
X2846316Y3318684D01*
X2850065Y3323252D01*
X2852851Y3328464D01*
X2854566Y3334119D01*
X2854653Y3335000D01*
X2825000D01*
Y3345000D01*
X2854653D01*
X2854566Y3345881D01*
X2852851Y3351536D01*
X2850065Y3356748D01*
X2846316Y3361316D01*
X2843403Y3363706D01*
X2842623Y3369184D01*
X2843045Y3371175D01*
X2843474Y3371526D01*
X2846723Y3375485D01*
X2849137Y3380002D01*
X2850624Y3384903D01*
X2851126Y3390000D01*
X2850624Y3395097D01*
X2849137Y3399998D01*
X2846723Y3404515D01*
X2843474Y3408474D01*
X2843045Y3408825D01*
X2842623Y3410816D01*
X2843403Y3416294D01*
X2846316Y3418684D01*
X2850065Y3423252D01*
X2852851Y3428464D01*
X2854566Y3434119D01*
X2854653Y3435000D01*
X2825000D01*
Y3440000D01*
X2820000D01*
Y3469653D01*
X2819119Y3469566D01*
X2813464Y3467851D01*
X2808252Y3465065D01*
X2803684Y3461316D01*
X2801294Y3458403D01*
X2795816Y3457623D01*
X2793825Y3458045D01*
X2793474Y3458474D01*
X2789515Y3461723D01*
X2784998Y3464137D01*
X2780097Y3465624D01*
X2775000Y3466126D01*
X2769903Y3465624D01*
X2765002Y3464137D01*
X2760485Y3461723D01*
X2756526Y3458474D01*
X2753277Y3454515D01*
X2750863Y3449998D01*
X2749376Y3445097D01*
X2748874Y3440000D01*
X2749376Y3434903D01*
X2750863Y3430002D01*
X2752468Y3426999D01*
X2736155Y3410686D01*
X2736000Y3410484D01*
X2730000Y3412521D01*
Y3928802D01*
X2734092Y3930364D01*
X2736000Y3930553D01*
X2746316Y3921334D01*
X2757858Y3913145D01*
X2770244Y3906299D01*
X2783319Y3900883D01*
X2796918Y3896966D01*
X2810870Y3894595D01*
X2825000Y3893802D01*
X2839130Y3894595D01*
X2853082Y3896966D01*
X2866681Y3900883D01*
X2879756Y3906299D01*
X2892142Y3913145D01*
X2903684Y3921334D01*
X2914236Y3930764D01*
X2923666Y3941316D01*
X2931855Y3952858D01*
X2938701Y3965244D01*
X2944117Y3978319D01*
X2948034Y3991918D01*
X2950405Y4005870D01*
X2951198Y4020000D01*
X2950405Y4034130D01*
X2948034Y4048082D01*
X2944117Y4061681D01*
X2938701Y4074756D01*
X2935592Y4080380D01*
X2938634Y4085552D01*
X3208637Y4086266D01*
X3208698Y4086065D01*
X3211112Y4081548D01*
X3214361Y4077589D01*
X3218320Y4074340D01*
X3222837Y4071926D01*
X3227738Y4070439D01*
X3232835Y4069937D01*
X3237932Y4070439D01*
X3242832Y4071926D01*
X3247349Y4074340D01*
X3251308Y4077589D01*
X3254557Y4081548D01*
X3256972Y4086065D01*
X3257072Y4086394D01*
X3319184Y4086559D01*
X3322027Y4080566D01*
X3320867Y4079152D01*
X3317524Y4072898D01*
X3315466Y4066112D01*
X3314771Y4059055D01*
X3315466Y4051998D01*
X3317524Y4045212D01*
X3320867Y4038958D01*
X3325366Y4033476D01*
X3328200Y4031150D01*
X3326053Y4025150D01*
X3228661D01*
X3225790Y4024772D01*
X3223114Y4023664D01*
X3220816Y4021900D01*
X3184302Y3985387D01*
X3180291Y3981433D01*
Y3981433D01*
X3180291Y3981433D01*
X3128921D01*
Y3898567D01*
X3180291D01*
Y3949994D01*
X3233257Y4002960D01*
X3369584D01*
X3372456Y4003338D01*
X3375132Y4004447D01*
X3377430Y4006210D01*
X3419180Y4047960D01*
X3434801D01*
X3435635Y4045212D01*
X3438977Y4038958D01*
X3443476Y4033476D01*
X3448958Y4028977D01*
X3455212Y4025635D01*
X3461998Y4023576D01*
X3469055Y4022881D01*
X3476112Y4023576D01*
X3482898Y4025635D01*
X3489152Y4028977D01*
X3494634Y4033476D01*
X3499133Y4038958D01*
X3502476Y4045212D01*
X3503309Y4047960D01*
X3717710D01*
X3759460Y4006210D01*
X3761758Y4004447D01*
X3764434Y4003338D01*
X3767305Y4002960D01*
X3804584D01*
X3807456Y4003338D01*
X3810132Y4004447D01*
X3812430Y4006210D01*
X3854180Y4047960D01*
X3869801D01*
X3870635Y4045212D01*
X3873977Y4038958D01*
X3878476Y4033476D01*
X3883958Y4028977D01*
X3890212Y4025635D01*
X3896998Y4023576D01*
X3904055Y4022881D01*
X3911112Y4023576D01*
X3917898Y4025635D01*
X3924152Y4028977D01*
X3929634Y4033476D01*
X3934133Y4038958D01*
X3937476Y4045212D01*
X3939534Y4051998D01*
X3940229Y4059055D01*
X3939534Y4066112D01*
X3937476Y4072898D01*
X3934133Y4079152D01*
X3931649Y4082179D01*
X3934481Y4088186D01*
X3997334Y4088353D01*
X3998028Y4086065D01*
X4000443Y4081548D01*
X4003692Y4077589D01*
X4007651Y4074340D01*
X4012167Y4071926D01*
X4017068Y4070439D01*
X4022165Y4069937D01*
X4027262Y4070439D01*
X4032163Y4071926D01*
X4036680Y4074340D01*
X4040639Y4077589D01*
X4043888Y4081548D01*
X4046302Y4086065D01*
X4047036Y4088484D01*
X4417573Y4089465D01*
X4421118Y4083474D01*
D02*
G37*
G36*
X3110000Y3876215D02*
X3093504D01*
X3089212Y3875362D01*
X3085573Y3872931D01*
X3083142Y3869292D01*
X3082288Y3865000D01*
Y3841575D01*
X3064803D01*
Y3810000D01*
X3093504D01*
Y3805000D01*
X3098504D01*
Y3768425D01*
X3110000D01*
Y3758617D01*
X3097600D01*
Y3724998D01*
X3092600D01*
Y3719998D01*
X3071100D01*
Y3713040D01*
X3066876Y3710364D01*
X2930000Y3775000D01*
X2941391Y3803144D01*
X2946299Y3802188D01*
Y3774291D01*
X2970000D01*
Y3802008D01*
Y3829724D01*
X2956623D01*
X2953829Y3833870D01*
X3004881Y3960000D01*
X3014685D01*
Y3945000D01*
X3044370D01*
X3074055D01*
Y3960000D01*
X3110000D01*
Y3876215D01*
D02*
G37*
G36*
X3270000Y3666381D02*
Y3483214D01*
Y3380000D01*
X3246575D01*
Y3381496D01*
X3173425D01*
Y3380000D01*
X3130000D01*
X3093917Y3508440D01*
X3096937Y3512425D01*
X3122890D01*
Y3533785D01*
X3139787D01*
Y3512425D01*
X3153273D01*
Y3492575D01*
X3138803D01*
Y3427425D01*
X3188205D01*
Y3492575D01*
X3175704D01*
Y3512425D01*
X3189189D01*
Y3577575D01*
X3141334D01*
X3138892Y3582204D01*
X3153645Y3596957D01*
X3185210D01*
Y3656197D01*
X3149590D01*
Y3624624D01*
X3119410Y3594444D01*
X3114410Y3596515D01*
Y3621578D01*
X3092600D01*
Y3631578D01*
X3114410D01*
Y3660197D01*
X3118225Y3663059D01*
X3266385Y3669835D01*
X3270000Y3666381D01*
D02*
G37*
G36*
X3394059Y3012763D02*
X3398833Y3008186D01*
X3399059Y3007598D01*
Y2972937D01*
Y2933567D01*
Y2897512D01*
X3388966D01*
X3317218Y2969260D01*
X3319514Y2974803D01*
X3333947D01*
Y3003504D01*
X3338947D01*
Y3008504D01*
X3375522D01*
Y3012763D01*
X3394059D01*
D02*
G37*
G36*
X3619378Y2625604D02*
X3607682Y2613908D01*
X3606921Y2614314D01*
X3601077Y2616087D01*
X3595000Y2616686D01*
X3588923Y2616087D01*
X3583079Y2614314D01*
X3577694Y2611436D01*
X3572974Y2607562D01*
X3569100Y2602842D01*
X3566221Y2597456D01*
X3564448Y2591613D01*
X3563850Y2585536D01*
X3564448Y2579459D01*
X3566221Y2573615D01*
X3569100Y2568230D01*
X3570852Y2566095D01*
X3568014Y2560095D01*
X3539788D01*
X3536950Y2566095D01*
X3538262Y2567694D01*
X3541141Y2573079D01*
X3542914Y2578923D01*
X3543512Y2585000D01*
X3542914Y2591077D01*
X3541141Y2596921D01*
X3540654Y2597832D01*
X3541656Y2599137D01*
X3542764Y2601813D01*
X3543142Y2604685D01*
Y2714059D01*
X3619378D01*
Y2625604D01*
D02*
G37*
%LPC*%
G36*
X3487695Y3997040D02*
X3450416D01*
X3447544Y3996662D01*
X3444868Y3995553D01*
X3442570Y3993790D01*
X3400820Y3952040D01*
X3385199D01*
X3384365Y3954788D01*
X3381023Y3961042D01*
X3376524Y3966524D01*
X3371042Y3971023D01*
X3364788Y3974365D01*
X3358002Y3976424D01*
X3350945Y3977119D01*
X3343888Y3976424D01*
X3337102Y3974365D01*
X3330848Y3971023D01*
X3325366Y3966524D01*
X3320867Y3961042D01*
X3317524Y3954788D01*
X3315466Y3948002D01*
X3314771Y3940945D01*
X3315466Y3933888D01*
X3317524Y3927102D01*
X3320867Y3920848D01*
X3325366Y3915366D01*
X3330848Y3910867D01*
X3337102Y3907524D01*
X3343888Y3905466D01*
X3350945Y3904771D01*
X3358002Y3905466D01*
X3364788Y3907524D01*
X3371042Y3910867D01*
X3376524Y3915366D01*
X3381023Y3920848D01*
X3384365Y3927102D01*
X3385199Y3929850D01*
X3405416D01*
X3408287Y3930228D01*
X3410963Y3931336D01*
X3413261Y3933100D01*
X3423021Y3942860D01*
X3427180Y3941496D01*
X3428927Y3940280D01*
X3429634Y3933104D01*
X3431921Y3925564D01*
X3435635Y3918615D01*
X3440634Y3912524D01*
X3446725Y3907525D01*
X3453674Y3903811D01*
X3461214Y3901524D01*
X3464055Y3901244D01*
Y3940945D01*
X3474055D01*
Y3901244D01*
X3476896Y3901524D01*
X3484436Y3903811D01*
X3491385Y3907525D01*
X3497476Y3912524D01*
X3502475Y3918615D01*
X3506189Y3925564D01*
X3508476Y3933104D01*
X3509183Y3940280D01*
X3510930Y3941496D01*
X3515089Y3942860D01*
X3524849Y3933100D01*
X3527147Y3931336D01*
X3529823Y3930228D01*
X3532695Y3929850D01*
X3751691D01*
X3752524Y3927102D01*
X3755867Y3920848D01*
X3760366Y3915366D01*
X3765848Y3910867D01*
X3772102Y3907524D01*
X3778888Y3905466D01*
X3785945Y3904771D01*
X3793002Y3905466D01*
X3799788Y3907524D01*
X3806042Y3910867D01*
X3811524Y3915366D01*
X3816023Y3920848D01*
X3819365Y3927102D01*
X3821424Y3933888D01*
X3822119Y3940945D01*
X3821424Y3948002D01*
X3819365Y3954788D01*
X3816023Y3961042D01*
X3811524Y3966524D01*
X3806042Y3971023D01*
X3799788Y3974365D01*
X3793002Y3976424D01*
X3785945Y3977119D01*
X3778888Y3976424D01*
X3772102Y3974365D01*
X3765848Y3971023D01*
X3760366Y3966524D01*
X3755867Y3961042D01*
X3752524Y3954788D01*
X3751691Y3952040D01*
X3537290D01*
X3495540Y3993790D01*
X3493242Y3995553D01*
X3490566Y3996662D01*
X3487695Y3997040D01*
D02*
G37*
G36*
X3909055Y3980646D02*
Y3945945D01*
X3943756D01*
X3943476Y3948786D01*
X3941189Y3956326D01*
X3937475Y3963275D01*
X3932476Y3969366D01*
X3926385Y3974365D01*
X3919436Y3978079D01*
X3911896Y3980366D01*
X3909055Y3980646D01*
D02*
G37*
G36*
X3899055Y3980646D02*
X3896214Y3980366D01*
X3888674Y3978079D01*
X3881725Y3974365D01*
X3875634Y3969366D01*
X3870635Y3963275D01*
X3866921Y3956326D01*
X3864634Y3948786D01*
X3864354Y3945945D01*
X3899055D01*
Y3980646D01*
D02*
G37*
G36*
X3943756Y3935945D02*
X3909055D01*
Y3901244D01*
X3911896Y3901524D01*
X3919436Y3903811D01*
X3926385Y3907525D01*
X3932476Y3912524D01*
X3937475Y3918615D01*
X3941189Y3925564D01*
X3943476Y3933104D01*
X3943756Y3935945D01*
D02*
G37*
G36*
X3899055D02*
X3864354D01*
X3864634Y3933104D01*
X3866921Y3925564D01*
X3870635Y3918615D01*
X3875634Y3912524D01*
X3881725Y3907525D01*
X3888674Y3903811D01*
X3896214Y3901524D01*
X3899055Y3901244D01*
Y3935945D01*
D02*
G37*
G36*
X3185197Y3841575D02*
X3161496D01*
Y3810000D01*
X3185197D01*
Y3841575D01*
D02*
G37*
G36*
X3151496D02*
X3127795D01*
Y3810000D01*
X3151496D01*
Y3841575D01*
D02*
G37*
G36*
X3185197Y3800000D02*
X3161496D01*
Y3768425D01*
X3185197D01*
Y3800000D01*
D02*
G37*
G36*
X3151496D02*
X3127795D01*
Y3768425D01*
X3151496D01*
Y3800000D01*
D02*
G37*
G36*
X4277598Y3776167D02*
Y3735000D01*
X4318766D01*
X4318586Y3737284D01*
X4316880Y3744388D01*
X4314084Y3751138D01*
X4310267Y3757368D01*
X4305522Y3762923D01*
X4299966Y3767669D01*
X4293737Y3771486D01*
X4286986Y3774282D01*
X4279882Y3775988D01*
X4277598Y3776167D01*
D02*
G37*
G36*
X4267598D02*
X4265315Y3775988D01*
X4258210Y3774282D01*
X4251460Y3771486D01*
X4245231Y3767669D01*
X4239675Y3762923D01*
X4234930Y3757368D01*
X4231112Y3751138D01*
X4228316Y3744388D01*
X4226611Y3737284D01*
X4226431Y3735000D01*
X4267598D01*
Y3776167D01*
D02*
G37*
G36*
X3685000Y3780699D02*
X3678035Y3780013D01*
X3671338Y3777982D01*
X3665166Y3774683D01*
X3659757Y3770243D01*
X3655317Y3764834D01*
X3652018Y3758662D01*
X3649987Y3751965D01*
X3649301Y3745000D01*
X3649987Y3738035D01*
X3652018Y3731338D01*
X3655317Y3725166D01*
X3659757Y3719757D01*
X3665166Y3715317D01*
X3671338Y3712018D01*
X3678035Y3709987D01*
X3685000Y3709301D01*
X3691965Y3709987D01*
X3698662Y3712018D01*
X3704834Y3715317D01*
X3710243Y3719757D01*
X3714683Y3725166D01*
X3717982Y3731338D01*
X3720013Y3738035D01*
X3720699Y3745000D01*
X3720013Y3751965D01*
X3717982Y3758662D01*
X3714683Y3764834D01*
X3710243Y3770243D01*
X3704834Y3774683D01*
X3698662Y3777982D01*
X3691965Y3780013D01*
X3685000Y3780699D01*
D02*
G37*
G36*
X4528504Y3772548D02*
X4521848Y3772025D01*
X4515356Y3770466D01*
X4509187Y3767911D01*
X4503494Y3764423D01*
X4498418Y3760086D01*
X4494081Y3755009D01*
X4490593Y3749317D01*
X4488038Y3743148D01*
X4486479Y3736656D01*
X4485955Y3730000D01*
X4486479Y3723344D01*
X4488038Y3716852D01*
X4490593Y3710683D01*
X4494081Y3704991D01*
X4498418Y3699914D01*
X4503494Y3695577D01*
X4509187Y3692089D01*
X4515356Y3689534D01*
X4521848Y3687975D01*
X4528504Y3687452D01*
X4535160Y3687975D01*
X4541652Y3689534D01*
X4547820Y3692089D01*
X4553513Y3695577D01*
X4558590Y3699914D01*
X4562926Y3704991D01*
X4566415Y3710683D01*
X4568970Y3716852D01*
X4570529Y3723344D01*
X4571052Y3730000D01*
X4570529Y3736656D01*
X4568970Y3743148D01*
X4566415Y3749317D01*
X4562926Y3755009D01*
X4558590Y3760086D01*
X4553513Y3764423D01*
X4547820Y3767911D01*
X4541652Y3770466D01*
X4535160Y3772025D01*
X4528504Y3772548D01*
D02*
G37*
G36*
X4318766Y3725000D02*
X4277598D01*
Y3683833D01*
X4279882Y3684012D01*
X4286986Y3685718D01*
X4293737Y3688514D01*
X4299966Y3692331D01*
X4305522Y3697077D01*
X4310267Y3702632D01*
X4314084Y3708862D01*
X4316880Y3715612D01*
X4318586Y3722716D01*
X4318766Y3725000D01*
D02*
G37*
G36*
X4267598D02*
X4226431D01*
X4226611Y3722716D01*
X4228316Y3715612D01*
X4231112Y3708862D01*
X4234930Y3702632D01*
X4239675Y3697077D01*
X4245231Y3692331D01*
X4251460Y3688514D01*
X4258210Y3685718D01*
X4265315Y3684012D01*
X4267598Y3683833D01*
Y3725000D01*
D02*
G37*
G36*
X3003701Y3705709D02*
X2980000D01*
Y3682992D01*
X3003701D01*
Y3705709D01*
D02*
G37*
G36*
X2970000D02*
X2946299D01*
Y3682992D01*
X2970000D01*
Y3705709D01*
D02*
G37*
G36*
Y3672992D02*
X2946299D01*
Y3650276D01*
X2970000D01*
Y3672992D01*
D02*
G37*
G36*
X3798117Y3696150D02*
X3792040Y3695552D01*
X3786197Y3693779D01*
X3780811Y3690900D01*
X3776091Y3687026D01*
X3772217Y3682306D01*
X3769339Y3676921D01*
X3767566Y3671077D01*
X3766968Y3665000D01*
X3767566Y3658923D01*
X3769339Y3653079D01*
X3769745Y3652318D01*
X3735344Y3617917D01*
X3733581Y3615619D01*
X3732472Y3612943D01*
X3732094Y3610072D01*
Y3609858D01*
X3702189D01*
Y3538803D01*
X3737811D01*
Y3576451D01*
X3742646Y3581286D01*
X3747365Y3579331D01*
X3770000D01*
X3791811D01*
Y3613858D01*
X3770506D01*
X3768210Y3619401D01*
X3785436Y3636628D01*
X3786197Y3636221D01*
X3792040Y3634448D01*
X3798117Y3633850D01*
X3804195Y3634448D01*
X3810038Y3636221D01*
X3815423Y3639100D01*
X3820144Y3642974D01*
X3824018Y3647694D01*
X3826896Y3653079D01*
X3828669Y3658923D01*
X3829267Y3665000D01*
X3828669Y3671077D01*
X3826896Y3676921D01*
X3824018Y3682306D01*
X3820144Y3687026D01*
X3815423Y3690900D01*
X3810038Y3693779D01*
X3804195Y3695552D01*
X3798117Y3696150D01*
D02*
G37*
G36*
X3895000Y3636050D02*
Y3606373D01*
X3924677D01*
X3924494Y3608234D01*
X3922492Y3614831D01*
X3919242Y3620912D01*
X3914869Y3626241D01*
X3909539Y3630615D01*
X3903459Y3633865D01*
X3896861Y3635866D01*
X3895000Y3636050D01*
D02*
G37*
G36*
X3885000D02*
X3883139Y3635866D01*
X3876541Y3633865D01*
X3870461Y3630615D01*
X3865131Y3626241D01*
X3860758Y3620912D01*
X3857508Y3614831D01*
X3855506Y3608234D01*
X3855323Y3606373D01*
X3885000D01*
Y3636050D01*
D02*
G37*
G36*
X3924677Y3596373D02*
X3895000D01*
Y3566696D01*
X3896861Y3566879D01*
X3903459Y3568880D01*
X3909539Y3572130D01*
X3914869Y3576504D01*
X3919242Y3581834D01*
X3922492Y3587914D01*
X3924494Y3594512D01*
X3924677Y3596373D01*
D02*
G37*
G36*
X3885000D02*
X3855323D01*
X3855506Y3594512D01*
X3857508Y3587914D01*
X3860758Y3581834D01*
X3865131Y3576504D01*
X3870461Y3572130D01*
X3876541Y3568880D01*
X3883139Y3566879D01*
X3885000Y3566696D01*
Y3596373D01*
D02*
G37*
G36*
X3390000Y3721150D02*
X3383923Y3720552D01*
X3378079Y3718779D01*
X3372694Y3715900D01*
X3367974Y3712026D01*
X3364100Y3707306D01*
X3361221Y3701921D01*
X3359448Y3696077D01*
X3358850Y3690000D01*
X3359448Y3683923D01*
X3361221Y3678079D01*
X3364100Y3672694D01*
X3367974Y3667974D01*
X3372694Y3664100D01*
X3378079Y3661221D01*
X3383923Y3659448D01*
X3390000Y3658850D01*
X3391905Y3659038D01*
X3397905Y3654140D01*
Y3616663D01*
X3398283Y3613792D01*
X3399392Y3611116D01*
X3401155Y3608818D01*
X3438008Y3571965D01*
X3437970Y3571503D01*
X3435392Y3566095D01*
X3391982D01*
X3391732Y3566921D01*
X3388853Y3572306D01*
X3384979Y3577026D01*
X3380259Y3580900D01*
X3374873Y3583779D01*
X3369030Y3585552D01*
X3362953Y3586150D01*
X3356876Y3585552D01*
X3351032Y3583779D01*
X3345647Y3580900D01*
X3340926Y3577026D01*
X3337052Y3572306D01*
X3334174Y3566921D01*
X3332401Y3561077D01*
X3331803Y3555000D01*
X3332401Y3548923D01*
X3334174Y3543079D01*
X3337052Y3537694D01*
X3340926Y3532974D01*
X3345647Y3529100D01*
X3351032Y3526221D01*
X3356876Y3524448D01*
X3362953Y3523850D01*
X3369030Y3524448D01*
X3374873Y3526221D01*
X3380259Y3529100D01*
X3384979Y3532974D01*
X3388853Y3537694D01*
X3391732Y3543079D01*
X3391982Y3543905D01*
X3432924D01*
X3501267Y3475562D01*
Y3235941D01*
X3500457D01*
Y3165870D01*
X3772047D01*
Y3161870D01*
X3782953D01*
Y3200906D01*
X3792953D01*
Y3161870D01*
X3803858D01*
Y3165870D01*
X3819543D01*
Y3235941D01*
X3818733D01*
Y3250404D01*
X3830738Y3262409D01*
X3852425D01*
Y3248803D01*
X3917575D01*
Y3262409D01*
X4114000D01*
X4116872Y3262787D01*
X4119547Y3263896D01*
X4121845Y3265659D01*
X4150041Y3293854D01*
X4156077Y3294448D01*
X4161921Y3296221D01*
X4167306Y3299100D01*
X4172026Y3302974D01*
X4175900Y3307694D01*
X4178779Y3313079D01*
X4180551Y3318923D01*
X4181150Y3325000D01*
X4180551Y3331077D01*
X4178779Y3336921D01*
X4175900Y3342306D01*
X4172026Y3347026D01*
X4167306Y3350900D01*
X4161921Y3353779D01*
X4156077Y3355552D01*
X4150000Y3356150D01*
X4143923Y3355552D01*
X4138079Y3353779D01*
X4132694Y3350900D01*
X4127974Y3347026D01*
X4124100Y3342306D01*
X4121221Y3336921D01*
X4119449Y3331077D01*
X4118850Y3325000D01*
X4119449Y3318923D01*
X4121221Y3313079D01*
X4124100Y3307694D01*
X4127886Y3303081D01*
X4109404Y3284599D01*
X3917575D01*
Y3298205D01*
X3870239D01*
X3867943Y3303748D01*
X3871990Y3307795D01*
X3880000D01*
Y3331496D01*
X3848425D01*
Y3315612D01*
X3833412Y3300599D01*
X3819514D01*
X3816643Y3300221D01*
X3813967Y3299113D01*
X3811669Y3297349D01*
X3811669Y3297349D01*
X3785363Y3271043D01*
X3779363Y3273528D01*
Y3330142D01*
X3787811D01*
Y3401197D01*
X3752189D01*
Y3330142D01*
X3757173D01*
Y3265949D01*
X3757043Y3265739D01*
X3751515Y3262173D01*
X3751173Y3262171D01*
X3748583Y3262512D01*
X3668178D01*
X3631095Y3299596D01*
Y3330142D01*
X3637811D01*
Y3401197D01*
X3602189D01*
Y3398127D01*
X3596646Y3395831D01*
X3581095Y3411381D01*
Y3584467D01*
X3580717Y3587339D01*
X3579608Y3590015D01*
X3577845Y3592312D01*
X3542151Y3628007D01*
X3543779Y3631053D01*
X3545552Y3636896D01*
X3546150Y3642974D01*
X3545552Y3649051D01*
X3543779Y3654894D01*
X3540900Y3660280D01*
X3537026Y3665000D01*
X3532306Y3668874D01*
X3526921Y3671752D01*
X3521077Y3673525D01*
X3515000Y3674124D01*
X3508923Y3673525D01*
X3503079Y3671752D01*
X3497694Y3668874D01*
X3492974Y3665000D01*
X3489100Y3660280D01*
X3486221Y3654894D01*
X3484448Y3649051D01*
X3483850Y3642974D01*
X3484448Y3636896D01*
X3486221Y3631053D01*
X3489100Y3625668D01*
X3492974Y3620947D01*
X3497694Y3617073D01*
X3503079Y3614195D01*
X3508923Y3612422D01*
X3515000Y3611824D01*
X3521077Y3612422D01*
X3524216Y3613374D01*
X3528253Y3609215D01*
X3526110Y3604048D01*
X3488218D01*
X3473372Y3618893D01*
X3473779Y3619654D01*
X3475552Y3625498D01*
X3476150Y3631575D01*
X3475552Y3637652D01*
X3473779Y3643495D01*
X3470900Y3648881D01*
X3467026Y3653601D01*
X3462306Y3657475D01*
X3456921Y3660354D01*
X3451077Y3662126D01*
X3445000Y3662725D01*
X3438923Y3662126D01*
X3433079Y3660354D01*
X3427694Y3657475D01*
X3426095Y3656163D01*
X3420095Y3659001D01*
Y3670999D01*
X3420095Y3671000D01*
X3419717Y3673872D01*
X3418609Y3676547D01*
X3418226Y3677046D01*
X3418779Y3678079D01*
X3420552Y3683923D01*
X3421150Y3690000D01*
X3420552Y3696077D01*
X3418779Y3701921D01*
X3415900Y3707306D01*
X3412026Y3712026D01*
X3407306Y3715900D01*
X3401921Y3718779D01*
X3396077Y3720552D01*
X3390000Y3721150D01*
D02*
G37*
G36*
X3065866Y3581575D02*
X3042165D01*
Y3550000D01*
X3065866D01*
Y3581575D01*
D02*
G37*
G36*
X3032165D02*
X3008465D01*
Y3550000D01*
X3032165D01*
Y3581575D01*
D02*
G37*
G36*
X3791811Y3569331D02*
X3775000D01*
Y3534803D01*
X3791811D01*
Y3569331D01*
D02*
G37*
G36*
X3765000D02*
X3748189D01*
Y3534803D01*
X3765000D01*
Y3569331D01*
D02*
G37*
G36*
X3065866Y3540000D02*
X3042165D01*
Y3508425D01*
X3065866D01*
Y3540000D01*
D02*
G37*
G36*
X3032165D02*
X3008465D01*
Y3508425D01*
X3032165D01*
Y3540000D01*
D02*
G37*
G36*
X2830000Y3469653D02*
Y3445000D01*
X2854653D01*
X2854566Y3445881D01*
X2852851Y3451536D01*
X2850065Y3456748D01*
X2846316Y3461316D01*
X2841748Y3465065D01*
X2836536Y3467851D01*
X2830881Y3469566D01*
X2830000Y3469653D01*
D02*
G37*
G36*
X3877205Y3471575D02*
X3853504D01*
Y3440000D01*
X3877205D01*
Y3471575D01*
D02*
G37*
G36*
X3843504D02*
X3819803D01*
Y3440000D01*
X3843504D01*
Y3471575D01*
D02*
G37*
G36*
X3877205Y3430000D02*
X3853504D01*
Y3398425D01*
X3877205D01*
Y3430000D01*
D02*
G37*
G36*
X3843504D02*
X3819803D01*
Y3398425D01*
X3843504D01*
Y3430000D01*
D02*
G37*
G36*
X3741811Y3405197D02*
X3725000D01*
Y3370669D01*
X3741811D01*
Y3405197D01*
D02*
G37*
G36*
X3715000D02*
X3698189D01*
Y3370669D01*
X3715000D01*
Y3405197D01*
D02*
G37*
G36*
X3921575Y3365197D02*
X3890000D01*
Y3341496D01*
X3921575D01*
Y3365197D01*
D02*
G37*
G36*
X3880000D02*
X3848425D01*
Y3341496D01*
X3880000D01*
Y3365197D01*
D02*
G37*
G36*
X3246575Y3352205D02*
X3215000D01*
Y3328504D01*
X3246575D01*
Y3352205D01*
D02*
G37*
G36*
X3205000D02*
X3173425D01*
Y3328504D01*
X3205000D01*
Y3352205D01*
D02*
G37*
G36*
X3741811Y3360669D02*
X3725000D01*
Y3326142D01*
X3741811D01*
Y3360669D01*
D02*
G37*
G36*
X3715000D02*
X3698189D01*
Y3326142D01*
X3715000D01*
Y3360669D01*
D02*
G37*
G36*
X3921575Y3331496D02*
X3890000D01*
Y3307795D01*
X3921575D01*
Y3331496D01*
D02*
G37*
G36*
X3246575Y3318504D02*
X3215000D01*
Y3294803D01*
X3246575D01*
Y3318504D01*
D02*
G37*
G36*
X3205000D02*
X3173425D01*
Y3294803D01*
X3205000D01*
Y3318504D01*
D02*
G37*
G36*
X3140000Y3230677D02*
Y3201000D01*
X3169677D01*
X3169494Y3202861D01*
X3167492Y3209459D01*
X3164242Y3215539D01*
X3159869Y3220869D01*
X3154539Y3225242D01*
X3148459Y3228492D01*
X3141861Y3230494D01*
X3140000Y3230677D01*
D02*
G37*
G36*
X3130000D02*
X3128139Y3230494D01*
X3121541Y3228492D01*
X3115461Y3225242D01*
X3110131Y3220869D01*
X3105758Y3215539D01*
X3102508Y3209459D01*
X3100506Y3202861D01*
X3100323Y3201000D01*
X3130000D01*
Y3230677D01*
D02*
G37*
G36*
X2937614Y3343319D02*
X2931537Y3342721D01*
X2925693Y3340948D01*
X2920308Y3338070D01*
X2915588Y3334196D01*
X2911714Y3329475D01*
X2908835Y3324090D01*
X2907062Y3318247D01*
X2906464Y3312169D01*
X2907062Y3306092D01*
X2908835Y3300249D01*
X2911714Y3294863D01*
X2915588Y3290143D01*
X2920308Y3286269D01*
X2925693Y3283391D01*
X2931537Y3281618D01*
X2937614Y3281019D01*
X2943691Y3281618D01*
X2949535Y3283391D01*
X2950296Y3283797D01*
X3014965Y3219128D01*
X3013470Y3217306D01*
X3010591Y3211921D01*
X3008818Y3206077D01*
X3008220Y3200000D01*
X3008818Y3193923D01*
X3010591Y3188079D01*
X3013470Y3182694D01*
X3017343Y3177974D01*
X3022064Y3174100D01*
X3027449Y3171221D01*
X3033293Y3169448D01*
X3039370Y3168850D01*
X3045447Y3169448D01*
X3051291Y3171221D01*
X3056676Y3174100D01*
X3061396Y3177974D01*
X3065270Y3182694D01*
X3068149Y3188079D01*
X3069921Y3193923D01*
X3070520Y3200000D01*
X3069921Y3206077D01*
X3068149Y3211921D01*
X3065270Y3217306D01*
X3061396Y3222026D01*
X3056676Y3225900D01*
X3051291Y3228779D01*
X3045447Y3230552D01*
X3039370Y3231150D01*
X3034776Y3230698D01*
X2965986Y3299488D01*
X2966393Y3300249D01*
X2968166Y3306092D01*
X2968764Y3312169D01*
X2968166Y3318247D01*
X2966393Y3324090D01*
X2963514Y3329475D01*
X2959640Y3334196D01*
X2954920Y3338070D01*
X2949535Y3340948D01*
X2943691Y3342721D01*
X2937614Y3343319D01*
D02*
G37*
G36*
X3169677Y3191000D02*
X3140000D01*
Y3161323D01*
X3141861Y3161506D01*
X3148459Y3163508D01*
X3154539Y3166758D01*
X3159869Y3171131D01*
X3164242Y3176461D01*
X3167492Y3182541D01*
X3169494Y3189139D01*
X3169677Y3191000D01*
D02*
G37*
G36*
X3130000D02*
X3100323D01*
X3100506Y3189139D01*
X3102508Y3182541D01*
X3105758Y3176461D01*
X3110131Y3171131D01*
X3115461Y3166758D01*
X3121541Y3163508D01*
X3128139Y3161506D01*
X3130000Y3161323D01*
Y3191000D01*
D02*
G37*
G36*
X4090000Y3186153D02*
X4082943Y3185458D01*
X4076157Y3183399D01*
X4069903Y3180057D01*
X4064421Y3175558D01*
X4059922Y3170076D01*
X4056579Y3163822D01*
X4054521Y3157036D01*
X4053826Y3149979D01*
X4054521Y3142922D01*
X4056579Y3136135D01*
X4059922Y3129881D01*
X4064421Y3124400D01*
X4069903Y3119901D01*
X4076157Y3116558D01*
X4082943Y3114500D01*
X4090000Y3113805D01*
X4097057Y3114500D01*
X4103843Y3116558D01*
X4110097Y3119901D01*
X4115579Y3124400D01*
X4120078Y3129881D01*
X4123421Y3136135D01*
X4125479Y3142922D01*
X4126174Y3149979D01*
X4125479Y3157036D01*
X4123421Y3163822D01*
X4120078Y3170076D01*
X4115579Y3175558D01*
X4110097Y3180057D01*
X4103843Y3183399D01*
X4097057Y3185458D01*
X4090000Y3186153D01*
D02*
G37*
G36*
X3154189Y3142575D02*
X3104787D01*
Y3077425D01*
X3118393D01*
Y3050213D01*
X3097425D01*
Y3043497D01*
X3066945D01*
Y3050213D01*
X3005732D01*
Y3014591D01*
X3066945D01*
Y3021307D01*
X3097425D01*
Y3000811D01*
X3162575D01*
Y3050213D01*
X3140583D01*
Y3077425D01*
X3154189D01*
Y3142575D01*
D02*
G37*
G36*
X4021575Y2975197D02*
X3990000D01*
Y2951496D01*
X4021575D01*
Y2975197D01*
D02*
G37*
G36*
X3980000D02*
X3948425D01*
Y2951496D01*
X3980000D01*
Y2975197D01*
D02*
G37*
G36*
X4275000Y2959677D02*
Y2930000D01*
X4304677D01*
X4304494Y2931861D01*
X4302492Y2938459D01*
X4299242Y2944539D01*
X4294868Y2949869D01*
X4289539Y2954242D01*
X4283459Y2957492D01*
X4276861Y2959494D01*
X4275000Y2959677D01*
D02*
G37*
G36*
X4265000D02*
X4263139Y2959494D01*
X4256541Y2957492D01*
X4250461Y2954242D01*
X4245132Y2949869D01*
X4240758Y2944539D01*
X4237508Y2938459D01*
X4235506Y2931861D01*
X4235323Y2930000D01*
X4265000D01*
Y2959677D01*
D02*
G37*
G36*
X4021575Y2941496D02*
X3990000D01*
Y2917795D01*
X4021575D01*
Y2941496D01*
D02*
G37*
G36*
X4304677Y2920000D02*
X4275000D01*
Y2890323D01*
X4276861Y2890506D01*
X4283459Y2892508D01*
X4289539Y2895758D01*
X4294868Y2900131D01*
X4299242Y2905461D01*
X4302492Y2911541D01*
X4304494Y2918139D01*
X4304677Y2920000D01*
D02*
G37*
G36*
X4265000D02*
X4235323D01*
X4235506Y2918139D01*
X4237508Y2911541D01*
X4240758Y2905461D01*
X4245132Y2900131D01*
X4250461Y2895758D01*
X4256541Y2892508D01*
X4263139Y2890506D01*
X4265000Y2890323D01*
Y2920000D01*
D02*
G37*
G36*
X3167402Y2872575D02*
X3118000D01*
Y2807425D01*
X3123393D01*
Y2775213D01*
X3107937D01*
Y2761607D01*
X3081945D01*
Y2775213D01*
X3020732D01*
Y2739591D01*
X3056909D01*
X3058228Y2739417D01*
X3107937D01*
Y2725811D01*
X3173086D01*
Y2775213D01*
X3145583D01*
Y2807425D01*
X3167402D01*
Y2872575D01*
D02*
G37*
G36*
X4277598Y2661167D02*
Y2620000D01*
X4318766D01*
X4318586Y2622284D01*
X4316880Y2629388D01*
X4314084Y2636138D01*
X4310267Y2642368D01*
X4305522Y2647923D01*
X4299966Y2652669D01*
X4293737Y2656486D01*
X4286986Y2659282D01*
X4279882Y2660988D01*
X4277598Y2661167D01*
D02*
G37*
G36*
X4267598D02*
X4265315Y2660988D01*
X4258210Y2659282D01*
X4251460Y2656486D01*
X4245231Y2652669D01*
X4239675Y2647923D01*
X4234930Y2642368D01*
X4231112Y2636138D01*
X4228316Y2629388D01*
X4226611Y2622284D01*
X4226431Y2620000D01*
X4267598D01*
Y2661167D01*
D02*
G37*
G36*
X3875197Y2640086D02*
X3851496D01*
Y2608512D01*
X3875197D01*
Y2640086D01*
D02*
G37*
G36*
X3841496D02*
X3817795D01*
Y2608512D01*
X3841496D01*
Y2640086D01*
D02*
G37*
G36*
X3690000Y2619677D02*
Y2590000D01*
X3719677D01*
X3719494Y2591861D01*
X3717492Y2598459D01*
X3714242Y2604539D01*
X3709869Y2609869D01*
X3704539Y2614242D01*
X3698459Y2617492D01*
X3691861Y2619494D01*
X3690000Y2619677D01*
D02*
G37*
G36*
X3680000D02*
X3678139Y2619494D01*
X3671541Y2617492D01*
X3665461Y2614242D01*
X3660131Y2609869D01*
X3655758Y2604539D01*
X3652508Y2598459D01*
X3650506Y2591861D01*
X3650323Y2590000D01*
X3680000D01*
Y2619677D01*
D02*
G37*
G36*
X4528504Y2657548D02*
X4521848Y2657025D01*
X4515356Y2655466D01*
X4509187Y2652911D01*
X4503494Y2649423D01*
X4498418Y2645086D01*
X4494081Y2640009D01*
X4490593Y2634317D01*
X4488038Y2628148D01*
X4486479Y2621656D01*
X4485955Y2615000D01*
X4486479Y2608344D01*
X4488038Y2601852D01*
X4490593Y2595683D01*
X4494081Y2589991D01*
X4498418Y2584914D01*
X4503494Y2580577D01*
X4509187Y2577089D01*
X4515356Y2574534D01*
X4521848Y2572975D01*
X4528504Y2572452D01*
X4535160Y2572975D01*
X4541652Y2574534D01*
X4547820Y2577089D01*
X4553513Y2580577D01*
X4558590Y2584914D01*
X4562926Y2589991D01*
X4566415Y2595683D01*
X4568970Y2601852D01*
X4570529Y2608344D01*
X4571052Y2615000D01*
X4570529Y2621656D01*
X4568970Y2628148D01*
X4566415Y2634317D01*
X4562926Y2640009D01*
X4558590Y2645086D01*
X4553513Y2649423D01*
X4547820Y2652911D01*
X4541652Y2655466D01*
X4535160Y2657025D01*
X4528504Y2657548D01*
D02*
G37*
G36*
X4318766Y2610000D02*
X4277598D01*
Y2568833D01*
X4279882Y2569012D01*
X4286986Y2570718D01*
X4293737Y2573514D01*
X4299966Y2577331D01*
X4305522Y2582077D01*
X4310267Y2587632D01*
X4314084Y2593862D01*
X4316880Y2600612D01*
X4318586Y2607716D01*
X4318766Y2610000D01*
D02*
G37*
G36*
X4267598D02*
X4226431D01*
X4226611Y2607716D01*
X4228316Y2600612D01*
X4231112Y2593862D01*
X4234930Y2587632D01*
X4239675Y2582077D01*
X4245231Y2577331D01*
X4251460Y2573514D01*
X4258210Y2570718D01*
X4265315Y2569012D01*
X4267598Y2568833D01*
Y2610000D01*
D02*
G37*
G36*
X3747953Y2512770D02*
Y2478583D01*
X3782140D01*
X3781870Y2481324D01*
X3779612Y2488767D01*
X3775945Y2495627D01*
X3771010Y2501640D01*
X3764997Y2506575D01*
X3758137Y2510242D01*
X3750694Y2512500D01*
X3747953Y2512770D01*
D02*
G37*
G36*
X3737953D02*
X3735212Y2512500D01*
X3727768Y2510242D01*
X3720908Y2506575D01*
X3714895Y2501640D01*
X3709961Y2495627D01*
X3706294Y2488767D01*
X3704036Y2481324D01*
X3703766Y2478583D01*
X3737953D01*
Y2512770D01*
D02*
G37*
G36*
X3337953D02*
Y2478583D01*
X3372140D01*
X3371870Y2481324D01*
X3369612Y2488767D01*
X3365945Y2495627D01*
X3361010Y2501640D01*
X3354997Y2506575D01*
X3348137Y2510242D01*
X3340694Y2512500D01*
X3337953Y2512770D01*
D02*
G37*
G36*
X3327953D02*
X3325212Y2512500D01*
X3317768Y2510242D01*
X3310908Y2506575D01*
X3304895Y2501640D01*
X3299961Y2495627D01*
X3296294Y2488767D01*
X3294036Y2481324D01*
X3293766Y2478583D01*
X3327953D01*
Y2512770D01*
D02*
G37*
G36*
X3487047Y2509243D02*
X3480090Y2508557D01*
X3473401Y2506528D01*
X3467236Y2503233D01*
X3461832Y2498798D01*
X3457397Y2493394D01*
X3454102Y2487229D01*
X3452073Y2480540D01*
X3451387Y2473583D01*
X3452073Y2466626D01*
X3454102Y2459936D01*
X3457397Y2453771D01*
X3461832Y2448367D01*
X3467236Y2443933D01*
X3473401Y2440637D01*
X3480090Y2438608D01*
X3487047Y2437923D01*
X3494004Y2438608D01*
X3500694Y2440637D01*
X3506859Y2443933D01*
X3512263Y2448367D01*
X3516697Y2453771D01*
X3519993Y2459936D01*
X3522022Y2466626D01*
X3522707Y2473583D01*
X3522022Y2480540D01*
X3519993Y2487229D01*
X3516697Y2493394D01*
X3512263Y2498798D01*
X3506859Y2503233D01*
X3500694Y2506528D01*
X3494004Y2508557D01*
X3487047Y2509243D01*
D02*
G37*
G36*
X3782140Y2468583D02*
X3747953D01*
Y2434396D01*
X3750694Y2434666D01*
X3758137Y2436924D01*
X3764997Y2440591D01*
X3771010Y2445525D01*
X3775945Y2451538D01*
X3779612Y2458398D01*
X3781870Y2465842D01*
X3782140Y2468583D01*
D02*
G37*
G36*
X3737953D02*
X3703766D01*
X3704036Y2465842D01*
X3706294Y2458398D01*
X3709961Y2451538D01*
X3714895Y2445525D01*
X3720908Y2440591D01*
X3727768Y2436924D01*
X3735212Y2434666D01*
X3737953Y2434396D01*
Y2468583D01*
D02*
G37*
G36*
X3372140D02*
X3337953D01*
Y2434396D01*
X3340694Y2434666D01*
X3348137Y2436924D01*
X3354997Y2440591D01*
X3361010Y2445525D01*
X3365945Y2451538D01*
X3369612Y2458398D01*
X3371870Y2465842D01*
X3372140Y2468583D01*
D02*
G37*
G36*
X3327953D02*
X3293766D01*
X3294036Y2465842D01*
X3296294Y2458398D01*
X3299961Y2451538D01*
X3304895Y2445525D01*
X3310908Y2440591D01*
X3317768Y2436924D01*
X3325212Y2434666D01*
X3327953Y2434396D01*
Y2468583D01*
D02*
G37*
%LPD*%
G36*
X3475776Y3585108D02*
X3475777Y3585108D01*
X3478075Y3583344D01*
X3480750Y3582236D01*
X3483622Y3581858D01*
X3483623Y3581858D01*
X3526919D01*
X3540637Y3568139D01*
Y3509202D01*
X3534637Y3506716D01*
X3446782Y3594571D01*
X3449019Y3600821D01*
X3451077Y3601023D01*
X3456921Y3602796D01*
X3457682Y3603203D01*
X3475776Y3585108D01*
D02*
G37*
G36*
X3586094Y3375001D02*
Y3295184D01*
X3586472Y3292312D01*
X3587581Y3289636D01*
X3589344Y3287338D01*
X3619378Y3257305D01*
Y3235941D01*
X3562827D01*
Y3390428D01*
X3568370Y3392725D01*
X3586094Y3375001D01*
D02*
G37*
%LPC*%
G36*
X3074055Y3935000D02*
X3049370D01*
Y3894567D01*
X3074055D01*
Y3935000D01*
D02*
G37*
G36*
X3039370D02*
X3014685D01*
Y3894567D01*
X3039370D01*
Y3935000D01*
D02*
G37*
G36*
X3003701Y3829724D02*
X2980000D01*
Y3807008D01*
X3003701D01*
Y3829724D01*
D02*
G37*
G36*
Y3797008D02*
X2980000D01*
Y3774291D01*
X3003701D01*
Y3797008D01*
D02*
G37*
G36*
X3088504Y3800000D02*
X3064803D01*
Y3768425D01*
X3088504D01*
Y3800000D01*
D02*
G37*
G36*
X3087600Y3758617D02*
X3071100D01*
Y3729998D01*
X3087600D01*
Y3758617D01*
D02*
G37*
G36*
X3254213Y3581575D02*
X3230512D01*
Y3550000D01*
X3254213D01*
Y3581575D01*
D02*
G37*
G36*
X3220512D02*
X3196811D01*
Y3550000D01*
X3220512D01*
Y3581575D01*
D02*
G37*
G36*
X3254213Y3540000D02*
X3230512D01*
Y3508425D01*
X3254213D01*
Y3540000D01*
D02*
G37*
G36*
X3220512D02*
X3196811D01*
Y3508425D01*
X3220512D01*
Y3540000D01*
D02*
G37*
G36*
X3255197Y3496575D02*
X3231496D01*
Y3465000D01*
X3255197D01*
Y3496575D01*
D02*
G37*
G36*
X3221496D02*
X3197795D01*
Y3465000D01*
X3221496D01*
Y3496575D01*
D02*
G37*
G36*
X3255197Y3455000D02*
X3231496D01*
Y3423425D01*
X3255197D01*
Y3455000D01*
D02*
G37*
G36*
X3221496D02*
X3197795D01*
Y3423425D01*
X3221496D01*
Y3455000D01*
D02*
G37*
G36*
X3246575Y3415197D02*
X3215000D01*
Y3391496D01*
X3246575D01*
Y3415197D01*
D02*
G37*
G36*
X3205000D02*
X3173425D01*
Y3391496D01*
X3205000D01*
Y3415197D01*
D02*
G37*
G36*
X3375522Y2998504D02*
X3343947D01*
Y2974803D01*
X3375522D01*
Y2998504D01*
D02*
G37*
%LPD*%
D10*
X3911496Y3435000D02*
D03*
X3848504D02*
D03*
X3783504Y2645086D02*
D03*
X3846496D02*
D03*
X3142701Y2840000D02*
D03*
X3203724D02*
D03*
X3129488Y3110000D02*
D03*
X3190512D02*
D03*
X3037165Y3545000D02*
D03*
X3098189D02*
D03*
X3226496Y3460000D02*
D03*
X3163504D02*
D03*
X3164488Y3545000D02*
D03*
X3225512D02*
D03*
X3093504Y3805000D02*
D03*
X3156496D02*
D03*
D15*
X3885000Y3273504D02*
D03*
Y3336496D02*
D03*
X3338947Y3066496D02*
D03*
Y3003504D02*
D03*
X3985000Y2883504D02*
D03*
Y2946496D02*
D03*
X3140512Y2689488D02*
D03*
Y2750512D02*
D03*
X3130000Y2964488D02*
D03*
Y3025512D02*
D03*
X3210000Y3386496D02*
D03*
Y3323504D02*
D03*
D17*
X3190512Y2966861D02*
Y3110000D01*
Y2966861D02*
X3346010Y2811362D01*
X3036338Y2957598D02*
X3123110D01*
X3130000Y2964488D01*
X3235000Y3131921D02*
X3240000Y3136921D01*
Y3177057D01*
X3235000Y2945000D02*
Y3131921D01*
X3768268Y2655900D02*
Y2749095D01*
Y2652874D02*
Y2655900D01*
X3771294D01*
X3713303D02*
X3768268D01*
Y2652874D02*
X3771294Y2655900D01*
X3620000Y3574331D02*
Y3609094D01*
X3364094Y3865000D02*
X3620000Y3609094D01*
X3093504Y3865000D02*
X3364094D01*
X4015000Y2825000D02*
X4033318D01*
X3329366Y3424366D02*
Y3440000D01*
X3315000Y3410000D02*
X3329366Y3424366D01*
X3360000Y3087549D02*
Y3130000D01*
X3365000D01*
X3372362Y3122638D01*
X3251000Y3095088D02*
X3290165Y3134253D01*
X3270000Y3091461D02*
X3306165Y3127626D01*
X3290000Y3088834D02*
X3322165Y3120999D01*
X3290000Y2980787D02*
Y3088834D01*
X3290165Y3134253D02*
Y3211881D01*
X3306165Y3127626D02*
Y3205253D01*
X3322165Y3120999D02*
Y3198626D01*
X3285000Y3235000D02*
X3297293Y3222707D01*
Y3219009D02*
Y3222707D01*
X3290165Y3211881D02*
X3297293Y3219009D01*
X3306165Y3205253D02*
X3321000Y3220088D01*
X3322165Y3198626D02*
X3337000Y3213461D01*
X3985000Y2855000D02*
X4015000Y2825000D01*
X2762159Y3421000D02*
X2775000D01*
X4025472Y3004528D02*
X4095000Y2935000D01*
Y2648465D02*
Y2935000D01*
X3742953Y2296417D02*
X4095000Y2648465D01*
X3167402Y3685805D02*
Y3725000D01*
X3162982Y3681385D02*
X3167402Y3685805D01*
X3092598Y3681385D02*
X3162982D01*
X3092598D02*
Y3725000D01*
X3086535Y3620512D02*
X3092598Y3626575D01*
X3017831Y3620512D02*
X3086535D01*
X3098189Y3545000D02*
Y3557362D01*
X3167402Y3626575D01*
X3768268Y2652874D02*
X3776142Y2645000D01*
X3839134D02*
Y2690866D01*
X3820941Y2709059D02*
X3839134Y2690866D01*
X3338947Y3003504D02*
X3359302Y3023858D01*
X3394059D01*
X3338947Y3066496D02*
X3360000Y3087549D01*
X3290000Y2980787D02*
X3384370Y2886417D01*
X3270000Y2970000D02*
Y3091461D01*
Y2970000D02*
X3373268Y2866732D01*
X3251000Y2959000D02*
Y3095088D01*
Y2959000D02*
X3362953Y2847047D01*
X3235000Y2945000D02*
X3352638Y2827362D01*
X3093504Y3805000D02*
Y3865000D01*
X4285000Y3020000D02*
Y3279088D01*
X4321000Y3315088D01*
Y3344912D01*
X4290912Y3375000D02*
X4321000Y3344912D01*
X4285000Y3375000D02*
X4290912D01*
X3039370Y3200000D02*
Y3210414D01*
X2937614Y3312169D02*
X3039370Y3210414D01*
X3915000Y3490000D02*
X4170000D01*
X3670000D02*
X3915000D01*
X3911496Y3486496D02*
X3915000Y3490000D01*
X3911496Y3435000D02*
Y3486496D01*
X3620000Y3540000D02*
Y3574331D01*
Y3540000D02*
X3670000Y3490000D01*
Y3365669D02*
Y3490000D01*
X4170000D02*
X4285000Y3375000D01*
X3944464Y2630000D02*
X3995000D01*
X3847464Y2533000D02*
X3944464Y2630000D01*
X3490823Y2533000D02*
X3847464D01*
X3595000Y2585536D02*
X3630472Y2621008D01*
X3512362Y2585000D02*
X3532047Y2604685D01*
X3512362Y2585000D02*
Y2749095D01*
X3330010Y2693813D02*
X3490823Y2533000D01*
X3330010Y2693813D02*
Y2705501D01*
X3352638Y2827362D02*
X3434095D01*
X3362953Y2847047D02*
X3434095D01*
X3373268Y2866732D02*
X3434095D01*
X3195512Y2840000D02*
X3330010Y2705501D01*
X3839912Y2549000D02*
X4015000Y2724088D01*
Y2774088D01*
X3942041Y2847047D02*
X4015000Y2774088D01*
X3497451Y2549000D02*
X3839912D01*
X3885905Y2847047D02*
X3942041D01*
X3975000Y2749088D02*
Y2790000D01*
X3937638Y2827362D02*
X3975000Y2790000D01*
X3885905Y2827362D02*
X3937638D01*
X3630472Y2621008D02*
Y2749095D01*
X3346010Y2700440D02*
X3497451Y2549000D01*
X3346010Y2700440D02*
Y2811362D01*
X4150000Y3309504D02*
Y3325000D01*
X4114000Y3273504D02*
X4150000Y3309504D01*
X3885000Y3273504D02*
X4114000D01*
X3838008Y3289504D02*
X3885000Y3336496D01*
X3819514Y3289504D02*
X3838008D01*
X3787953Y3257942D02*
X3819514Y3289504D01*
X3787953Y3200905D02*
Y3257942D01*
X3826142Y3273504D02*
X3885000D01*
X3807638Y3255000D02*
X3826142Y3273504D01*
X3807638Y3200905D02*
Y3255000D01*
X3787953Y2709059D02*
X3820941D01*
X3787953D02*
Y2749095D01*
X3362953Y3555000D02*
X3437520D01*
X3512362Y3480157D01*
X3887008Y3045000D02*
X3965000D01*
X3885905Y3043898D02*
X3887008Y3045000D01*
X3532047Y2604685D02*
Y2749095D01*
X3967362Y3122638D02*
X3970000Y3120000D01*
X3885905Y3122638D02*
X3967362D01*
X3985000Y2855000D02*
Y2883504D01*
X3982087Y2886417D02*
X3985000Y2883504D01*
X3885905Y2886417D02*
X3982087D01*
X3944606Y2906102D02*
X3985000Y2946496D01*
X3885905Y2906102D02*
X3944606D01*
X3394059Y3023858D02*
Y3093729D01*
X3400503Y3100173D01*
X3431315D01*
X3434095Y3102953D01*
X3372362Y3122638D02*
X3434095D01*
Y3100173D02*
Y3102953D01*
X3885905Y3004528D02*
X4025472D01*
X3315000Y3385912D02*
Y3410000D01*
Y3385912D02*
X3336000Y3364912D01*
Y3335088D02*
Y3364912D01*
X3316000Y3315088D02*
X3336000Y3335088D01*
X3316000Y3277539D02*
Y3315088D01*
Y3277539D02*
X3337000Y3256539D01*
Y3213461D02*
Y3256539D01*
X3300000Y3270912D02*
Y3350000D01*
Y3270912D02*
X3321000Y3249912D01*
Y3220088D02*
Y3249912D01*
X3036559Y2406669D02*
Y2585536D01*
Y2406669D02*
X3077047Y2366181D01*
Y2296417D02*
Y2366181D01*
X3133622Y2682598D02*
X3140512Y2689488D01*
X3096740Y2645716D02*
X3133622Y2682598D01*
X3036559Y2585536D02*
X3096740Y2645716D01*
X3061206Y2255000D02*
X3701535D01*
X3036559Y2279647D02*
X3061206Y2255000D01*
X3036559Y2279647D02*
Y2318441D01*
X2744000Y2611000D02*
X3036559Y2318441D01*
X3701535Y2255000D02*
X3742953Y2296417D01*
X2744000Y2611000D02*
Y3402841D01*
X2762159Y3421000D01*
X2775000D02*
Y3440000D01*
X3390000Y3690000D02*
X3409000Y3671000D01*
Y3616663D02*
Y3671000D01*
X3072338Y2906827D02*
X3123110Y2957598D01*
X2935000Y2645716D02*
X3096740D01*
X2933055Y2647661D02*
X2935000Y2645716D01*
X2933055Y2647661D02*
Y2736367D01*
X2939499Y2742811D01*
X2940061D01*
X3072338Y2875088D01*
Y2906827D01*
X3040000Y2820000D02*
X3077047D01*
X2968661Y2748661D02*
X3040000Y2820000D01*
X3036338Y2890000D02*
Y2898662D01*
X2953661Y2981339D02*
X3036338Y2898662D01*
X3123110Y3032402D02*
X3129488Y3026023D01*
X3130000Y3025512D01*
X3129488Y3026023D02*
Y3110000D01*
X3036338Y3032402D02*
X3123110D01*
X3134488Y2756535D02*
X3140512Y2750512D01*
X3134488Y2756535D02*
Y2840000D01*
X3051338Y2682598D02*
X3133622D01*
X3051338Y2757402D02*
X3058228Y2750512D01*
X3140512D01*
X2968661Y2720000D02*
Y2748661D01*
X2953661Y2981339D02*
Y2995000D01*
X3512362Y3200905D02*
Y3480157D01*
X3409000Y3616663D02*
X3532047Y3493616D01*
Y3200905D02*
Y3493616D01*
X3445000Y3631575D02*
X3483622Y3592953D01*
X3531514D01*
X3551732Y3572735D01*
Y3200905D02*
Y3572735D01*
X3527892Y3626575D02*
X3570000Y3584467D01*
Y3406786D02*
Y3584467D01*
Y3406786D02*
X3597189Y3379597D01*
Y3295184D02*
Y3379597D01*
Y3295184D02*
X3630472Y3261900D01*
Y3200905D02*
Y3261900D01*
X3384370Y2886417D02*
X3434095D01*
X3768268Y3363937D02*
X3770000Y3365669D01*
X3768268Y3200905D02*
Y3363937D01*
X3620000Y3295000D02*
Y3365669D01*
Y3295000D02*
X3663583Y3251417D01*
X3748583D01*
Y3200905D02*
Y3251417D01*
X3743189Y3610072D02*
X3798117Y3665000D01*
X3743189Y3597520D02*
Y3610072D01*
X3720000Y3574331D02*
X3743189Y3597520D01*
X3646811D02*
X3670000Y3574331D01*
X3646811Y3597520D02*
Y3610072D01*
X3585000Y3671883D02*
X3646811Y3610072D01*
X3585000Y3671883D02*
Y3745000D01*
X3469055Y4059055D02*
X3722305D01*
X3532695Y3940945D02*
X3785945D01*
X3487695Y3985945D02*
X3532695Y3940945D01*
X3450416Y3985945D02*
X3487695D01*
X3405416Y3940945D02*
X3450416Y3985945D01*
X3350945Y3940945D02*
X3405416D01*
X3154606Y3940000D02*
X3228661Y4014055D01*
X3369584D01*
X3414584Y4059055D01*
X3469055D01*
X3722305D02*
X3767305Y4014055D01*
X3804584D01*
X3849584Y4059055D01*
X3904055D01*
X3098189Y3545000D02*
X3164488D01*
Y3460984D02*
Y3545000D01*
D18*
X4090000Y3149979D02*
D03*
X3469055Y4059055D02*
D03*
Y3940945D02*
D03*
X3350945Y4059055D02*
D03*
Y3940945D02*
D03*
X3785945D02*
D03*
Y4059055D02*
D03*
X3904055Y3940945D02*
D03*
Y4059055D02*
D03*
D19*
X2825000Y3240000D02*
D03*
D20*
X2775000D02*
D03*
X2825000Y3290000D02*
D03*
X2775000D02*
D03*
X2825000Y3340000D02*
D03*
X2775000D02*
D03*
X2825000Y3390000D02*
D03*
X2775000D02*
D03*
X2825000Y3440000D02*
D03*
X2775000D02*
D03*
D21*
X4528504Y3730000D02*
D03*
X4272598D02*
D03*
Y2615000D02*
D03*
X4528504D02*
D03*
D22*
X3585000Y3745000D02*
D03*
D23*
X3685000D02*
D03*
D24*
X3077047Y2473583D02*
D03*
X3332953D02*
D03*
X3077047Y2296417D02*
D03*
X3332953D02*
D03*
X3742953D02*
D03*
X3487047D02*
D03*
X3742953Y2473583D02*
D03*
X3487047D02*
D03*
D25*
X3240000Y3177057D02*
D03*
X3713303Y2655900D02*
D03*
X3515000Y3642974D02*
D03*
X4033318Y2825000D02*
D03*
X3329366Y3440000D02*
D03*
X3360000Y3130000D02*
D03*
X3135000Y3196000D02*
D03*
X3890000Y3601373D02*
D03*
X3039370Y3200000D02*
D03*
X2937614Y3312169D02*
D03*
X4285000Y3330000D02*
D03*
X3995000Y2630000D02*
D03*
X3595000Y2585536D02*
D03*
X3512362Y2585000D02*
D03*
X3975000Y2749088D02*
D03*
X3685000Y2585000D02*
D03*
X4285000Y3020000D02*
D03*
X4150000Y3325000D02*
D03*
X3362953Y3555000D02*
D03*
X3970000Y3120000D02*
D03*
X4270000Y2925000D02*
D03*
X3965000Y3045000D02*
D03*
X3390000Y3690000D02*
D03*
X3075000Y2820000D02*
D03*
X3036338Y2890000D02*
D03*
X3445000Y3631575D02*
D03*
X3017831Y3620512D02*
D03*
X3285000Y3235000D02*
D03*
X3300000Y3350000D02*
D03*
X3798117Y3665000D02*
D03*
D26*
X2825000Y4020000D02*
D03*
X4530000Y2320000D02*
D03*
Y4020000D02*
D03*
X2825000Y2320000D02*
D03*
D27*
X3770000Y3365669D02*
D03*
X3720000D02*
D03*
X3670000D02*
D03*
X3620000D02*
D03*
Y3574331D02*
D03*
X3670000D02*
D03*
X3720000D02*
D03*
X3770000D02*
D03*
D28*
X3051338Y2757402D02*
D03*
Y2682598D02*
D03*
X2968661Y2720000D02*
D03*
X2953661Y2995000D02*
D03*
X3036338Y2957598D02*
D03*
Y3032402D02*
D03*
D29*
X3092600Y3626577D02*
D03*
X3167400D02*
D03*
D30*
Y3724997D02*
D03*
X3130000D02*
D03*
X3092600D02*
D03*
D31*
X2975000Y3677992D02*
D03*
X2975000Y3802008D02*
D03*
D32*
X3154606Y3940000D02*
D03*
X3044370D02*
D03*
D33*
X3885905Y3122638D02*
D03*
Y3102953D02*
D03*
Y3083268D02*
D03*
Y3063583D02*
D03*
Y3043898D02*
D03*
Y3024213D02*
D03*
Y3004528D02*
D03*
Y2984843D02*
D03*
Y2965157D02*
D03*
Y2945472D02*
D03*
Y2925787D02*
D03*
Y2906102D02*
D03*
Y2886417D02*
D03*
Y2866732D02*
D03*
Y2847047D02*
D03*
Y2827362D02*
D03*
X3434095D02*
D03*
Y2847047D02*
D03*
Y2866732D02*
D03*
Y2886417D02*
D03*
Y2906102D02*
D03*
Y2925787D02*
D03*
Y2945472D02*
D03*
Y2965157D02*
D03*
Y2984843D02*
D03*
Y3004528D02*
D03*
Y3024213D02*
D03*
Y3043898D02*
D03*
Y3063583D02*
D03*
Y3083268D02*
D03*
Y3102953D02*
D03*
Y3122638D02*
D03*
D34*
X3807638Y2749095D02*
D03*
X3787953D02*
D03*
X3768268D02*
D03*
X3748583D02*
D03*
X3728898D02*
D03*
X3709213D02*
D03*
X3689528D02*
D03*
X3669843D02*
D03*
X3650157D02*
D03*
X3630472D02*
D03*
X3610787D02*
D03*
X3591102D02*
D03*
X3571417D02*
D03*
X3551732D02*
D03*
X3532047D02*
D03*
X3512362D02*
D03*
Y3200905D02*
D03*
X3532047D02*
D03*
X3551732D02*
D03*
X3571417D02*
D03*
X3591102D02*
D03*
X3610787D02*
D03*
X3630472D02*
D03*
X3650157D02*
D03*
X3669843D02*
D03*
X3689528D02*
D03*
X3709213D02*
D03*
X3728898D02*
D03*
X3748583D02*
D03*
X3768268D02*
D03*
X3787953D02*
D03*
X3807638D02*
D03*
%TF.MD5,04d4f9fa6d251f094e2fff92bea1c3ee*%
M02*
