%TF.GenerationSoftware,Altium Limited,Altium Designer,18.1.9 (240)*%
G04 Layer_Physical_Order=1*
G04 Layer_Color=255*
%FSLAX26Y26*%
%MOIN*%
%TF.FileFunction,Copper,L1,Top,Signal*%
%TF.Part,Single*%
G01*
G75*
%TA.AperFunction,SMDPad,CuDef*%
%ADD10R,0.037402X0.053150*%
%ADD11R,0.068898X0.023622*%
%ADD12R,0.080709X0.031496*%
%ADD13R,0.051181X0.082677*%
%ADD14R,0.035433X0.055118*%
%ADD15R,0.053150X0.037402*%
%TA.AperFunction,ConnectorPad*%
%ADD16R,0.037402X0.053150*%
%TA.AperFunction,Conductor*%
%ADD17C,0.010000*%
%TA.AperFunction,ComponentPad*%
%ADD18C,0.060000*%
%ADD19R,0.040000X0.040000*%
%ADD20C,0.040000*%
%ADD21C,0.072835*%
%ADD22R,0.059055X0.059055*%
%ADD23C,0.059055*%
%ADD24C,0.058976*%
%TA.AperFunction,ViaPad*%
%ADD25C,0.050000*%
%ADD26C,0.240000*%
G36*
X4230000Y3731405D02*
X4229815Y3730000D01*
X4230000Y3728595D01*
Y3161727D01*
X4217575D01*
Y3175213D01*
X4176160D01*
X4173442Y3177931D01*
X4169804Y3180362D01*
X4165512Y3181216D01*
X4165511Y3181215D01*
X4108428D01*
X4108155Y3181425D01*
X4099398Y3185052D01*
X4090000Y3186289D01*
X4080602Y3185052D01*
X4071845Y3181425D01*
X4064325Y3175654D01*
X4058554Y3168134D01*
X4054927Y3159377D01*
X4053689Y3149979D01*
X4054927Y3140581D01*
X4058554Y3131823D01*
X4064325Y3124303D01*
X4071845Y3118533D01*
X4080602Y3114905D01*
X4090000Y3113668D01*
X4099398Y3114905D01*
X4108155Y3118533D01*
X4115676Y3124303D01*
X4121446Y3131823D01*
X4125073Y3140581D01*
X4126311Y3149979D01*
X4125646Y3155025D01*
X4128943Y3158785D01*
X4152425D01*
Y3125811D01*
X4217575D01*
Y3139296D01*
X4230000D01*
Y2975704D01*
X4217575D01*
Y2989189D01*
X4171071D01*
X4169158Y2993808D01*
X4176160Y3000811D01*
X4217575D01*
Y3050213D01*
X4196216D01*
Y3064787D01*
X4217575D01*
Y3114189D01*
X4152425D01*
Y3064787D01*
X4173784D01*
Y3050213D01*
X4152425D01*
Y3008798D01*
X4043069Y2899442D01*
X4040638Y2895804D01*
X4039784Y2891512D01*
X4039785Y2891511D01*
Y2863242D01*
X4038318Y2861956D01*
Y2825000D01*
Y2790356D01*
X4042454Y2790901D01*
X4050969Y2794428D01*
X4053618Y2796460D01*
X4058102Y2794249D01*
Y2658052D01*
X4031164Y2631114D01*
X4025885Y2632906D01*
X4025202Y2638093D01*
X4022078Y2645634D01*
X4017110Y2652110D01*
X4010634Y2657078D01*
X4003093Y2660202D01*
X3995000Y2661267D01*
X3991216Y2660769D01*
X3986215Y2665137D01*
Y2720180D01*
X3990634Y2722010D01*
X3997110Y2726979D01*
X4002078Y2733455D01*
X4005202Y2740996D01*
X4006267Y2749088D01*
X4005202Y2757181D01*
X4002078Y2764722D01*
X3997110Y2771198D01*
X3990634Y2776167D01*
X3983093Y2779291D01*
X3975000Y2780356D01*
X3966907Y2779291D01*
X3959366Y2776167D01*
X3952890Y2771198D01*
X3947922Y2764722D01*
X3944798Y2757181D01*
X3943733Y2749088D01*
X3944798Y2740996D01*
X3947922Y2733455D01*
X3952890Y2726979D01*
X3959366Y2722010D01*
X3963785Y2720180D01*
Y2650001D01*
X3963784Y2650000D01*
X3964638Y2645708D01*
X3966684Y2642646D01*
X3964798Y2638093D01*
X3963733Y2630000D01*
X3964798Y2621907D01*
X3967922Y2614366D01*
X3972890Y2607890D01*
X3979366Y2602922D01*
X3986907Y2599798D01*
X3992094Y2599115D01*
X3993886Y2593836D01*
X3960266Y2560215D01*
X3711359D01*
X3708894Y2565215D01*
X3712078Y2569366D01*
X3715202Y2576907D01*
X3716267Y2585000D01*
X3715202Y2593093D01*
X3712078Y2600634D01*
X3707110Y2607110D01*
X3700634Y2612078D01*
X3696215Y2613909D01*
Y2614999D01*
X3696216Y2615000D01*
X3695362Y2619292D01*
X3694675Y2620321D01*
X3697989Y2624360D01*
X3704166Y2621801D01*
X3708303Y2621257D01*
Y2655900D01*
Y2690544D01*
X3704166Y2689999D01*
X3695652Y2686473D01*
X3688340Y2680863D01*
X3682730Y2673551D01*
X3681197Y2669849D01*
X3676197Y2670844D01*
Y2684784D01*
X3688523Y2697110D01*
X3751590D01*
Y2791787D01*
X3688410D01*
Y2728719D01*
X3652265Y2692575D01*
X3626795D01*
Y2627425D01*
X3656714D01*
X3667719Y2616419D01*
X3666890Y2610178D01*
X3662890Y2607110D01*
X3657922Y2600634D01*
X3654798Y2593093D01*
X3654115Y2587906D01*
X3648836Y2586114D01*
X3641483Y2593466D01*
X3637845Y2595897D01*
X3633553Y2596751D01*
X3633552Y2596751D01*
X3623909D01*
X3622078Y2601169D01*
X3617110Y2607645D01*
X3610634Y2612614D01*
X3603093Y2615738D01*
X3595000Y2616803D01*
X3586907Y2615738D01*
X3579366Y2612614D01*
X3572890Y2607645D01*
X3567922Y2601169D01*
X3564798Y2593628D01*
X3563733Y2585536D01*
X3564798Y2577443D01*
X3567922Y2569902D01*
X3572890Y2563426D01*
X3579366Y2558457D01*
X3586907Y2555334D01*
X3595000Y2554268D01*
X3603093Y2555334D01*
X3610634Y2558457D01*
X3617110Y2563426D01*
X3622078Y2569902D01*
X3623909Y2574320D01*
X3628907D01*
X3662158Y2541070D01*
X3662158Y2541069D01*
X3665796Y2538638D01*
X3670088Y2537785D01*
X3964911D01*
X3964912Y2537784D01*
X3969204Y2538638D01*
X3972842Y2541069D01*
X4077248Y2645475D01*
X4077248Y2645476D01*
X4079680Y2649114D01*
X4080533Y2653406D01*
Y2839912D01*
X4079680Y2844204D01*
X4077248Y2847842D01*
X4077248Y2847842D01*
X4062215Y2862875D01*
Y2886866D01*
X4147806Y2972456D01*
X4152425Y2970543D01*
Y2939787D01*
X4217575D01*
Y2953273D01*
X4225866D01*
X4230000Y2949139D01*
Y2645000D01*
Y2616405D01*
X4229815Y2615000D01*
X4230000Y2613595D01*
Y2245000D01*
X2932680D01*
X2929880Y2250000D01*
X2937614Y2262620D01*
X2945204Y2280943D01*
X2949834Y2300228D01*
X2951390Y2320000D01*
X2949834Y2339772D01*
X2945204Y2359057D01*
X2937614Y2377380D01*
X2927251Y2394290D01*
X2914371Y2409371D01*
X2899290Y2422251D01*
X2882380Y2432614D01*
X2864057Y2440204D01*
X2844772Y2444834D01*
X2825000Y2446390D01*
X2805228Y2444834D01*
X2785943Y2440204D01*
X2767620Y2432614D01*
X2750710Y2422251D01*
X2740000Y2413104D01*
X2735000Y2415409D01*
Y2763425D01*
X2739488D01*
Y2800000D01*
Y2836575D01*
X2735000D01*
Y2888425D01*
X2739488D01*
Y2925000D01*
Y2961575D01*
X2735000D01*
Y3213227D01*
X2740000Y3215298D01*
X2783229Y3172070D01*
X2783229Y3172069D01*
X2786867Y3169638D01*
X2791159Y3168784D01*
X2791160Y3168785D01*
X2998281D01*
X2998282Y3168784D01*
X3002573Y3169638D01*
X3006212Y3172069D01*
X3008572Y3174429D01*
X3014331Y3175030D01*
X3015355Y3174311D01*
X3021719Y3169428D01*
X3030233Y3165901D01*
X3034370Y3165356D01*
Y3200000D01*
X3039370D01*
Y3205000D01*
X3074014D01*
X3073469Y3209137D01*
X3069942Y3217651D01*
X3065059Y3224015D01*
X3064340Y3225039D01*
X3064941Y3230798D01*
X3162806Y3328663D01*
X3167425Y3326750D01*
Y3285811D01*
X3232575D01*
Y3335213D01*
X3211215D01*
Y3368281D01*
X3211216Y3368282D01*
X3210362Y3372573D01*
X3208902Y3374759D01*
X3358466Y3524323D01*
X3362953Y3523733D01*
X3371045Y3524798D01*
X3378587Y3527922D01*
X3385062Y3532890D01*
X3390031Y3539366D01*
X3393155Y3546907D01*
X3394220Y3555000D01*
X3393155Y3563093D01*
X3390031Y3570634D01*
X3385062Y3577110D01*
X3378587Y3582078D01*
X3375215Y3583475D01*
X3374240Y3588379D01*
X3406220Y3620359D01*
X3416091D01*
X3417922Y3615941D01*
X3422890Y3609465D01*
X3429366Y3604496D01*
X3436907Y3601373D01*
X3445000Y3600307D01*
X3453093Y3601373D01*
X3460634Y3604496D01*
X3467110Y3609465D01*
X3472078Y3615941D01*
X3475202Y3623482D01*
X3476267Y3631575D01*
X3475202Y3639667D01*
X3473648Y3643420D01*
X3477887Y3646252D01*
X3484122Y3640017D01*
X3484798Y3634881D01*
X3487922Y3627340D01*
X3492890Y3620864D01*
X3499366Y3615895D01*
X3506907Y3612771D01*
X3515000Y3611706D01*
X3523093Y3612771D01*
X3530634Y3615895D01*
X3537110Y3620864D01*
X3542078Y3627340D01*
X3545202Y3634881D01*
X3546267Y3642974D01*
X3545202Y3651066D01*
X3542078Y3658607D01*
X3537110Y3665083D01*
X3530634Y3670052D01*
X3523093Y3673176D01*
X3515000Y3674241D01*
X3506907Y3673176D01*
X3499366Y3670052D01*
X3492891Y3665083D01*
X3490908Y3664953D01*
X3362931Y3792931D01*
X3359292Y3795362D01*
X3355000Y3796216D01*
X3354999Y3796215D01*
X3015001D01*
X3015000Y3796216D01*
X3010708Y3795362D01*
X3007069Y3792931D01*
X3007069Y3792930D01*
X2892575Y3678436D01*
X2887575Y3680507D01*
Y3724189D01*
X2822425D01*
Y3674787D01*
X2843785D01*
Y3655001D01*
X2843784Y3655000D01*
X2844638Y3650708D01*
X2847069Y3647069D01*
X2854139Y3640000D01*
X2739619Y3525481D01*
X2735000Y3527394D01*
Y3924591D01*
X2740000Y3926896D01*
X2750710Y3917749D01*
X2767620Y3907386D01*
X2785943Y3899796D01*
X2805228Y3895166D01*
X2825000Y3893610D01*
X2844772Y3895166D01*
X2864057Y3899796D01*
X2882380Y3907386D01*
X2899290Y3917749D01*
X2914371Y3930629D01*
X2927251Y3945710D01*
X2937614Y3962620D01*
X2945204Y3980943D01*
X2949834Y4000228D01*
X2951390Y4020000D01*
X2949834Y4039772D01*
X2945204Y4059057D01*
X2937614Y4077380D01*
X2927251Y4094290D01*
X2921982Y4100459D01*
X2924075Y4105000D01*
X3203411D01*
X3207128Y4100000D01*
X3206610Y4096063D01*
X3207504Y4089276D01*
X3210124Y4082951D01*
X3214291Y4077519D01*
X3219722Y4073352D01*
X3226047Y4070732D01*
X3232835Y4069839D01*
X3239622Y4070732D01*
X3245947Y4073352D01*
X3251378Y4077519D01*
X3255546Y4082951D01*
X3258165Y4089276D01*
X3259059Y4096063D01*
X3258541Y4100000D01*
X3262258Y4105000D01*
X3557742D01*
X3561459Y4100000D01*
X3560941Y4096063D01*
X3561834Y4089276D01*
X3564454Y4082951D01*
X3568622Y4077519D01*
X3571553Y4075271D01*
X3569855Y4070271D01*
X3532695D01*
X3532695Y4070271D01*
X3528403Y4069417D01*
X3524764Y4066986D01*
X3524764Y4066985D01*
X3509435Y4051656D01*
X3504699Y4053992D01*
X3505366Y4059055D01*
X3504128Y4068453D01*
X3500501Y4077210D01*
X3494731Y4084731D01*
X3487210Y4090501D01*
X3478453Y4094128D01*
X3469055Y4095366D01*
X3459657Y4094128D01*
X3450900Y4090501D01*
X3443380Y4084731D01*
X3437609Y4077210D01*
X3433982Y4068453D01*
X3432744Y4059055D01*
X3433411Y4053992D01*
X3428675Y4051656D01*
X3413346Y4066986D01*
X3409707Y4069417D01*
X3405416Y4070271D01*
X3405415Y4070271D01*
X3385265D01*
X3382391Y4077210D01*
X3376620Y4084731D01*
X3369100Y4090501D01*
X3360343Y4094128D01*
X3350945Y4095366D01*
X3341547Y4094128D01*
X3332790Y4090501D01*
X3325269Y4084731D01*
X3319499Y4077210D01*
X3315872Y4068453D01*
X3314634Y4059055D01*
X3315872Y4049657D01*
X3319499Y4040900D01*
X3325269Y4033380D01*
X3332790Y4027609D01*
X3341547Y4023982D01*
X3350945Y4022744D01*
X3360343Y4023982D01*
X3369100Y4027609D01*
X3376620Y4033380D01*
X3382391Y4040900D01*
X3385265Y4047840D01*
X3400770D01*
X3442485Y4006125D01*
X3442485Y4006124D01*
X3446124Y4003693D01*
X3450416Y4002840D01*
X3450416Y4002840D01*
X3487694D01*
X3487695Y4002840D01*
X3491987Y4003693D01*
X3495625Y4006124D01*
X3537340Y4047840D01*
X3751624D01*
X3754499Y4040900D01*
X3760269Y4033380D01*
X3767790Y4027609D01*
X3774729Y4024735D01*
Y4009230D01*
X3733014Y3967515D01*
X3730583Y3963876D01*
X3729729Y3959584D01*
X3729729Y3959584D01*
Y3905591D01*
X3604666Y3780528D01*
X3549472D01*
Y3709472D01*
X3620528D01*
Y3764666D01*
X3748876Y3893014D01*
X3751307Y3896653D01*
X3752160Y3900945D01*
X3752160Y3900945D01*
Y3917624D01*
X3757160Y3919321D01*
X3760269Y3915269D01*
X3767790Y3909499D01*
X3776547Y3905872D01*
X3785945Y3904634D01*
X3795343Y3905872D01*
X3802282Y3908746D01*
X3859296Y3851732D01*
Y3777575D01*
X3845811D01*
Y3728555D01*
X3838808Y3721552D01*
X3834189Y3723466D01*
Y3777575D01*
X3784787D01*
Y3756215D01*
X3718809D01*
X3716033Y3762917D01*
X3710338Y3770338D01*
X3702917Y3776033D01*
X3694274Y3779613D01*
X3685000Y3780834D01*
X3675726Y3779613D01*
X3667083Y3776033D01*
X3659662Y3770338D01*
X3653967Y3762917D01*
X3650387Y3754274D01*
X3649166Y3745000D01*
X3650387Y3735726D01*
X3653967Y3727083D01*
X3659662Y3719662D01*
X3667083Y3713967D01*
X3675726Y3710387D01*
X3685000Y3709166D01*
X3694274Y3710387D01*
X3702917Y3713967D01*
X3710338Y3719662D01*
X3716033Y3727083D01*
X3718809Y3733785D01*
X3784787D01*
Y3712425D01*
X3823149D01*
X3825062Y3707806D01*
X3810628Y3693372D01*
X3806210Y3695202D01*
X3798117Y3696267D01*
X3790025Y3695202D01*
X3782484Y3692078D01*
X3776008Y3687110D01*
X3771039Y3680634D01*
X3767915Y3673093D01*
X3766850Y3665000D01*
X3767915Y3656907D01*
X3771039Y3649366D01*
X3776008Y3642890D01*
X3782484Y3637922D01*
X3790025Y3634798D01*
X3798117Y3633733D01*
X3806210Y3634798D01*
X3813751Y3637922D01*
X3820227Y3642890D01*
X3825196Y3649366D01*
X3828320Y3656907D01*
X3829385Y3665000D01*
X3828320Y3673093D01*
X3826490Y3677511D01*
X3861404Y3712425D01*
X3895213D01*
Y3777575D01*
X3881727D01*
Y3856378D01*
X3881727Y3856378D01*
X3880874Y3860670D01*
X3878442Y3864309D01*
X3878442Y3864309D01*
X3818144Y3924607D01*
X3821018Y3931547D01*
X3822256Y3940945D01*
X3821018Y3950343D01*
X3817391Y3959100D01*
X3811620Y3966620D01*
X3804100Y3972391D01*
X3795343Y3976018D01*
X3785945Y3977256D01*
X3780881Y3976589D01*
X3778546Y3981325D01*
X3793875Y3996654D01*
X3793876Y3996654D01*
X3796307Y4000293D01*
X3797160Y4004584D01*
X3797160Y4004585D01*
Y4024735D01*
X3804100Y4027609D01*
X3811620Y4033380D01*
X3817391Y4040900D01*
X3821018Y4049657D01*
X3822256Y4059055D01*
X3821018Y4068453D01*
X3817391Y4077210D01*
X3811620Y4084731D01*
X3804100Y4090501D01*
X3795343Y4094128D01*
X3785945Y4095366D01*
X3776547Y4094128D01*
X3767790Y4090501D01*
X3760269Y4084731D01*
X3754499Y4077210D01*
X3751624Y4070271D01*
X3685144D01*
X3683447Y4075271D01*
X3686378Y4077519D01*
X3690546Y4082951D01*
X3693165Y4089276D01*
X3694059Y4096063D01*
X3693541Y4100000D01*
X3697258Y4105000D01*
X3992742D01*
X3996459Y4100000D01*
X3995941Y4096063D01*
X3996834Y4089276D01*
X3999454Y4082951D01*
X4003622Y4077519D01*
X4009053Y4073352D01*
X4015378Y4070732D01*
X4022165Y4069839D01*
X4028953Y4070732D01*
X4035278Y4073352D01*
X4040709Y4077519D01*
X4044876Y4082951D01*
X4047496Y4089276D01*
X4048390Y4096063D01*
X4047871Y4100000D01*
X4051589Y4105000D01*
X4230000D01*
Y3731405D01*
D02*
G37*
G36*
X3361628Y3702511D02*
X3359798Y3698093D01*
X3358733Y3690000D01*
X3359798Y3681907D01*
X3362922Y3674366D01*
X3367890Y3667890D01*
X3374366Y3662922D01*
X3381907Y3659798D01*
X3390000Y3658733D01*
X3398093Y3659798D01*
X3405634Y3662922D01*
X3412110Y3667890D01*
X3417078Y3674366D01*
X3420202Y3681907D01*
X3421267Y3690000D01*
X3420388Y3696680D01*
X3424839Y3699300D01*
X3459678Y3664461D01*
X3456845Y3660222D01*
X3453093Y3661777D01*
X3445000Y3662842D01*
X3436907Y3661777D01*
X3429366Y3658653D01*
X3422890Y3653684D01*
X3417922Y3647209D01*
X3416091Y3642790D01*
X3401575D01*
X3397283Y3641937D01*
X3393644Y3639505D01*
X3393644Y3639505D01*
X3356354Y3602215D01*
X3348042D01*
X3348041Y3602216D01*
X3343749Y3601362D01*
X3340111Y3598931D01*
X3319022Y3577842D01*
X3316591Y3574204D01*
X3315737Y3569912D01*
X3315737Y3569911D01*
Y3535944D01*
X3102575Y3322782D01*
X3097575Y3324853D01*
Y3369189D01*
X3032425D01*
Y3319787D01*
X3069439D01*
Y3289646D01*
X3043008Y3263215D01*
X3017831D01*
X3017831Y3263216D01*
X3013539Y3262362D01*
X3009900Y3259931D01*
X3009900Y3259930D01*
X2957185Y3207215D01*
X2858847D01*
X2855000Y3210000D01*
Y3235000D01*
X2825000D01*
Y3245000D01*
X2855000D01*
Y3270000D01*
X2848728D01*
X2846262Y3275000D01*
X2847711Y3276888D01*
X2850331Y3283213D01*
X2851224Y3290000D01*
X2850331Y3296787D01*
X2847711Y3303112D01*
X2843544Y3308544D01*
X2838818Y3312169D01*
X2838428Y3315000D01*
X2838818Y3317831D01*
X2843544Y3321456D01*
X2847711Y3326888D01*
X2850331Y3333213D01*
X2851224Y3340000D01*
X2850331Y3346787D01*
X2847711Y3353112D01*
X2843544Y3358544D01*
X2838818Y3362169D01*
X2838428Y3365000D01*
X2838818Y3367831D01*
X2843544Y3371456D01*
X2847711Y3376888D01*
X2850331Y3383213D01*
X2851224Y3390000D01*
X2850331Y3396787D01*
X2847711Y3403112D01*
X2843544Y3408544D01*
X2838818Y3412169D01*
X2838428Y3415000D01*
X2838818Y3417831D01*
X2843544Y3421456D01*
X2847711Y3426888D01*
X2850331Y3433213D01*
X2851224Y3440000D01*
X2850331Y3446787D01*
X2847711Y3453112D01*
X2843544Y3458544D01*
X2838112Y3462711D01*
X2831787Y3465331D01*
X2825000Y3466224D01*
X2818213Y3465331D01*
X2811888Y3462711D01*
X2806456Y3458544D01*
X2802831Y3453818D01*
X2800000Y3453428D01*
X2797169Y3453818D01*
X2793544Y3458544D01*
X2788112Y3462711D01*
X2781787Y3465331D01*
X2775000Y3466224D01*
X2768213Y3465331D01*
X2761888Y3462711D01*
X2756456Y3458544D01*
X2752289Y3453112D01*
X2749669Y3446787D01*
X2749127Y3442667D01*
X2743959Y3440126D01*
X2742215Y3441306D01*
Y3473727D01*
X2907806Y3639317D01*
X2912425Y3637404D01*
Y3595811D01*
X2977575D01*
Y3619835D01*
X2982575Y3620163D01*
X2983732Y3611375D01*
X2987258Y3602861D01*
X2992869Y3595550D01*
X3000180Y3589939D01*
X3008694Y3586413D01*
X3012831Y3585868D01*
Y3620512D01*
Y3655155D01*
X3008694Y3654611D01*
X3000180Y3651084D01*
X2992869Y3645474D01*
X2987258Y3638163D01*
X2983732Y3629649D01*
X2982575Y3620861D01*
X2977575Y3621188D01*
Y3645213D01*
X2956215D01*
Y3667627D01*
X2956216Y3667627D01*
X2955362Y3671919D01*
X2952931Y3675558D01*
X2948489Y3680000D01*
X3022273Y3753785D01*
X3310354D01*
X3361628Y3702511D01*
D02*
G37*
G36*
X4640000Y3643410D02*
X4635000Y3641313D01*
X4628757Y3643899D01*
X4621024Y3644917D01*
X4613291Y3643899D01*
X4606085Y3640914D01*
X4599897Y3636166D01*
X4595149Y3629978D01*
X4592164Y3622772D01*
X4591146Y3615039D01*
X4592164Y3607307D01*
X4595149Y3600101D01*
X4599897Y3593913D01*
X4606085Y3589165D01*
X4613291Y3586180D01*
X4621024Y3585162D01*
X4628757Y3586180D01*
X4635000Y3588766D01*
X4640000Y3586669D01*
Y3185000D01*
X4529842D01*
Y3195000D01*
X4485394D01*
X4440945D01*
Y3185000D01*
X4430000D01*
Y3790000D01*
X4640000D01*
Y3643410D01*
D02*
G37*
G36*
X4440945Y3160000D02*
Y3155000D01*
X4485394D01*
X4529842D01*
Y3160000D01*
X4640000Y3160000D01*
X4640000Y2540000D01*
X4430000Y2540000D01*
X4430000Y3160000D01*
X4440945D01*
D02*
G37*
%LPC*%
G36*
X3904055Y4095366D02*
X3894657Y4094128D01*
X3885900Y4090501D01*
X3878380Y4084731D01*
X3872609Y4077210D01*
X3868982Y4068453D01*
X3867744Y4059055D01*
X3868982Y4049657D01*
X3872609Y4040900D01*
X3878380Y4033380D01*
X3885900Y4027609D01*
X3894657Y4023982D01*
X3904055Y4022744D01*
X3913453Y4023982D01*
X3922210Y4027609D01*
X3929731Y4033380D01*
X3935501Y4040900D01*
X3939128Y4049657D01*
X3940366Y4059055D01*
X3939128Y4068453D01*
X3935501Y4077210D01*
X3929731Y4084731D01*
X3922210Y4090501D01*
X3913453Y4094128D01*
X3904055Y4095366D01*
D02*
G37*
G36*
Y3977256D02*
X3894657Y3976018D01*
X3885900Y3972391D01*
X3878380Y3966620D01*
X3872609Y3959100D01*
X3868982Y3950343D01*
X3867744Y3940945D01*
X3868982Y3931547D01*
X3872609Y3922790D01*
X3878380Y3915269D01*
X3885900Y3909499D01*
X3894657Y3905872D01*
X3904055Y3904634D01*
X3913453Y3905872D01*
X3922210Y3909499D01*
X3929731Y3915269D01*
X3935501Y3922790D01*
X3939128Y3931547D01*
X3940366Y3940945D01*
X3939128Y3950343D01*
X3935501Y3959100D01*
X3929731Y3966620D01*
X3922210Y3972391D01*
X3913453Y3976018D01*
X3904055Y3977256D01*
D02*
G37*
G36*
X3469055D02*
X3459657Y3976018D01*
X3450900Y3972391D01*
X3443380Y3966620D01*
X3437609Y3959100D01*
X3433982Y3950343D01*
X3432744Y3940945D01*
X3433982Y3931547D01*
X3437609Y3922790D01*
X3443380Y3915269D01*
X3450900Y3909499D01*
X3459657Y3905872D01*
X3469055Y3904634D01*
X3478453Y3905872D01*
X3487210Y3909499D01*
X3494731Y3915269D01*
X3500501Y3922790D01*
X3504128Y3931547D01*
X3505366Y3940945D01*
X3504128Y3950343D01*
X3500501Y3959100D01*
X3494731Y3966620D01*
X3487210Y3972391D01*
X3478453Y3976018D01*
X3469055Y3977256D01*
D02*
G37*
G36*
X3350945D02*
X3341547Y3976018D01*
X3332790Y3972391D01*
X3325269Y3966620D01*
X3319499Y3959100D01*
X3315872Y3950343D01*
X3314634Y3940945D01*
X3315872Y3931547D01*
X3319499Y3922790D01*
X3325269Y3915269D01*
X3332790Y3909499D01*
X3341547Y3905872D01*
X3350945Y3904634D01*
X3360343Y3905872D01*
X3369100Y3909499D01*
X3376620Y3915269D01*
X3382391Y3922790D01*
X3386018Y3931547D01*
X3387256Y3940945D01*
X3386018Y3950343D01*
X3382391Y3959100D01*
X3376620Y3966620D01*
X3369100Y3972391D01*
X3360343Y3976018D01*
X3350945Y3977256D01*
D02*
G37*
G36*
X2891575Y3789213D02*
X2860000D01*
Y3765512D01*
X2891575D01*
Y3789213D01*
D02*
G37*
G36*
X2850000D02*
X2818425D01*
Y3765512D01*
X2850000D01*
Y3789213D01*
D02*
G37*
G36*
X2891575Y3755512D02*
X2860000D01*
Y3731811D01*
X2891575D01*
Y3755512D01*
D02*
G37*
G36*
X2850000D02*
X2818425D01*
Y3731811D01*
X2850000D01*
Y3755512D01*
D02*
G37*
G36*
X3874189Y3522575D02*
X3824787D01*
Y3501215D01*
X3798598D01*
Y3511748D01*
X3705890D01*
Y3468252D01*
X3798598D01*
Y3478785D01*
X3824787D01*
Y3457425D01*
X3874189D01*
Y3522575D01*
D02*
G37*
G36*
X3454110Y3511748D02*
X3361402D01*
Y3468252D01*
X3363614D01*
X3365527Y3463633D01*
X3360445Y3458551D01*
X3353845Y3459022D01*
X3351476Y3462110D01*
X3345000Y3467078D01*
X3337459Y3470202D01*
X3329366Y3471267D01*
X3321274Y3470202D01*
X3313732Y3467078D01*
X3307257Y3462110D01*
X3302288Y3455634D01*
X3299164Y3448093D01*
X3298099Y3440000D01*
X3299164Y3431907D01*
X3302288Y3424366D01*
X3307257Y3417890D01*
X3313732Y3412922D01*
X3321274Y3409798D01*
X3329366Y3408733D01*
X3337459Y3409798D01*
X3345000Y3412922D01*
X3351476Y3417890D01*
X3356445Y3424366D01*
X3358321Y3428897D01*
X3362048Y3429638D01*
X3365686Y3432069D01*
X3401869Y3468252D01*
X3454110D01*
Y3511748D01*
D02*
G37*
G36*
X3874189Y3422575D02*
X3824787D01*
Y3401215D01*
X3798598D01*
Y3411748D01*
X3705890D01*
Y3368252D01*
X3798598D01*
Y3378785D01*
X3824787D01*
Y3357425D01*
X3874189D01*
Y3422575D01*
D02*
G37*
G36*
X3454110Y3411748D02*
X3361402D01*
Y3368252D01*
X3361401D01*
X3362977Y3363252D01*
X3361412Y3361215D01*
X3328909D01*
X3327078Y3365634D01*
X3322110Y3372110D01*
X3315634Y3377078D01*
X3308093Y3380202D01*
X3300000Y3381267D01*
X3291907Y3380202D01*
X3284366Y3377078D01*
X3277890Y3372110D01*
X3272922Y3365634D01*
X3269798Y3358093D01*
X3268733Y3350000D01*
X3269798Y3341907D01*
X3272922Y3334366D01*
X3277890Y3327890D01*
X3284366Y3322922D01*
X3291907Y3319798D01*
X3300000Y3318733D01*
X3308093Y3319798D01*
X3315634Y3322922D01*
X3322110Y3327890D01*
X3327078Y3334366D01*
X3328909Y3338785D01*
X3367755D01*
X3367756Y3338784D01*
X3372048Y3339638D01*
X3375686Y3342069D01*
X3401869Y3368252D01*
X3454110D01*
Y3411748D01*
D02*
G37*
G36*
X4155000Y3359644D02*
Y3330000D01*
X4184644D01*
X4184099Y3334137D01*
X4180572Y3342651D01*
X4174962Y3349962D01*
X4167651Y3355572D01*
X4159137Y3359099D01*
X4155000Y3359644D01*
D02*
G37*
G36*
X4145000D02*
X4140863Y3359099D01*
X4132349Y3355572D01*
X4125038Y3349962D01*
X4119428Y3342651D01*
X4115901Y3334137D01*
X4115356Y3330000D01*
X4145000D01*
Y3359644D01*
D02*
G37*
G36*
X3874189Y3322575D02*
X3824787D01*
Y3301215D01*
X3798598D01*
Y3311748D01*
X3705890D01*
Y3268252D01*
X3798598D01*
Y3278785D01*
X3824787D01*
Y3257425D01*
X3874189D01*
Y3322575D01*
D02*
G37*
G36*
X4184644Y3320000D02*
X4155000D01*
Y3290356D01*
X4159137Y3290901D01*
X4167651Y3294428D01*
X4174962Y3300038D01*
X4180572Y3307349D01*
X4184099Y3315863D01*
X4184644Y3320000D01*
D02*
G37*
G36*
X4145000D02*
X4115356D01*
X4115901Y3315863D01*
X4119428Y3307349D01*
X4125038Y3300038D01*
X4132349Y3294428D01*
X4140863Y3290901D01*
X4145000Y3290356D01*
Y3320000D01*
D02*
G37*
G36*
X3454110Y3311748D02*
X3361402D01*
Y3268252D01*
X3363614D01*
X3365527Y3263633D01*
X3348110Y3246215D01*
X3313909D01*
X3312078Y3250634D01*
X3307110Y3257110D01*
X3300634Y3262078D01*
X3293093Y3265202D01*
X3285000Y3266267D01*
X3276907Y3265202D01*
X3269366Y3262078D01*
X3262890Y3257110D01*
X3257922Y3250634D01*
X3254798Y3243093D01*
X3253733Y3235000D01*
X3254798Y3226907D01*
X3257922Y3219366D01*
X3262890Y3212890D01*
X3269366Y3207922D01*
X3276907Y3204798D01*
X3285000Y3203733D01*
X3293093Y3204798D01*
X3300634Y3207922D01*
X3307110Y3212890D01*
X3312078Y3219366D01*
X3313909Y3223785D01*
X3352755D01*
X3352756Y3223784D01*
X3357048Y3224638D01*
X3360686Y3227069D01*
X3401869Y3268252D01*
X3454110D01*
Y3311748D01*
D02*
G37*
G36*
X3232575Y3274189D02*
X3167425D01*
Y3244286D01*
X3147511Y3224372D01*
X3143093Y3226202D01*
X3135000Y3227267D01*
X3126907Y3226202D01*
X3119366Y3223078D01*
X3112890Y3218110D01*
X3107922Y3211634D01*
X3104798Y3204093D01*
X3103733Y3196000D01*
X3104798Y3187907D01*
X3107922Y3180366D01*
X3112890Y3173890D01*
X3119366Y3168922D01*
X3126907Y3165798D01*
X3135000Y3164733D01*
X3143093Y3165798D01*
X3150634Y3168922D01*
X3157110Y3173890D01*
X3162078Y3180366D01*
X3165202Y3187907D01*
X3166267Y3196000D01*
X3165202Y3204093D01*
X3163372Y3208511D01*
X3179648Y3224787D01*
X3232575D01*
Y3274189D01*
D02*
G37*
G36*
X3874189Y3222575D02*
X3824787D01*
Y3201215D01*
X3798598D01*
Y3211748D01*
X3705890D01*
Y3168252D01*
X3798598D01*
Y3178785D01*
X3824787D01*
Y3157425D01*
X3874189D01*
Y3222575D01*
D02*
G37*
G36*
X3454110Y3211748D02*
X3361402D01*
Y3201215D01*
X3330001D01*
X3330000Y3201216D01*
X3325708Y3200362D01*
X3322069Y3197931D01*
X3322069Y3197930D01*
X3308850Y3184711D01*
X3308573Y3184988D01*
X3304935Y3187419D01*
X3300643Y3188273D01*
X3300642Y3188273D01*
X3268909D01*
X3267078Y3192691D01*
X3262110Y3199167D01*
X3255634Y3204136D01*
X3248093Y3207259D01*
X3240000Y3208325D01*
X3231907Y3207259D01*
X3224366Y3204136D01*
X3217890Y3199167D01*
X3212922Y3192691D01*
X3209798Y3185150D01*
X3208733Y3177057D01*
X3209798Y3168965D01*
X3212922Y3161423D01*
X3217890Y3154948D01*
X3224366Y3149979D01*
X3231907Y3146855D01*
X3240000Y3145790D01*
X3248093Y3146855D01*
X3255634Y3149979D01*
X3262110Y3154948D01*
X3267078Y3161423D01*
X3268909Y3165842D01*
X3295997D01*
X3300919Y3160920D01*
X3300919Y3160919D01*
X3304558Y3158488D01*
X3308850Y3157634D01*
X3313142Y3158488D01*
X3316781Y3160919D01*
X3334646Y3178785D01*
X3361402D01*
Y3170161D01*
X3360661Y3167595D01*
X3357746Y3165005D01*
X3350863Y3164099D01*
X3342349Y3160572D01*
X3335038Y3154962D01*
X3329428Y3147651D01*
X3325901Y3139137D01*
X3325356Y3135000D01*
X3394644D01*
X3394099Y3139137D01*
X3390572Y3147651D01*
X3384962Y3154962D01*
X3377651Y3160572D01*
X3371182Y3163252D01*
X3372177Y3168252D01*
X3454110D01*
Y3211748D01*
D02*
G37*
G36*
X3074014Y3195000D02*
X3044370D01*
Y3165356D01*
X3048507Y3165901D01*
X3057021Y3169428D01*
X3064332Y3175038D01*
X3069942Y3182349D01*
X3073469Y3190863D01*
X3074014Y3195000D01*
D02*
G37*
G36*
X3890000Y3632640D02*
X3881907Y3631575D01*
X3874366Y3628451D01*
X3867890Y3623482D01*
X3862922Y3617006D01*
X3859798Y3609465D01*
X3858733Y3601373D01*
X3859798Y3593280D01*
X3862922Y3585739D01*
X3867890Y3579263D01*
X3874366Y3574294D01*
X3881907Y3571171D01*
X3890000Y3570105D01*
X3894296Y3570671D01*
X3899296Y3566532D01*
Y3522575D01*
X3885811D01*
Y3457425D01*
X3899296D01*
Y3422575D01*
X3885811D01*
Y3357425D01*
X3899296D01*
Y3322575D01*
X3885811D01*
Y3257425D01*
X3899296D01*
Y3222575D01*
X3885811D01*
Y3157425D01*
X3935213D01*
Y3222575D01*
X3921727D01*
Y3257425D01*
X3935213D01*
Y3322575D01*
X3921727D01*
Y3357425D01*
X3935213D01*
Y3422575D01*
X3921727D01*
Y3457425D01*
X3935213D01*
Y3522575D01*
X3921727D01*
Y3580860D01*
X3921727Y3580861D01*
X3920874Y3585153D01*
X3918442Y3588791D01*
X3918442Y3588792D01*
X3918372Y3588862D01*
X3920202Y3593280D01*
X3921267Y3601373D01*
X3920202Y3609465D01*
X3917078Y3617006D01*
X3912110Y3623482D01*
X3905634Y3628451D01*
X3898093Y3631575D01*
X3890000Y3632640D01*
D02*
G37*
G36*
X3975000Y3154644D02*
Y3125000D01*
X4004644D01*
X4004099Y3129137D01*
X4000572Y3137651D01*
X3994962Y3144962D01*
X3987651Y3150572D01*
X3979137Y3154099D01*
X3975000Y3154644D01*
D02*
G37*
G36*
X3965000D02*
X3960863Y3154099D01*
X3952349Y3150572D01*
X3945038Y3144962D01*
X3939428Y3137651D01*
X3935901Y3129137D01*
X3935356Y3125000D01*
X3965000D01*
Y3154644D01*
D02*
G37*
G36*
X3394644Y3125000D02*
X3365000D01*
Y3095356D01*
X3369137Y3095901D01*
X3377651Y3099428D01*
X3384962Y3105038D01*
X3390572Y3112349D01*
X3394099Y3120863D01*
X3394644Y3125000D01*
D02*
G37*
G36*
X3355000D02*
X3325356D01*
X3325901Y3120863D01*
X3329428Y3112349D01*
X3335038Y3105038D01*
X3342349Y3099428D01*
X3350863Y3095901D01*
X3355000Y3095356D01*
Y3125000D01*
D02*
G37*
G36*
X4004644Y3115000D02*
X3975000D01*
Y3085356D01*
X3979137Y3085901D01*
X3987651Y3089428D01*
X3994962Y3095038D01*
X4000572Y3102349D01*
X4004099Y3110863D01*
X4004644Y3115000D01*
D02*
G37*
G36*
X3965000D02*
X3935356D01*
X3935901Y3110863D01*
X3939428Y3102349D01*
X3945038Y3095038D01*
X3952349Y3089428D01*
X3960863Y3085901D01*
X3965000Y3085356D01*
Y3115000D01*
D02*
G37*
G36*
Y3076267D02*
X3956907Y3075202D01*
X3949366Y3072078D01*
X3942890Y3067110D01*
X3937922Y3060634D01*
X3936091Y3056215D01*
X3839449D01*
X3839449Y3056216D01*
X3835157Y3055362D01*
X3831518Y3052931D01*
X3831518Y3052930D01*
X3751477Y2972890D01*
X3688410D01*
Y2878213D01*
X3751590D01*
Y2941280D01*
X3844094Y3033785D01*
X3936091D01*
X3937922Y3029366D01*
X3942890Y3022890D01*
X3949366Y3017922D01*
X3956907Y3014798D01*
X3965000Y3013733D01*
X3973093Y3014798D01*
X3980634Y3017922D01*
X3987110Y3022890D01*
X3992078Y3029366D01*
X3995202Y3036907D01*
X3996267Y3045000D01*
X3995202Y3053093D01*
X3992078Y3060634D01*
X3987110Y3067110D01*
X3980634Y3072078D01*
X3973093Y3075202D01*
X3965000Y3076267D01*
D02*
G37*
G36*
X2916315Y2958559D02*
X2868882D01*
Y2936215D01*
X2830213D01*
Y2957575D01*
X2780811D01*
Y2892425D01*
X2830213D01*
Y2913785D01*
X2868882D01*
Y2891441D01*
X2916315D01*
Y2958559D01*
D02*
G37*
G36*
X3555590Y2976890D02*
X3525000D01*
Y2930551D01*
X3555590D01*
Y2976890D01*
D02*
G37*
G36*
X3515000D02*
X3484410D01*
Y2930551D01*
X3515000D01*
Y2976890D01*
D02*
G37*
G36*
X2773189Y2961575D02*
X2749488D01*
Y2930000D01*
X2773189D01*
Y2961575D01*
D02*
G37*
G36*
Y2920000D02*
X2749488D01*
Y2888425D01*
X2773189D01*
Y2920000D01*
D02*
G37*
G36*
X3555590Y2920551D02*
X3525000D01*
Y2874213D01*
X3555590D01*
Y2920551D01*
D02*
G37*
G36*
X3515000D02*
X3484410D01*
Y2874213D01*
X3515000D01*
Y2920551D01*
D02*
G37*
G36*
X2991118Y2958559D02*
X2943685D01*
Y2891441D01*
X2985099D01*
X2994471Y2882070D01*
X2994471Y2882069D01*
X2998110Y2879638D01*
X3002402Y2878784D01*
X3002402Y2878785D01*
X3007430D01*
X3009260Y2874366D01*
X3014229Y2867890D01*
X3020705Y2862922D01*
X3028246Y2859798D01*
X3036338Y2858733D01*
X3044431Y2859798D01*
X3051972Y2862922D01*
X3058448Y2867890D01*
X3063417Y2874366D01*
X3066540Y2881907D01*
X3067606Y2890000D01*
X3066540Y2898093D01*
X3063417Y2905634D01*
X3058448Y2912110D01*
X3051972Y2917078D01*
X3044431Y2920202D01*
X3036338Y2921267D01*
X3028246Y2920202D01*
X3020705Y2917078D01*
X3014229Y2912110D01*
X3009451Y2905883D01*
X3009151Y2905618D01*
X3003491Y2904772D01*
X2991118Y2917145D01*
Y2958559D01*
D02*
G37*
G36*
X3075000Y2851267D02*
X3066907Y2850202D01*
X3059366Y2847078D01*
X3052890Y2842110D01*
X3047922Y2835634D01*
X3046091Y2831215D01*
X3002047D01*
X3000332Y2832931D01*
X2996694Y2835362D01*
X2992402Y2836216D01*
X2988110Y2835362D01*
X2985412Y2833559D01*
X2943685D01*
Y2766441D01*
X2991118D01*
Y2805324D01*
X2991185Y2805469D01*
X2995584Y2809146D01*
X2997402Y2808784D01*
X2997402Y2808785D01*
X3046091D01*
X3047922Y2804366D01*
X3052890Y2797890D01*
X3059366Y2792922D01*
X3066907Y2789798D01*
X3075000Y2788733D01*
X3083093Y2789798D01*
X3090634Y2792922D01*
X3097110Y2797890D01*
X3102078Y2804366D01*
X3105202Y2811907D01*
X3106267Y2820000D01*
X3105202Y2828093D01*
X3102078Y2835634D01*
X3097110Y2842110D01*
X3090634Y2847078D01*
X3083093Y2850202D01*
X3075000Y2851267D01*
D02*
G37*
G36*
X4028318Y2859644D02*
X4024181Y2859099D01*
X4015667Y2855572D01*
X4008355Y2849962D01*
X4002745Y2842651D01*
X3999219Y2834137D01*
X3998674Y2830000D01*
X4028318D01*
Y2859644D01*
D02*
G37*
G36*
X2916315Y2833559D02*
X2868882D01*
Y2811215D01*
X2830213D01*
Y2832575D01*
X2780811D01*
Y2767425D01*
X2830213D01*
Y2788785D01*
X2868882D01*
Y2766441D01*
X2916315D01*
Y2833559D01*
D02*
G37*
G36*
X2773189Y2836575D02*
X2749488D01*
Y2805000D01*
X2773189D01*
Y2836575D01*
D02*
G37*
G36*
X4028318Y2820000D02*
X3998674D01*
X3999219Y2815863D01*
X4002745Y2807349D01*
X4008355Y2800038D01*
X4015667Y2794428D01*
X4024181Y2790901D01*
X4028318Y2790356D01*
Y2820000D01*
D02*
G37*
G36*
X2773189Y2795000D02*
X2749488D01*
Y2763425D01*
X2773189D01*
Y2795000D01*
D02*
G37*
G36*
X3555590Y2795787D02*
X3525000D01*
Y2749449D01*
X3555590D01*
Y2795787D01*
D02*
G37*
G36*
X3515000D02*
X3484410D01*
Y2749449D01*
X3515000D01*
Y2795787D01*
D02*
G37*
G36*
Y2739449D02*
X3484410D01*
Y2693110D01*
X3515000D01*
Y2739449D01*
D02*
G37*
G36*
X3593504Y2696575D02*
Y2665000D01*
X3617205D01*
Y2696575D01*
X3593504D01*
D02*
G37*
G36*
X3555590Y2739449D02*
X3525000D01*
Y2693110D01*
X3554803D01*
X3555590Y2693110D01*
X3558032Y2692008D01*
D01*
X3558032Y2692008D01*
X3559803Y2687428D01*
Y2665000D01*
X3583504D01*
Y2696575D01*
X3560591D01*
X3559803Y2696575D01*
X3557362Y2697677D01*
D01*
X3557362Y2697677D01*
X3555590Y2702257D01*
Y2739449D01*
D02*
G37*
G36*
X3718303Y2690544D02*
Y2660900D01*
X3747946D01*
X3747402Y2665037D01*
X3743875Y2673551D01*
X3738265Y2680863D01*
X3730954Y2686473D01*
X3722439Y2689999D01*
X3718303Y2690544D01*
D02*
G37*
G36*
X3617205Y2655000D02*
X3593504D01*
Y2623425D01*
X3617205D01*
Y2655000D01*
D02*
G37*
G36*
X3583504D02*
X3559803D01*
Y2623425D01*
X3583504D01*
Y2655000D01*
D02*
G37*
G36*
X3747946Y2650900D02*
X3718303D01*
Y2621257D01*
X3722439Y2621801D01*
X3730954Y2625328D01*
X3738265Y2630938D01*
X3743875Y2638249D01*
X3747402Y2646764D01*
X3747946Y2650900D01*
D02*
G37*
G36*
X3517362Y2619644D02*
Y2590000D01*
X3547006D01*
X3546461Y2594137D01*
X3542935Y2602651D01*
X3537325Y2609962D01*
X3530013Y2615572D01*
X3521499Y2619099D01*
X3517362Y2619644D01*
D02*
G37*
G36*
X3507362D02*
X3503225Y2619099D01*
X3494711Y2615572D01*
X3487400Y2609962D01*
X3481790Y2602651D01*
X3478263Y2594137D01*
X3477718Y2590000D01*
X3507362D01*
Y2619644D01*
D02*
G37*
G36*
X3547006Y2580000D02*
X3517362D01*
Y2550356D01*
X3521499Y2550901D01*
X3530013Y2554428D01*
X3537325Y2560038D01*
X3542935Y2567349D01*
X3546461Y2575863D01*
X3547006Y2580000D01*
D02*
G37*
G36*
X3507362D02*
X3477718D01*
X3478263Y2575863D01*
X3481790Y2567349D01*
X3487400Y2560038D01*
X3494711Y2554428D01*
X3503225Y2550901D01*
X3507362Y2550356D01*
Y2580000D01*
D02*
G37*
G36*
X3742953Y2509377D02*
X3733689Y2508157D01*
X3725056Y2504582D01*
X3717642Y2498893D01*
X3711954Y2491480D01*
X3708378Y2482847D01*
X3707158Y2473583D01*
X3708378Y2464318D01*
X3711954Y2455686D01*
X3717642Y2448272D01*
X3725056Y2442584D01*
X3733689Y2439008D01*
X3742953Y2437788D01*
X3752217Y2439008D01*
X3760850Y2442584D01*
X3768263Y2448272D01*
X3773952Y2455686D01*
X3777528Y2464318D01*
X3778747Y2473583D01*
X3777528Y2482847D01*
X3773952Y2491480D01*
X3768263Y2498893D01*
X3760850Y2504582D01*
X3752217Y2508157D01*
X3742953Y2509377D01*
D02*
G37*
G36*
X3487047D02*
X3477783Y2508157D01*
X3469150Y2504582D01*
X3461737Y2498893D01*
X3456048Y2491480D01*
X3452472Y2482847D01*
X3451253Y2473583D01*
X3452472Y2464318D01*
X3456048Y2455686D01*
X3461737Y2448272D01*
X3469150Y2442584D01*
X3477783Y2439008D01*
X3487047Y2437788D01*
X3496311Y2439008D01*
X3504944Y2442584D01*
X3512358Y2448272D01*
X3518046Y2455686D01*
X3521622Y2464318D01*
X3522842Y2473583D01*
X3521622Y2482847D01*
X3518046Y2491480D01*
X3512358Y2498893D01*
X3504944Y2504582D01*
X3496311Y2508157D01*
X3487047Y2509377D01*
D02*
G37*
G36*
X3332953D02*
X3323689Y2508157D01*
X3315056Y2504582D01*
X3307642Y2498893D01*
X3301954Y2491480D01*
X3298378Y2482847D01*
X3297158Y2473583D01*
X3298378Y2464318D01*
X3301954Y2455686D01*
X3307642Y2448272D01*
X3315056Y2442584D01*
X3323689Y2439008D01*
X3332953Y2437788D01*
X3342217Y2439008D01*
X3350850Y2442584D01*
X3358263Y2448272D01*
X3363952Y2455686D01*
X3367528Y2464318D01*
X3368747Y2473583D01*
X3367528Y2482847D01*
X3363952Y2491480D01*
X3358263Y2498893D01*
X3350850Y2504582D01*
X3342217Y2508157D01*
X3332953Y2509377D01*
D02*
G37*
G36*
X3077047D02*
X3067783Y2508157D01*
X3059150Y2504582D01*
X3051737Y2498893D01*
X3046048Y2491480D01*
X3042472Y2482847D01*
X3041253Y2473583D01*
X3042472Y2464318D01*
X3046048Y2455686D01*
X3051737Y2448272D01*
X3059150Y2442584D01*
X3067783Y2439008D01*
X3077047Y2437788D01*
X3086311Y2439008D01*
X3094944Y2442584D01*
X3102358Y2448272D01*
X3108046Y2455686D01*
X3111622Y2464318D01*
X3112842Y2473583D01*
X3111622Y2482847D01*
X3108046Y2491480D01*
X3102358Y2498893D01*
X3094944Y2504582D01*
X3086311Y2508157D01*
X3077047Y2509377D01*
D02*
G37*
G36*
X3742953Y2332212D02*
X3733689Y2330992D01*
X3725056Y2327416D01*
X3717642Y2321728D01*
X3711954Y2314314D01*
X3708378Y2305682D01*
X3707158Y2296417D01*
X3708378Y2287153D01*
X3711954Y2278520D01*
X3717642Y2271107D01*
X3725056Y2265418D01*
X3733689Y2261843D01*
X3742953Y2260623D01*
X3752217Y2261843D01*
X3760850Y2265418D01*
X3768263Y2271107D01*
X3773952Y2278520D01*
X3777528Y2287153D01*
X3778747Y2296417D01*
X3777528Y2305682D01*
X3773952Y2314314D01*
X3768263Y2321728D01*
X3760850Y2327416D01*
X3752217Y2330992D01*
X3742953Y2332212D01*
D02*
G37*
G36*
X3487047D02*
X3477783Y2330992D01*
X3469150Y2327416D01*
X3461737Y2321728D01*
X3456048Y2314314D01*
X3452472Y2305682D01*
X3451253Y2296417D01*
X3452472Y2287153D01*
X3456048Y2278520D01*
X3461737Y2271107D01*
X3469150Y2265418D01*
X3477783Y2261843D01*
X3487047Y2260623D01*
X3496311Y2261843D01*
X3504944Y2265418D01*
X3512358Y2271107D01*
X3518046Y2278520D01*
X3521622Y2287153D01*
X3522842Y2296417D01*
X3521622Y2305682D01*
X3518046Y2314314D01*
X3512358Y2321728D01*
X3504944Y2327416D01*
X3496311Y2330992D01*
X3487047Y2332212D01*
D02*
G37*
G36*
X3332953D02*
X3323689Y2330992D01*
X3315056Y2327416D01*
X3307642Y2321728D01*
X3301954Y2314314D01*
X3298378Y2305682D01*
X3297158Y2296417D01*
X3298378Y2287153D01*
X3301954Y2278520D01*
X3307642Y2271107D01*
X3315056Y2265418D01*
X3323689Y2261843D01*
X3332953Y2260623D01*
X3342217Y2261843D01*
X3350850Y2265418D01*
X3358263Y2271107D01*
X3363952Y2278520D01*
X3367528Y2287153D01*
X3368747Y2296417D01*
X3367528Y2305682D01*
X3363952Y2314314D01*
X3358263Y2321728D01*
X3350850Y2327416D01*
X3342217Y2330992D01*
X3332953Y2332212D01*
D02*
G37*
G36*
X3077047D02*
X3067783Y2330992D01*
X3059150Y2327416D01*
X3051737Y2321728D01*
X3046048Y2314314D01*
X3042472Y2305682D01*
X3041253Y2296417D01*
X3042472Y2287153D01*
X3046048Y2278520D01*
X3051737Y2271107D01*
X3059150Y2265418D01*
X3067783Y2261843D01*
X3077047Y2260623D01*
X3086311Y2261843D01*
X3094944Y2265418D01*
X3102358Y2271107D01*
X3108046Y2278520D01*
X3111622Y2287153D01*
X3112842Y2296417D01*
X3111622Y2305682D01*
X3108046Y2314314D01*
X3102358Y2321728D01*
X3094944Y2327416D01*
X3086311Y2330992D01*
X3077047Y2332212D01*
D02*
G37*
G36*
X3022831Y3655155D02*
Y3625512D01*
X3052475D01*
X3051930Y3629649D01*
X3048403Y3638163D01*
X3042793Y3645474D01*
X3035482Y3651084D01*
X3026968Y3654611D01*
X3022831Y3655155D01*
D02*
G37*
G36*
X3052475Y3615512D02*
X3022831D01*
Y3585868D01*
X3026968Y3586413D01*
X3035482Y3589939D01*
X3042793Y3595550D01*
X3048403Y3602861D01*
X3051930Y3611375D01*
X3052475Y3615512D01*
D02*
G37*
G36*
X2981575Y3588189D02*
X2950000D01*
Y3564488D01*
X2981575D01*
Y3588189D01*
D02*
G37*
G36*
X2940000D02*
X2908425D01*
Y3564488D01*
X2940000D01*
Y3588189D01*
D02*
G37*
G36*
X2981575Y3554488D02*
X2950000D01*
Y3530787D01*
X2981575D01*
Y3554488D01*
D02*
G37*
G36*
X2940000D02*
X2908425D01*
Y3530787D01*
X2940000D01*
Y3554488D01*
D02*
G37*
G36*
X3101575Y3434213D02*
X3070000D01*
Y3410512D01*
X3101575D01*
Y3434213D01*
D02*
G37*
G36*
X3060000D02*
X3028425D01*
Y3410512D01*
X3060000D01*
Y3434213D01*
D02*
G37*
G36*
X3101575Y3400512D02*
X3070000D01*
Y3376811D01*
X3101575D01*
Y3400512D01*
D02*
G37*
G36*
X3060000D02*
X3028425D01*
Y3376811D01*
X3060000D01*
Y3400512D01*
D02*
G37*
G36*
X2942614Y3346813D02*
Y3317169D01*
X2972258D01*
X2971713Y3321306D01*
X2968186Y3329820D01*
X2962576Y3337132D01*
X2955265Y3342742D01*
X2946751Y3346269D01*
X2942614Y3346813D01*
D02*
G37*
G36*
X2932614D02*
X2928477Y3346269D01*
X2919963Y3342742D01*
X2912652Y3337132D01*
X2907042Y3329820D01*
X2903515Y3321306D01*
X2902970Y3317169D01*
X2932614D01*
Y3346813D01*
D02*
G37*
G36*
X2972258Y3307169D02*
X2942614D01*
Y3277526D01*
X2946751Y3278070D01*
X2955265Y3281597D01*
X2962576Y3287207D01*
X2968186Y3294518D01*
X2971713Y3303033D01*
X2972258Y3307169D01*
D02*
G37*
G36*
X2932614D02*
X2902970D01*
X2903515Y3303033D01*
X2907042Y3294518D01*
X2912652Y3287207D01*
X2919963Y3281597D01*
X2928477Y3278070D01*
X2932614Y3277526D01*
Y3307169D01*
D02*
G37*
G36*
X4533504Y3776160D02*
Y3735000D01*
X4574663D01*
X4573726Y3742117D01*
X4569049Y3753409D01*
X4561609Y3763105D01*
X4551913Y3770545D01*
X4540621Y3775222D01*
X4533504Y3776160D01*
D02*
G37*
G36*
X4523504D02*
X4516387Y3775222D01*
X4505095Y3770545D01*
X4495399Y3763105D01*
X4487958Y3753409D01*
X4483281Y3742117D01*
X4482344Y3735000D01*
X4523504D01*
Y3776160D01*
D02*
G37*
G36*
X4574663Y3725000D02*
X4533504D01*
Y3683840D01*
X4540621Y3684778D01*
X4551913Y3689455D01*
X4561609Y3696895D01*
X4569049Y3706591D01*
X4573726Y3717883D01*
X4574663Y3725000D01*
D02*
G37*
G36*
X4523504D02*
X4482344D01*
X4483281Y3717883D01*
X4487958Y3706591D01*
X4495399Y3696895D01*
X4505095Y3689455D01*
X4516387Y3684778D01*
X4523504Y3683840D01*
Y3725000D01*
D02*
G37*
G36*
X4529842Y3271811D02*
X4490394D01*
Y3255000D01*
X4529842D01*
Y3271811D01*
D02*
G37*
G36*
X4480394D02*
X4440945D01*
Y3255000D01*
X4480394D01*
Y3271811D01*
D02*
G37*
G36*
X4529842Y3245000D02*
X4490394D01*
Y3228189D01*
X4529842D01*
Y3245000D01*
D02*
G37*
G36*
X4480394D02*
X4440945D01*
Y3228189D01*
X4480394D01*
Y3245000D01*
D02*
G37*
G36*
X4529842Y3221811D02*
X4490394D01*
Y3205000D01*
X4529842D01*
Y3221811D01*
D02*
G37*
G36*
X4480394D02*
X4440945D01*
Y3205000D01*
X4480394D01*
Y3221811D01*
D02*
G37*
G36*
X4529842Y3145000D02*
X4490394D01*
Y3128189D01*
X4529842D01*
Y3145000D01*
D02*
G37*
G36*
X4480394D02*
X4440945D01*
Y3128189D01*
X4480394D01*
Y3145000D01*
D02*
G37*
G36*
X4529842Y3121811D02*
X4490394D01*
Y3105000D01*
X4529842D01*
Y3121811D01*
D02*
G37*
G36*
X4480394D02*
X4440945D01*
Y3105000D01*
X4480394D01*
Y3121811D01*
D02*
G37*
G36*
X4529842Y3095000D02*
X4490394D01*
Y3078189D01*
X4529842D01*
Y3095000D01*
D02*
G37*
G36*
X4480394D02*
X4440945D01*
Y3078189D01*
X4480394D01*
Y3095000D01*
D02*
G37*
G36*
X4533504Y2661160D02*
Y2620000D01*
X4574663D01*
X4573726Y2627117D01*
X4569049Y2638409D01*
X4561609Y2648105D01*
X4551913Y2655545D01*
X4540621Y2660222D01*
X4533504Y2661160D01*
D02*
G37*
G36*
X4523504D02*
X4516387Y2660222D01*
X4505095Y2655545D01*
X4495399Y2648105D01*
X4487958Y2638409D01*
X4483281Y2627117D01*
X4482344Y2620000D01*
X4523504D01*
Y2661160D01*
D02*
G37*
G36*
X4574663Y2610000D02*
X4533504D01*
Y2568840D01*
X4540621Y2569778D01*
X4551913Y2574455D01*
X4561609Y2581895D01*
X4569049Y2591591D01*
X4573726Y2602883D01*
X4574663Y2610000D01*
D02*
G37*
G36*
X4523504D02*
X4482344D01*
X4483281Y2602883D01*
X4487958Y2591591D01*
X4495399Y2581895D01*
X4505095Y2574455D01*
X4516387Y2569778D01*
X4523504Y2568840D01*
Y2610000D01*
D02*
G37*
%LPD*%
D10*
X3651496Y2660000D02*
D03*
X3588504D02*
D03*
X3849488Y3490000D02*
D03*
X3910512D02*
D03*
X3849488Y3390000D02*
D03*
X3910512D02*
D03*
X3849488Y3190000D02*
D03*
X3910512D02*
D03*
X3849488Y3290000D02*
D03*
X3910512D02*
D03*
X3870512Y3745000D02*
D03*
X3809488D02*
D03*
D11*
X4485394Y3100000D02*
D03*
Y3150000D02*
D03*
Y3200000D02*
D03*
Y3250000D02*
D03*
X4284606D02*
D03*
Y3200000D02*
D03*
Y3150000D02*
D03*
Y3100000D02*
D03*
D12*
X3407756Y3490000D02*
D03*
Y3390000D02*
D03*
Y3290000D02*
D03*
Y3190000D02*
D03*
X3752244D02*
D03*
Y3290000D02*
D03*
Y3390000D02*
D03*
Y3490000D02*
D03*
D13*
X3520000Y2925551D02*
D03*
X3720000D02*
D03*
Y2744449D02*
D03*
X3520000D02*
D03*
D14*
X2892598Y2925000D02*
D03*
X2967402D02*
D03*
Y2800000D02*
D03*
X2892598D02*
D03*
D15*
X2855000Y3699488D02*
D03*
Y3760512D02*
D03*
X4360000Y3016496D02*
D03*
Y2953504D02*
D03*
X4185000Y3089488D02*
D03*
Y3150512D02*
D03*
X2945000Y3559488D02*
D03*
Y3620512D02*
D03*
X3200000Y3249488D02*
D03*
Y3310512D02*
D03*
X3065000Y3405512D02*
D03*
Y3344488D02*
D03*
X4185000Y2964488D02*
D03*
Y3025512D02*
D03*
D16*
X2744488Y2925000D02*
D03*
X2805512D02*
D03*
Y2800000D02*
D03*
X2744488D02*
D03*
D17*
X3240000Y3177057D02*
X3300643D01*
X3308850Y3168850D01*
X3330000Y3190000D01*
X3497026Y3642974D02*
X3515000D01*
X3355000Y3785000D02*
X3497026Y3642974D01*
X3964912Y2549000D02*
X4069318Y2653406D01*
Y2839912D01*
X4051000Y2858229D02*
Y2891512D01*
Y2858229D02*
X4069318Y2839912D01*
X3329366Y3440000D02*
X3357756D01*
X3407756Y3490000D01*
X4284606Y3200000D02*
Y3250000D01*
X2870000Y3640000D02*
X3015000Y3785000D01*
X2715000Y3485000D02*
X2870000Y3640000D01*
X2855000Y3655000D02*
X2870000Y3640000D01*
X2855000Y3655000D02*
Y3699488D01*
X2932627Y3680000D02*
X3017627Y3765000D01*
X2731000Y3478373D02*
X2932627Y3680000D01*
X2945000Y3667627D01*
Y3620512D02*
Y3667627D01*
X3135000Y3196000D02*
X3188488Y3249488D01*
X3200000D01*
X3193282Y3375000D02*
X3362953Y3544671D01*
X3054282Y3236000D02*
X3193282Y3375000D01*
X3200000Y3368282D01*
Y3310512D02*
Y3368282D01*
X3080654Y3285000D02*
X3326953Y3531299D01*
X3047654Y3252000D02*
X3080654Y3285000D01*
Y3328834D01*
X3065000Y3344488D02*
X3080654Y3328834D01*
X3315000Y3765000D02*
X3390000Y3690000D01*
X3017627Y3765000D02*
X3315000D01*
X3015000Y3785000D02*
X3355000D01*
X3326953Y3531299D02*
Y3569912D01*
X2797787Y3196000D02*
X2961831D01*
X3361000Y3591000D02*
X3401575Y3631575D01*
X3348041Y3591000D02*
X3361000D01*
X3326953Y3569912D02*
X3348041Y3591000D01*
X3017831Y3252000D02*
X3047654D01*
X2961831Y3196000D02*
X3017831Y3252000D01*
X3401575Y3631575D02*
X3445000D01*
X2998282Y3180000D02*
X3003370Y3185088D01*
X2791159Y3180000D02*
X2998282D01*
X3362953Y3544671D02*
Y3555000D01*
X3024458Y3236000D02*
X3054282D01*
X3003370Y3214912D02*
X3024458Y3236000D01*
X3003370Y3185088D02*
Y3214912D01*
X4165512Y3170000D02*
X4185000Y3150512D01*
X4105000Y3170000D02*
X4165512D01*
X3910512Y3190000D02*
Y3290000D01*
X3890000Y3601373D02*
X3910512Y3580861D01*
Y3490000D02*
Y3580861D01*
Y3390000D02*
Y3490000D01*
Y3290000D02*
Y3390000D01*
X4284606Y3329606D02*
X4285000Y3330000D01*
X4284606Y3250000D02*
Y3329606D01*
X4331496Y2925000D02*
X4360000Y2953504D01*
X4270000Y2925000D02*
X4331496D01*
X4356496Y3020000D02*
X4360000Y3016496D01*
X4285000Y3020000D02*
X4356496D01*
X3595000Y2585536D02*
X3633553D01*
X3670088Y2549000D01*
X3964912D01*
X4051000Y2891512D02*
X4185000Y3025512D01*
X3975000Y2650000D02*
X3995000Y2630000D01*
X3975000Y2650000D02*
Y2749088D01*
X3651496Y2648504D02*
X3685000Y2615000D01*
Y2585000D02*
Y2615000D01*
X4284606Y3020394D02*
X4285000Y3020000D01*
X4284606Y3020394D02*
Y3100000D01*
X2775000Y3218787D02*
Y3240000D01*
Y3218787D02*
X2797787Y3196000D01*
X2731000Y3434000D02*
Y3478373D01*
Y3434000D02*
X2775000Y3390000D01*
X2715000Y3400000D02*
Y3485000D01*
X4230512Y2964488D02*
X4270000Y2925000D01*
X4185000Y2964488D02*
X4230512D01*
X4185000Y3025512D02*
Y3089488D01*
X4284095Y3150512D02*
X4284606Y3150000D01*
X4185000Y3150512D02*
X4284095D01*
X3651496Y2648504D02*
Y2660000D01*
X3330000Y3190000D02*
X3407756D01*
X3720000Y2925551D02*
X3839449Y3045000D01*
X3965000D01*
X2744000Y3259000D02*
X2775000Y3290000D01*
X2744000Y3227159D02*
Y3259000D01*
Y3227159D02*
X2791159Y3180000D01*
X2715000Y3400000D02*
X2775000Y3340000D01*
X2997402Y2820000D02*
X3077047D01*
X2992402Y2825000D02*
X2997402Y2820000D01*
X3002402Y2890000D02*
X3036338D01*
X2967402Y2800000D02*
X2992402Y2825000D01*
X2967402Y2925000D02*
X3002402Y2890000D01*
X2805512Y2800000D02*
X2892598D01*
X2805512Y2925000D02*
X2892598D01*
X3651496Y2675945D02*
X3720000Y2744449D01*
X3651496Y2660000D02*
Y2675945D01*
X3352756Y3235000D02*
X3407756Y3290000D01*
X3285000Y3235000D02*
X3352756D01*
X3367756Y3350000D02*
X3407756Y3390000D01*
X3300000Y3350000D02*
X3367756D01*
X3752244Y3490000D02*
X3849488D01*
X3752244Y3390000D02*
X3849488D01*
X3752244Y3290000D02*
X3849488D01*
X3752244Y3190000D02*
X3849488D01*
X3798117Y3665000D02*
X3870512Y3737394D01*
Y3745000D01*
Y3856378D01*
X3785945Y3940945D02*
X3870512Y3856378D01*
X3532695Y4059055D02*
X3785945D01*
X3487695Y4014055D02*
X3532695Y4059055D01*
X3450416Y4014055D02*
X3487695D01*
X3405416Y4059055D02*
X3450416Y4014055D01*
X3350945Y4059055D02*
X3405416D01*
X3685000Y3745000D02*
X3809488D01*
X3585000D02*
X3740945Y3900945D01*
Y3959584D01*
X3785945Y4004584D01*
Y4059055D01*
D18*
X4090000Y3149979D02*
D03*
X3469055Y4059055D02*
D03*
Y3940945D02*
D03*
X3350945Y4059055D02*
D03*
Y3940945D02*
D03*
X3785945D02*
D03*
Y4059055D02*
D03*
X3904055Y3940945D02*
D03*
Y4059055D02*
D03*
D19*
X2825000Y3240000D02*
D03*
D20*
X2775000D02*
D03*
X2825000Y3290000D02*
D03*
X2775000D02*
D03*
X2825000Y3340000D02*
D03*
X2775000D02*
D03*
X2825000Y3390000D02*
D03*
X2775000D02*
D03*
X2825000Y3440000D02*
D03*
X2775000D02*
D03*
D21*
X4528504Y3730000D02*
D03*
X4272598D02*
D03*
Y2615000D02*
D03*
X4528504D02*
D03*
D22*
X3585000Y3745000D02*
D03*
D23*
X3685000D02*
D03*
D24*
X3077047Y2473583D02*
D03*
X3332953D02*
D03*
X3077047Y2296417D02*
D03*
X3332953D02*
D03*
X3742953D02*
D03*
X3487047D02*
D03*
X3742953Y2473583D02*
D03*
X3487047D02*
D03*
D25*
X3240000Y3177057D02*
D03*
X3713303Y2655900D02*
D03*
X3515000Y3642974D02*
D03*
X4033318Y2825000D02*
D03*
X3329366Y3440000D02*
D03*
X3360000Y3130000D02*
D03*
X3135000Y3196000D02*
D03*
X3890000Y3601373D02*
D03*
X3039370Y3200000D02*
D03*
X2937614Y3312169D02*
D03*
X4285000Y3330000D02*
D03*
X3995000Y2630000D02*
D03*
X3595000Y2585536D02*
D03*
X3512362Y2585000D02*
D03*
X3975000Y2749088D02*
D03*
X3685000Y2585000D02*
D03*
X4285000Y3020000D02*
D03*
X4150000Y3325000D02*
D03*
X3362953Y3555000D02*
D03*
X3970000Y3120000D02*
D03*
X4270000Y2925000D02*
D03*
X3965000Y3045000D02*
D03*
X3390000Y3690000D02*
D03*
X3075000Y2820000D02*
D03*
X3036338Y2890000D02*
D03*
X3445000Y3631575D02*
D03*
X3017831Y3620512D02*
D03*
X3285000Y3235000D02*
D03*
X3300000Y3350000D02*
D03*
X3798117Y3665000D02*
D03*
D26*
X2825000Y4020000D02*
D03*
X4530000Y2320000D02*
D03*
Y4020000D02*
D03*
X2825000Y2320000D02*
D03*
%TF.MD5,bff3c9d35446ce6321d68aaf5424dda2*%
M02*
