%TF.GenerationSoftware,Altium Limited,Altium Designer,18.1.9 (240)*%
G04 Layer_Color=65535*
%FSLAX26Y26*%
%MOIN*%
%TF.FileFunction,Legend,Top*%
%TF.Part,Single*%
G01*
G75*
%TA.AperFunction,NonConductor*%
%ADD37C,0.007874*%
%ADD38C,0.010000*%
%ADD61C,0.005000*%
%ADD62C,0.003937*%
D37*
X3073937Y2425000D02*
G03*
X3073937Y2425000I-3937J0D01*
G01*
X3446772Y2716890D02*
G03*
X3446772Y2716890I-3937J0D01*
G01*
X3483937Y2425000D02*
G03*
X3483937Y2425000I-3937J0D01*
G01*
X3618031Y2637362D02*
X3621968D01*
X3618031Y2682638D02*
X3621968D01*
X4332835Y3078543D02*
X4437165D01*
X4332835D02*
Y3271457D01*
X4437165D01*
Y3078543D02*
Y3271457D01*
X4450945Y3074409D02*
X4519842D01*
X3735000Y3695000D02*
Y3795000D01*
X3535000Y3695000D02*
X3735000D01*
X3535000D02*
Y3795000D01*
X3735000D01*
X3461890Y3568937D02*
X3698110D01*
Y3111063D02*
Y3568937D01*
X3461890Y3111063D02*
X3698110D01*
X3461890D02*
Y3568937D01*
X3367402Y3519528D02*
X3448110D01*
X2892598Y2966339D02*
X2998898D01*
Y2883661D02*
Y2966339D01*
X2892598Y2883661D02*
X2998898D01*
X4382638Y2983032D02*
Y2986969D01*
X4337362Y2983032D02*
Y2986969D01*
X2892598Y2758661D02*
X2998898D01*
Y2841339D01*
X2892598D02*
X2998898D01*
D38*
X2870000Y3200000D02*
G03*
X2870000Y3200000I-5000J0D01*
G01*
X2895000Y3150000D02*
Y3530000D01*
X2706000Y3150000D02*
Y3530000D01*
X2895000D01*
X2706000Y3150000D02*
X2895000D01*
X4650551Y3585512D02*
Y3874488D01*
X4060000Y3585512D02*
X4650551D01*
X4060000Y3874488D02*
X4650551D01*
X4060000Y3585512D02*
Y3874488D01*
X3220039Y3854921D02*
Y4066339D01*
Y3854921D02*
X3599961D01*
Y4066339D01*
X3220039Y4145079D02*
X3599961D01*
X3655039D02*
X4034961D01*
Y3854921D02*
Y4066339D01*
X3655039Y3854921D02*
X4034961D01*
X3655039D02*
Y4066339D01*
X4060000Y2470512D02*
Y2759488D01*
X4650551D01*
X4060000Y2470512D02*
X4650551D01*
Y2759488D01*
X4031164Y3099981D02*
X4071151D01*
X4051158D01*
Y3040000D01*
X4131132D02*
X4091145D01*
X4131132Y3079987D01*
Y3089984D01*
X4121135Y3099981D01*
X4101141D01*
X4091145Y3089984D01*
X4119984Y3549968D02*
X4086661D01*
X4070000Y3533306D01*
Y3466661D01*
X4086661Y3450000D01*
X4119984D01*
X4136645Y3466661D01*
Y3533306D01*
X4119984Y3549968D01*
X4169968D02*
Y3466661D01*
X4186629Y3450000D01*
X4219952D01*
X4236613Y3466661D01*
Y3549968D01*
X4269935D02*
X4336581D01*
X4303258D01*
Y3450000D01*
X4080000Y2899968D02*
X4113323D01*
X4096661D01*
Y2800000D01*
X4080000D01*
X4113323D01*
X4163306D02*
Y2899968D01*
X4229952Y2800000D01*
Y2899968D01*
X3095000Y2244981D02*
Y2185000D01*
X3134987D01*
X3194968Y2244981D02*
X3154981D01*
Y2185000D01*
X3194968D01*
X3154981Y2214990D02*
X3174974D01*
X3214961Y2244981D02*
Y2185000D01*
X3244952D01*
X3254948Y2194997D01*
Y2234984D01*
X3244952Y2244981D01*
X3214961D01*
X3274942Y2185000D02*
X3304932D01*
X3314929Y2194997D01*
X3304932Y2204994D01*
X3284939D01*
X3274942Y2214990D01*
X3284939Y2224987D01*
X3314929D01*
X3480000Y2185000D02*
Y2244981D01*
X3509990D01*
X3519987Y2234984D01*
Y2214990D01*
X3509990Y2204994D01*
X3480000D01*
X3499994D02*
X3519987Y2185000D01*
X3579968Y2244981D02*
X3539981D01*
Y2185000D01*
X3579968D01*
X3539981Y2214990D02*
X3559974D01*
X3639948Y2234984D02*
X3629952Y2244981D01*
X3609958D01*
X3599961Y2234984D01*
Y2224987D01*
X3609958Y2214990D01*
X3629952D01*
X3639948Y2204994D01*
Y2194997D01*
X3629952Y2185000D01*
X3609958D01*
X3599961Y2194997D01*
X3699929Y2244981D02*
X3659942D01*
Y2185000D01*
X3699929D01*
X3659942Y2214990D02*
X3679935D01*
X3719922Y2244981D02*
X3759910D01*
X3739916D01*
Y2185000D01*
X2831000Y3814000D02*
Y3873981D01*
X2860990D01*
X2870987Y3863984D01*
Y3843990D01*
X2860990Y3833994D01*
X2831000D01*
X2850994D02*
X2870987Y3814000D01*
X2890981D02*
X2910974D01*
X2900977D01*
Y3873981D01*
X2890981Y3863984D01*
X2940964Y3823997D02*
X2950961Y3814000D01*
X2970955D01*
X2980952Y3823997D01*
Y3863984D01*
X2970955Y3873981D01*
X2950961D01*
X2940964Y3863984D01*
Y3853987D01*
X2950961Y3843990D01*
X2980952D01*
X2925000Y3460000D02*
Y3519981D01*
X2954990D01*
X2964987Y3509984D01*
Y3489990D01*
X2954990Y3479994D01*
X2925000D01*
X2944994D02*
X2964987Y3460000D01*
X2984981D02*
X3004974D01*
X2994977D01*
Y3519981D01*
X2984981Y3509984D01*
X3034964D02*
X3044961Y3519981D01*
X3064955D01*
X3074952Y3509984D01*
Y3499987D01*
X3064955Y3489990D01*
X3074952Y3479994D01*
Y3469997D01*
X3064955Y3460000D01*
X3044961D01*
X3034964Y3469997D01*
Y3479994D01*
X3044961Y3489990D01*
X3034964Y3499987D01*
Y3509984D01*
X3044961Y3489990D02*
X3064955D01*
X2997402Y3245000D02*
Y3304981D01*
X3027392D01*
X3037389Y3294984D01*
Y3274990D01*
X3027392Y3264994D01*
X2997402D01*
X3017395D02*
X3037389Y3245000D01*
X3057382D02*
X3077376D01*
X3067379D01*
Y3304981D01*
X3057382Y3294984D01*
X3107366Y3304981D02*
X3147353D01*
Y3294984D01*
X3107366Y3254997D01*
Y3245000D01*
X3115000Y3395000D02*
Y3454981D01*
X3144990D01*
X3154987Y3444984D01*
Y3424990D01*
X3144990Y3414994D01*
X3115000D01*
X3134994D02*
X3154987Y3395000D01*
X3174981D02*
X3194974D01*
X3184977D01*
Y3454981D01*
X3174981Y3444984D01*
X3264952Y3454981D02*
X3244958Y3444984D01*
X3224964Y3424990D01*
Y3404997D01*
X3234961Y3395000D01*
X3254955D01*
X3264952Y3404997D01*
Y3414994D01*
X3254955Y3424990D01*
X3224964D01*
X3144987Y4144981D02*
X3124994D01*
X3134990D01*
Y4094997D01*
X3124994Y4085000D01*
X3114997D01*
X3105000Y4094997D01*
X3164981Y4085000D02*
X3184974D01*
X3174977D01*
Y4144981D01*
X3164981Y4134984D01*
X2892598Y3049981D02*
Y2990000D01*
X2932586D01*
X2992566Y3049981D02*
X2952579D01*
Y2990000D01*
X2992566D01*
X2952579Y3019990D02*
X2972573D01*
X3012560Y3049981D02*
Y2990000D01*
X3042550D01*
X3052547Y2999997D01*
Y3039984D01*
X3042550Y3049981D01*
X3012560D01*
X3112527Y2990000D02*
X3072540D01*
X3112527Y3029987D01*
Y3039984D01*
X3102530Y3049981D01*
X3082537D01*
X3072540Y3039984D01*
X2892598Y2734981D02*
Y2675000D01*
X2932586D01*
X2992566Y2734981D02*
X2952579D01*
Y2675000D01*
X2992566D01*
X2952579Y2704990D02*
X2972573D01*
X3012560Y2734981D02*
Y2675000D01*
X3042550D01*
X3052547Y2684997D01*
Y2724984D01*
X3042550Y2734981D01*
X3012560D01*
X3072540Y2675000D02*
X3092534D01*
X3082537D01*
Y2734981D01*
X3072540Y2724984D01*
X3855000Y2809981D02*
Y2799984D01*
X3874994Y2779990D01*
X3894987Y2799984D01*
Y2809981D01*
X3874994Y2779990D02*
Y2750000D01*
X3914981D02*
X3934974D01*
X3924977D01*
Y2809981D01*
X3914981Y2799984D01*
X3004987Y2394984D02*
X2994990Y2404981D01*
X2974997D01*
X2965000Y2394984D01*
Y2384987D01*
X2974997Y2374990D01*
X2994990D01*
X3004987Y2364994D01*
Y2354997D01*
X2994990Y2345000D01*
X2974997D01*
X2965000Y2354997D01*
X3024981Y2394984D02*
X3034977Y2404981D01*
X3054971D01*
X3064968Y2394984D01*
Y2384987D01*
X3054971Y2374990D01*
X3044974D01*
X3054971D01*
X3064968Y2364994D01*
Y2354997D01*
X3054971Y2345000D01*
X3034977D01*
X3024981Y2354997D01*
X3809987Y2409984D02*
X3799990Y2419981D01*
X3779997D01*
X3770000Y2409984D01*
Y2399987D01*
X3779997Y2389990D01*
X3799990D01*
X3809987Y2379994D01*
Y2369997D01*
X3799990Y2360000D01*
X3779997D01*
X3770000Y2369997D01*
X3869968Y2360000D02*
X3829981D01*
X3869968Y2399987D01*
Y2409984D01*
X3859971Y2419981D01*
X3839977D01*
X3829981Y2409984D01*
X3580013Y3025016D02*
X3590010Y3015019D01*
X3610003D01*
X3620000Y3025016D01*
Y3035013D01*
X3610003Y3045010D01*
X3590010D01*
X3580013Y3055006D01*
Y3065003D01*
X3590010Y3075000D01*
X3610003D01*
X3620000Y3065003D01*
X3560019Y3075000D02*
X3540026D01*
X3550023D01*
Y3015019D01*
X3560019Y3025016D01*
X2695000Y2685000D02*
Y2744981D01*
X2724990D01*
X2734987Y2734984D01*
Y2714990D01*
X2724990Y2704994D01*
X2695000D01*
X2714994D02*
X2734987Y2685000D01*
X2754981D02*
X2774974D01*
X2764977D01*
Y2744981D01*
X2754981Y2734984D01*
X2844952Y2744981D02*
X2804964D01*
Y2714990D01*
X2824958Y2724987D01*
X2834955D01*
X2844952Y2714990D01*
Y2694997D01*
X2834955Y2685000D01*
X2814961D01*
X2804964Y2694997D01*
X4080000Y3215000D02*
Y3274981D01*
X4109990D01*
X4119987Y3264984D01*
Y3244990D01*
X4109990Y3234994D01*
X4080000D01*
X4099993D02*
X4119987Y3215000D01*
X4139981D02*
X4159974D01*
X4149977D01*
Y3274981D01*
X4139981Y3264984D01*
X4219955Y3215000D02*
Y3274981D01*
X4189964Y3244990D01*
X4229952D01*
X3990000Y2950000D02*
Y3009981D01*
X4019990D01*
X4029987Y2999984D01*
Y2979990D01*
X4019990Y2969994D01*
X3990000D01*
X4009994D02*
X4029987Y2950000D01*
X4049981D02*
X4069974D01*
X4059977D01*
Y3009981D01*
X4049981Y2999984D01*
X4099964D02*
X4109961Y3009981D01*
X4129955D01*
X4139952Y2999984D01*
Y2989987D01*
X4129955Y2979990D01*
X4119958D01*
X4129955D01*
X4139952Y2969994D01*
Y2959997D01*
X4129955Y2950000D01*
X4109961D01*
X4099964Y2959997D01*
X2695000Y2980000D02*
Y3039981D01*
X2724990D01*
X2734987Y3029984D01*
Y3009990D01*
X2724990Y2999994D01*
X2695000D01*
X2714994D02*
X2734987Y2980000D01*
X2754981D02*
X2774974D01*
X2764977D01*
Y3039981D01*
X2754981Y3029984D01*
X2804964D02*
X2814961Y3039981D01*
X2834955D01*
X2844952Y3029984D01*
Y2989997D01*
X2834955Y2980000D01*
X2814961D01*
X2804964Y2989997D01*
Y3029984D01*
X3950000Y3160000D02*
Y3219981D01*
X3979990D01*
X3989987Y3209984D01*
Y3189990D01*
X3979990Y3179994D01*
X3950000D01*
X3969994D02*
X3989987Y3160000D01*
X4009981Y3219981D02*
X4049968D01*
Y3209984D01*
X4009981Y3169997D01*
Y3160000D01*
X3950000Y3260000D02*
Y3319981D01*
X3979990D01*
X3989987Y3309984D01*
Y3289990D01*
X3979990Y3279994D01*
X3950000D01*
X3969994D02*
X3989987Y3260000D01*
X4049968Y3319981D02*
X4029974Y3309984D01*
X4009981Y3289990D01*
Y3269997D01*
X4019977Y3260000D01*
X4039971D01*
X4049968Y3269997D01*
Y3279994D01*
X4039971Y3289990D01*
X4009981D01*
X3950000Y3360000D02*
Y3419981D01*
X3979990D01*
X3989987Y3409984D01*
Y3389990D01*
X3979990Y3379994D01*
X3950000D01*
X3969994D02*
X3989987Y3360000D01*
X4049968Y3419981D02*
X4009981D01*
Y3389990D01*
X4029974Y3399987D01*
X4039971D01*
X4049968Y3389990D01*
Y3369997D01*
X4039971Y3360000D01*
X4019977D01*
X4009981Y3369997D01*
X3950000Y3460000D02*
Y3519981D01*
X3979990D01*
X3989987Y3509984D01*
Y3489990D01*
X3979990Y3479994D01*
X3950000D01*
X3969994D02*
X3989987Y3460000D01*
X4039971D02*
Y3519981D01*
X4009981Y3489990D01*
X4049968D01*
X3915000Y3715000D02*
Y3774981D01*
X3944990D01*
X3954987Y3764984D01*
Y3744990D01*
X3944990Y3734994D01*
X3915000D01*
X3934994D02*
X3954987Y3715000D01*
X4014968D02*
X3974981D01*
X4014968Y3754987D01*
Y3764984D01*
X4004971Y3774981D01*
X3984977D01*
X3974981Y3764984D01*
X3430000Y3710000D02*
Y3769981D01*
X3459990D01*
X3469987Y3759984D01*
Y3739990D01*
X3459990Y3729994D01*
X3430000D01*
X3489981Y3710000D02*
X3509974D01*
X3499977D01*
Y3769981D01*
X3489981Y3759984D01*
X4574987Y3554981D02*
X4554993D01*
X4564990D01*
Y3504997D01*
X4554993Y3495000D01*
X4544997D01*
X4535000Y3504997D01*
X4634968Y3554981D02*
X4594981D01*
Y3524990D01*
X4614974Y3534987D01*
X4624971D01*
X4634968Y3524990D01*
Y3504997D01*
X4624971Y3495000D01*
X4604977D01*
X4594981Y3504997D01*
X4574987Y2849981D02*
X4554993D01*
X4564990D01*
Y2799997D01*
X4554993Y2790000D01*
X4544997D01*
X4535000Y2799997D01*
X4624971Y2790000D02*
Y2849981D01*
X4594981Y2819990D01*
X4634968D01*
X2750019Y3594987D02*
Y3574994D01*
Y3584990D01*
X2800003D01*
X2810000Y3574994D01*
Y3564997D01*
X2800003Y3555000D01*
X2760016Y3614981D02*
X2750019Y3624977D01*
Y3644971D01*
X2760016Y3654968D01*
X2770013D01*
X2780010Y3644971D01*
Y3634974D01*
Y3644971D01*
X2790006Y3654968D01*
X2800003D01*
X2810000Y3644971D01*
Y3624977D01*
X2800003Y3614981D01*
X4114987Y4139981D02*
X4094994D01*
X4104990D01*
Y4089997D01*
X4094994Y4080000D01*
X4084997D01*
X4075000Y4089997D01*
X4174968Y4080000D02*
X4134981D01*
X4174968Y4119987D01*
Y4129984D01*
X4164971Y4139981D01*
X4144977D01*
X4134981Y4129984D01*
X4375000Y3369981D02*
X4394993D01*
X4384997D01*
Y3310000D01*
X4375000D01*
X4394993D01*
X4464971Y3359984D02*
X4454974Y3369981D01*
X4434981D01*
X4424984Y3359984D01*
Y3319997D01*
X4434981Y3310000D01*
X4454974D01*
X4464971Y3319997D01*
X4524952Y3310000D02*
X4484964D01*
X4524952Y3349987D01*
Y3359984D01*
X4514955Y3369981D01*
X4494961D01*
X4484964Y3359984D01*
X3479987Y2674984D02*
X3469990Y2684981D01*
X3449997D01*
X3440000Y2674984D01*
Y2634997D01*
X3449997Y2625000D01*
X3469990D01*
X3479987Y2634997D01*
X3539968Y2684981D02*
X3519974Y2674984D01*
X3499981Y2654990D01*
Y2634997D01*
X3509977Y2625000D01*
X3529971D01*
X3539968Y2634997D01*
Y2644994D01*
X3529971Y2654990D01*
X3499981D01*
X4454987Y3007582D02*
X4444990Y3017579D01*
X4424997D01*
X4415000Y3007582D01*
Y2967595D01*
X4424997Y2957598D01*
X4444990D01*
X4454987Y2967595D01*
X4474981Y3007582D02*
X4484977Y3017579D01*
X4504971D01*
X4514968Y3007582D01*
Y2997586D01*
X4504971Y2987589D01*
X4494974D01*
X4504971D01*
X4514968Y2977592D01*
Y2967595D01*
X4504971Y2957598D01*
X4484977D01*
X4474981Y2967595D01*
D61*
X3126260Y2503110D02*
X3283740D01*
X3323110Y2345630D02*
Y2424370D01*
X3126260Y2266890D02*
X3283740D01*
X3086890Y2345630D02*
Y2424370D01*
X3496890Y2345630D02*
Y2424370D01*
X3536260Y2266890D02*
X3693740D01*
X3733110Y2345630D02*
Y2424370D01*
X3536260Y2503110D02*
X3693740D01*
D62*
X3826693Y2736575D02*
Y2933425D01*
X3413307Y2736575D02*
Y2933425D01*
%TF.MD5,f67f2b07f710653e62ddaa7f88a057d2*%
M02*
